<?xml version="1.0" encoding="UTF-8"?>
<svg version="1.1" xmlns="http://www.w3.org/2000/svg" width="2133" height="2133">
<path d="M0 0 C6.06923558 0.00771095 12.13844923 -0.00220895 18.20768157 -0.00973 C28.81213101 -0.02049656 39.41652877 -0.02038136 50.02097646 -0.01258852 C61.38171156 -0.00429116 72.74241973 -0.00262842 84.10315648 -0.00880052 C85.18549495 -0.0093818 85.18549495 -0.0093818 86.28969884 -0.00997482 C89.22921691 -0.0115749 92.16873496 -0.01322106 95.10825298 -0.01492565 C122.39354723 -0.03073664 149.67882346 -0.03189508 176.96412031 -0.02348329 C203.25038783 -0.01538356 229.53664684 -0.01222428 255.82291547 -0.01604463 C257.47778642 -0.01627707 259.13265737 -0.01650854 260.78752832 -0.01673904 C267.4387479 -0.01767055 274.08996747 -0.01862656 280.74118705 -0.01961833 C299.33095776 -0.02236856 317.9207285 -0.02408095 336.5104994 -0.02497675 C337.78001302 -0.02503815 337.78001302 -0.02503815 339.07517338 -0.0251008 C366.01963519 -0.02632756 392.96409442 -0.0229535 419.90855543 -0.01642801 C420.78172036 -0.01621726 421.65488529 -0.01600652 422.55450977 -0.01578938 C436.73170327 -0.01235506 450.90889672 -0.00869643 465.08609016 -0.00501886 C521.3049266 0.00954873 577.5237416 0.00887255 633.74257795 -0.00571062 C647.91283804 -0.00937457 662.08309813 -0.01300788 676.25335828 -0.01642801 C677.12602264 -0.01663936 677.99868699 -0.0168507 678.89779572 -0.01706845 C705.81566892 -0.02354268 732.73354035 -0.02627876 759.65141431 -0.02497675 C760.9199808 -0.02491562 760.9199808 -0.02491562 762.2141749 -0.02485325 C780.78373032 -0.02391558 799.35328556 -0.02201419 817.9228408 -0.01924524 C824.5679049 -0.01825793 831.21296901 -0.01731867 837.85803312 -0.01639311 C839.51096045 -0.01616094 841.16388779 -0.01592475 842.81681513 -0.01568452 C869.08986119 -0.01187651 895.3628979 -0.01613523 921.63594274 -0.02423495 C948.846937 -0.0325321 976.05790971 -0.02942032 1003.26890091 -0.01364106 C1006.19885299 -0.01198421 1009.12880509 -0.01037407 1012.05875722 -0.00880052 C1012.77775565 -0.0084099 1013.49675408 -0.00801928 1014.23754034 -0.00761683 C1025.56104096 -0.00173044 1036.88451451 -0.00578629 1048.20801267 -0.01410754 C1059.37819172 -0.02209975 1070.54832613 -0.01890747 1081.71850319 -0.00506528 C1087.67824696 0.00202148 1093.63788967 0.00461593 1099.59763 -0.00628323 C1177.5599501 -0.13811728 1252.38914368 12.39764685 1323.58095685 45.38540266 C1324.61849103 45.86235579 1325.65602521 46.33930891 1326.72499982 46.83071516 C1356.79057067 60.71070096 1385.08434531 77.51621196 1411.58095685 97.38540266 C1412.19293928 97.84430891 1412.8049217 98.30321516 1413.43544904 98.77602766 C1420.97196486 104.45451049 1428.34242404 110.33189569 1435.58095685 116.38540266 C1436.3710716 117.04596663 1436.3710716 117.04596663 1437.17714826 117.71987532 C1449.84452919 128.34687274 1461.86395884 139.59709957 1473.58095685 151.26040266 C1474.27487531 151.94964827 1474.96879377 152.63889387 1475.68374006 153.34902571 C1480.18607766 157.86549597 1484.4246977 162.55064516 1488.58095685 167.38540266 C1489.62654376 168.57663867 1490.67338758 169.76677279 1491.72158185 170.95571516 C1498.96619462 179.21883186 1505.93610689 187.63257681 1512.58095685 196.38540266 C1513.11833478 197.09148665 1513.65571271 197.79757063 1514.20937482 198.5250511 C1572.75179082 275.7910187 1611.81236196 373.93325006 1614.71238462 481.58022497 C1614.71443725 482.84884098 1614.71648989 484.11745698 1614.71860472 485.42451589 C1614.72411783 488.92206716 1614.72350891 492.4195937 1614.72182713 495.91714791 C1614.72109105 499.73160577 1614.72613059 503.54605694 1614.73040215 507.36051188 C1614.73795478 514.91563263 1614.74017381 522.47074631 1614.7407312 530.02587044 C1614.74164759 539.08041086 1614.74832333 548.1349448 1614.75507803 557.18948242 C1614.77111388 579.07283374 1614.77703899 600.95618434 1614.78182678 622.83954048 C1614.7841656 633.20140427 1614.78776861 643.56326751 1614.79152215 653.92513087 C1614.80435681 689.42615381 1614.81507505 724.92717645 1614.81852476 760.42820166 C1614.81874638 762.65549279 1614.81896817 764.88278392 1614.81919011 767.11007505 C1614.81941074 769.34261702 1614.81963123 771.575159 1614.81985155 773.80770097 C1614.8202941 778.28623826 1614.82074121 782.76477554 1614.82119123 787.24331282 C1614.82130062 788.3537241 1614.82141001 789.46413538 1614.82152272 790.60819549 C1614.82515042 826.58399544 1614.84106008 862.5597752 1614.86438159 898.53556742 C1614.88901861 936.61062046 1614.90269943 974.68566198 1614.90389267 1012.76072322 C1614.90406411 1016.94657142 1614.90427954 1021.13241961 1614.90452711 1025.31826781 C1614.90458287 1026.34886975 1614.90463864 1027.37947169 1614.9046961 1028.44130399 C1614.90584331 1044.97527806 1614.91683729 1061.50923131 1614.93141416 1078.04319836 C1614.94583349 1094.68731801 1614.94898565 1111.33141117 1614.94097418 1127.97553536 C1614.93654311 1137.84272842 1614.94027647 1147.70983552 1614.95621269 1157.57701715 C1614.96605406 1164.19331612 1614.96469844 1170.80955572 1614.95477646 1177.42585431 C1614.94944937 1181.17917519 1614.94845842 1184.93233262 1614.96128518 1188.68563911 C1615.04168089 1213.78286076 1613.36556444 1238.59042982 1609.33095685 1263.38540266 C1609.01735212 1265.3396617 1609.01735212 1265.3396617 1608.69741193 1267.33340071 C1598.53860984 1329.18639559 1576.15297255 1388.88754392 1543.58095685 1442.38540266 C1542.47650229 1444.22637581 1541.37233165 1446.06751932 1540.26845685 1447.90884016 C1530.18195277 1464.59890193 1518.80889269 1480.20970373 1506.58095685 1495.38540266 C1505.46140607 1496.77952376 1505.46140607 1496.77952376 1504.3192381 1498.20180891 C1488.35447164 1517.89264295 1488.35447164 1517.89264295 1479.3661131 1526.60415266 C1477.54703717 1528.41924812 1475.87579181 1530.30774183 1474.20595685 1532.26040266 C1468.2382923 1539.17963105 1461.70574665 1545.54742849 1454.7645506 1551.48305891 C1452.57331451 1553.39206066 1450.43809784 1555.35489122 1448.30849592 1557.33218001 C1442.26202073 1562.93964352 1436.04714652 1568.26370615 1429.58095685 1573.38540266 C1428.94979963 1573.88910383 1428.3186424 1574.39280501 1427.6683592 1574.91176985 C1409.48321244 1589.39657505 1390.54987484 1602.4799963 1370.58095685 1614.38540266 C1369.31928693 1615.13902083 1369.31928693 1615.13902083 1368.03212873 1615.9078636 C1310.43254145 1650.08954918 1246.07613158 1671.91706415 1179.70595685 1680.69790266 C1178.60614484 1680.84509749 1177.50633283 1680.99229231 1176.37319318 1681.14394758 C1172.44800453 1681.62430186 1168.51760014 1682.01407391 1164.58095685 1682.38540266 C1163.71458968 1682.46783405 1162.84822251 1682.55026543 1161.95560179 1682.63519473 C1138.37635167 1684.77794567 1114.81767745 1684.67134917 1091.16150835 1684.64233777 C1085.15039298 1684.63721184 1079.13928765 1684.64380476 1073.12817375 1684.64882444 C1062.6181692 1684.65601256 1052.10818244 1684.65591865 1041.5981783 1684.65073012 C1030.33533044 1684.64520401 1019.07249465 1684.64408574 1007.80964605 1684.64820479 C1007.09504742 1684.64846313 1006.38044879 1684.64872148 1005.64419566 1684.64898765 C1002.73316615 1684.65005434 999.82213666 1684.65115177 996.91110717 1684.6522882 C969.87272529 1684.66283608 942.83435149 1684.66359793 915.79596845 1684.6579933 C889.74560317 1684.65259615 863.6952417 1684.65048593 837.64487592 1684.65303419 C836.00572905 1684.65318915 834.36658219 1684.65334347 832.72743532 1684.65349713 C826.13962633 1684.65411812 819.55181735 1684.65475546 812.96400836 1684.65541666 C794.55078429 1684.65725026 776.13756021 1684.65839177 757.72433607 1684.65898894 C756.88598971 1684.65901623 756.04764335 1684.65904352 755.18389255 1684.65907164 C728.48885169 1684.65988964 701.79381199 1684.65763929 675.09877149 1684.65328978 C673.80090213 1684.65307903 673.80090213 1684.65307903 672.47681318 1684.65286403 C658.42766101 1684.6505744 644.37850886 1684.64813535 630.32935672 1684.64568368 C574.61618245 1684.63597175 518.9030178 1684.63642253 463.18984357 1684.64614485 C449.1476098 1684.64858743 435.10537602 1684.65100961 421.06314222 1684.65328978 C420.19839488 1684.65343067 419.33364755 1684.65357157 418.44269575 1684.65371674 C391.7743229 1684.65803206 365.10595084 1684.6598571 338.43757764 1684.65898894 C337.59985458 1684.65896177 336.76213152 1684.6589346 335.89902291 1684.65890661 C317.50591738 1684.65828152 299.11281193 1684.657014 280.71970649 1684.65516793 C274.13794882 1684.65450971 267.55619116 1684.65388354 260.9744335 1684.65326651 C259.33721173 1684.65311173 257.69998996 1684.65295427 256.06276819 1684.65279412 C230.02466693 1684.65025402 203.98656985 1684.65309711 177.94846914 1684.6584944 C150.98467888 1684.66402246 124.02089828 1684.66195812 97.05710939 1684.65143181 C94.15549549 1684.65032721 91.25388158 1684.64925379 88.35226766 1684.64820479 C87.28418109 1684.64781417 87.28418109 1684.64781417 86.19451701 1684.64741565 C74.96714823 1684.64348694 63.73979156 1684.64620012 52.51242388 1684.6517428 C41.44484551 1684.65706272 30.37728376 1684.65495678 19.30970689 1684.64571462 C13.40139022 1684.64098067 7.49311895 1684.63928076 1.5848038 1684.64652659 C-28.00509906 1684.68014986 -57.31035388 1684.33432868 -86.66904315 1680.19790266 C-87.42910662 1680.09313612 -88.1891701 1679.98836958 -88.9722658 1679.8804283 C-143.73752094 1672.26905531 -195.99393745 1655.02866417 -245.41904315 1630.38540266 C-246.33282733 1629.93052473 -247.24661151 1629.4756468 -248.18808611 1629.00698469 C-268.15763176 1618.99110666 -287.28356956 1607.43281989 -305.41904315 1594.38540266 C-306.53956072 1593.58151106 -306.53956072 1593.58151106 -307.68271502 1592.76137923 C-318.90820537 1584.67662796 -329.81248662 1576.26607254 -340.41904315 1567.38540266 C-341.05777361 1566.85108626 -341.69650408 1566.31676985 -342.35459002 1565.76626204 C-348.39682701 1560.69323667 -354.39019489 1555.62169578 -359.87216815 1549.93618391 C-361.52539537 1548.27878187 -363.25978892 1546.77554416 -365.04404315 1545.26040266 C-373.13628192 1538.27236801 -380.76955049 1530.54619402 -387.6885744 1522.39712141 C-389.83437588 1519.90256663 -392.06489992 1517.49321284 -394.29404315 1515.07290266 C-399.2114706 1509.66816257 -403.87260934 1504.10347593 -408.41904315 1498.38540266 C-408.91355975 1497.76874739 -409.40807635 1497.15209212 -409.9175783 1496.51675032 C-424.90829292 1477.78175681 -438.4562794 1458.18588957 -450.41904315 1437.38540266 C-450.81107928 1436.71025618 -451.20311541 1436.03510969 -451.60703143 1435.33950423 C-454.28185168 1430.72598907 -456.87365094 1426.07147177 -459.41904315 1421.38540266 C-459.87247088 1420.55234602 -460.32589861 1419.71928938 -460.79306658 1418.8609886 C-495.82663392 1354.1062252 -518.663891 1277.33921307 -518.55047091 1203.19337366 C-518.55252354 1201.92505726 -518.55457618 1200.65674085 -518.55669101 1199.34999062 C-518.5622041 1195.85327274 -518.5615952 1192.35657959 -518.55991342 1188.85985878 C-518.55917734 1185.04628953 -518.5642169 1181.23272698 -518.56848844 1177.41916065 C-518.57604108 1169.86576987 -518.57826011 1162.31238616 -518.5788175 1154.758992 C-518.57973388 1145.70647406 -518.58640965 1136.65396261 -518.59316432 1127.60144748 C-518.6092004 1105.72255645 -518.61512538 1083.84366613 -518.61991307 1061.96477028 C-518.62225194 1051.60456954 -518.62585496 1041.24436935 -518.62960845 1030.88416904 C-518.64244333 995.38758529 -518.65316138 959.89100185 -518.65661105 924.39441584 C-518.65683268 922.16737881 -518.65705446 919.94034179 -518.6572764 917.71330476 C-518.65749704 915.48102082 -518.65771752 913.24873689 -518.65793785 911.01645295 C-518.65838039 906.53844335 -518.65882751 902.06043375 -518.65927752 897.58242415 C-518.65938691 896.47214362 -518.6594963 895.3618631 -518.65960901 894.21793771 C-518.66323644 858.24912754 -518.67914494 822.28033757 -518.70246788 786.31153512 C-518.72710736 748.24241251 -518.74078584 710.17330142 -518.74197897 672.1041706 C-518.74215041 667.91858532 -518.74236583 663.73300004 -518.7426134 659.54741476 C-518.74269705 658.00161299 -518.74269705 658.00161299 -518.74278239 656.42458289 C-518.74392941 639.89452564 -518.75492179 623.36448923 -518.76950045 606.834439 C-518.78392298 590.19254246 -518.78707017 573.55067242 -518.77906048 556.90877134 C-518.77463084 547.04401032 -518.77835688 537.1793353 -518.79429898 527.31458572 C-518.80414548 520.69863151 -518.80278001 514.08273666 -518.79286275 507.46678283 C-518.78753922 503.71447906 -518.78653252 499.96233872 -518.79937147 496.2100494 C-518.88324866 470.04303552 -517.22840465 444.05913357 -512.66904315 418.26040266 C-512.54276538 417.52634199 -512.4164876 416.79228132 -512.28638323 416.03597639 C-498.5013722 336.07503952 -465.66993523 259.29381934 -415.41904315 195.38540266 C-414.69587908 194.46243391 -413.97271502 193.53946516 -413.2276369 192.58852766 C-411.30999472 190.17177313 -409.3680846 187.77686457 -407.41904315 185.38540266 C-406.73712908 184.52946516 -406.05521502 183.67352766 -405.3526369 182.79165266 C-400.72779428 177.0333513 -395.893892 171.53592333 -390.84384783 166.15176008 C-388.22359263 163.35691051 -385.66933122 160.52620378 -383.1729494 157.61977766 C-378.83105754 152.63338624 -374.16550718 147.98578359 -369.48154315 143.32290266 C-368.19860369 142.03416243 -368.19860369 142.03416243 -366.88974627 140.71938704 C-361.89415297 135.73141478 -356.7809074 130.97453802 -351.41904315 126.38540266 C-350.26231226 125.36398078 -349.10732318 124.3405825 -347.9541994 123.31509016 C-339.47168213 115.82915942 -330.71476735 108.81903171 -321.64902361 102.05337141 C-319.38822592 100.36235216 -317.13978493 98.655773 -314.8916994 96.94790266 C-296.7031988 83.22685413 -277.39168817 71.32263518 -257.41904315 60.38540266 C-256.47254901 59.86623274 -255.52605486 59.34706282 -254.55087908 58.81216048 C-218.19997996 39.03140326 -179.56009282 24.37355117 -139.41904315 14.38540266 C-138.31608904 14.11002669 -137.21313494 13.83465071 -136.07675799 13.55093001 C-122.94174431 10.32884104 -109.71335759 7.7921378 -96.35654315 5.69790266 C-94.58005389 5.41233504 -94.58005389 5.41233504 -92.76767596 5.12099837 C-61.893177 0.5227114 -31.15223361 -0.05697109 0 0 Z M-24.62360198 178.67802275 C-27.07075611 181.00515097 -29.64932145 183.15647243 -32.24530179 185.31457521 C-37.00357245 189.27694963 -41.58148344 193.3781801 -45.8760744 197.84243391 C-47.50202285 199.46838236 -49.21442128 200.91465344 -50.98154315 202.38540266 C-57.06901237 207.63199579 -62.37865564 213.69375267 -67.79599627 219.61391829 C-69.16850105 221.11194697 -70.55053862 222.60123321 -71.93466815 224.08852766 C-77.63971077 230.28609195 -82.84799935 236.82493111 -87.97324236 243.50259016 C-88.93508004 244.75515554 -89.90024213 246.00517528 -90.86875018 247.25259016 C-103.86177402 264.00320867 -115.17621328 281.83533915 -125.41904315 300.38540266 C-126.1438991 301.69734602 -126.1438991 301.69734602 -126.88339861 303.03579329 C-151.93820658 348.79159618 -167.45940958 399.03235261 -173.73154315 450.76040266 C-173.85378253 451.76605269 -173.85378253 451.76605269 -173.97849139 452.79201887 C-176.22929992 471.63164652 -176.5694526 490.28324841 -176.55991342 509.23970267 C-176.55917474 512.90143746 -176.56422285 516.56316538 -176.56848844 520.22489713 C-176.57602623 527.47025537 -176.57825934 534.71560623 -176.5788175 541.96096798 C-176.57973537 550.64741714 -176.58641548 559.33385958 -176.59316432 568.02030582 C-176.60918511 589.01193217 -176.61512362 610.00355776 -176.61991307 630.99518912 C-176.62225345 640.93885109 -176.62585663 650.88251249 -176.62960845 660.82617401 C-176.64244191 694.90816317 -176.65316013 728.99015202 -176.65661105 763.07214354 C-176.65683268 765.20961255 -176.65705446 767.34708156 -176.6572764 769.48455056 C-176.65749704 771.62699649 -176.65771752 773.76944242 -176.65793785 775.91188834 C-176.65838038 780.20953765 -176.6588275 784.50718695 -176.65927752 788.80483626 C-176.65938691 789.87039465 -176.6594963 790.93595304 -176.65960901 792.03380107 C-176.66323584 826.5480509 -176.67914282 861.06227967 -176.70246788 895.57652144 C-176.7271205 932.12243127 -176.74078645 968.66832907 -176.74197897 1005.21424745 C-176.7421504 1009.23415675 -176.74236582 1013.25406605 -176.7426134 1017.27397536 C-176.74266917 1018.26368932 -176.74272493 1019.25340328 -176.74278239 1020.27310857 C-176.74392826 1036.13180169 -176.75491067 1051.99047304 -176.76950045 1067.84915884 C-176.78393992 1083.82199489 -176.78706076 1099.79480333 -176.77906048 1115.76764412 C-176.77502452 1124.40392691 -176.77566617 1133.04014296 -176.79011782 1141.67641638 C-176.91126269 1217.59285964 -170.65171055 1288.55946993 -138.41904315 1358.38540266 C-137.73463558 1359.90326514 -137.05100481 1361.42147819 -136.3682619 1362.94009016 C-125.15180843 1387.62131508 -110.66634459 1410.72944605 -94.41904315 1432.38540266 C-93.97463885 1432.98288313 -93.53023455 1433.5803636 -93.07236346 1434.19594954 C-86.56859571 1442.9242958 -79.61040081 1451.21927608 -72.41904315 1459.38540266 C-71.21441424 1460.76018782 -71.21441424 1460.76018782 -69.9854494 1462.16274641 C-64.14895618 1468.67160364 -58.02877063 1474.90201404 -51.87259539 1481.10708235 C-50.46236456 1482.52921561 -49.0561172 1483.95529555 -47.65000018 1485.38149641 C-41.55007221 1491.48905883 -35.1630469 1497.00561377 -28.41904315 1502.38540266 C-25.54344721 1504.78289166 -22.70053593 1507.21847846 -19.85459002 1509.65102766 C-18.38280235 1510.90376698 -16.90131828 1512.14509013 -15.41904315 1513.38540266 C-14.58304781 1514.18998696 -14.58304781 1514.18998696 -13.73016369 1515.01082548 C-10.43451427 1516.9709675 -7.31785524 1516.79737881 -3.59345826 1516.76145015 C-2.39520359 1516.76776058 -2.39520359 1516.76776058 -1.17274175 1516.77419849 C1.52623611 1516.78470635 4.22470594 1516.77369383 6.92367689 1516.76292608 C8.87769921 1516.76605327 10.8317198 1516.77049535 12.78573648 1516.77613918 C18.19274265 1516.78789195 23.59958953 1516.78079466 29.0065933 1516.77080533 C34.87519915 1516.76323159 40.74377956 1516.77296054 46.61238185 1516.78053532 C56.91090856 1516.7914016 67.20939213 1516.79112353 77.50792066 1516.78339384 C88.56196577 1516.7751476 99.61598327 1516.77339301 110.67003004 1516.77960585 C111.71630014 1516.78018713 111.71630014 1516.78018713 112.78370701 1516.78078015 C115.62449793 1516.78237993 118.46528883 1516.78402604 121.30607969 1516.78573097 C147.78838146 1516.8016133 174.27066472 1516.8026683 200.75296918 1516.79428862 C201.53832322 1516.79404023 202.32367725 1516.79379185 203.1328299 1516.79353593 C203.91944637 1516.79328714 204.70606283 1516.79303836 205.51651616 1516.79278203 C229.46939003 1516.78521628 253.42225624 1516.78325648 277.37513105 1516.78684996 C278.9783509 1516.7870824 280.58157075 1516.78731387 282.1847906 1516.78754437 C288.62752618 1516.78847577 295.07026175 1516.78943177 301.51299731 1516.79042366 C319.52612639 1516.79317512 337.5392555 1516.79488662 355.55238477 1516.79578207 C356.37278675 1516.79582301 357.19318873 1516.79586395 358.03845137 1516.79590612 C384.19249581 1516.79713453 410.34653758 1516.79375071 436.50058118 1516.78723334 C437.77350166 1516.78691722 437.77350166 1516.78691722 439.0721377 1516.78659471 C452.85330168 1516.78315981 466.6344656 1516.77950143 480.41562952 1516.77582419 C535.01371477 1516.76127122 589.61177795 1516.7619163 644.2098631 1516.77651594 C657.95547109 1516.78017968 671.70107909 1516.78381292 685.44668714 1516.78723334 C686.71633044 1516.78755035 686.71633044 1516.78755035 688.01162309 1516.78787377 C714.1165803 1516.79434718 740.22153567 1516.79708417 766.32649366 1516.79578207 C767.14661803 1516.79574132 767.9667424 1516.79570057 768.81171903 1516.79565858 C786.81952911 1516.7947209 804.827339 1516.79281954 822.83514889 1516.79005056 C829.27972513 1516.78906318 835.72430137 1516.78812393 842.16887761 1516.78719843 C843.77208426 1516.78696626 845.3752909 1516.78673007 846.97849754 1516.78648984 C870.90700748 1516.78291418 894.83550879 1516.7859487 918.76401765 1516.79353593 C919.93906807 1516.79390851 919.93906807 1516.79390851 921.13785688 1516.79428862 C921.91977499 1516.79453667 922.70169309 1516.79478471 923.50730569 1516.79504028 C949.93950937 1516.80333352 976.37169087 1516.80023412 1002.8038914 1516.78444639 C1005.6486803 1516.78278947 1008.49346923 1516.78117934 1011.33825818 1516.77960585 C1012.03638506 1516.77921523 1012.73451193 1516.77882461 1013.45379416 1516.77842215 C1024.46312605 1516.77252828 1035.47243014 1516.77659977 1046.48175951 1516.78491287 C1057.33445995 1516.7928919 1068.18711195 1516.78973533 1079.03980661 1516.7758706 C1084.8341749 1516.76876811 1090.62843902 1516.76622299 1096.42280386 1516.77708855 C1178.7225782 1516.91984337 1256.57224466 1497.11779153 1321.58095685 1444.38540266 C1322.49232404 1443.66481673 1323.40369123 1442.94423079 1324.3426756 1442.20180891 C1340.25760904 1429.46532152 1355.9369042 1415.04669955 1368.5301756 1398.99087141 C1370.69841902 1396.23616977 1372.97770254 1393.6013289 1375.26845685 1390.94790266 C1399.95327812 1361.22692002 1418.19503768 1325.85127842 1430.58095685 1289.38540266 C1430.89758283 1288.45872786 1431.21420881 1287.53205305 1431.54042951 1286.57729719 C1442.31194645 1254.5327374 1447.76677415 1220.39983171 1447.71238462 1186.60131644 C1447.71443725 1185.38925089 1447.71648989 1184.17718535 1447.71860472 1182.92839055 C1447.72325197 1179.59408379 1447.72351114 1176.2598315 1447.72182713 1172.92552563 C1447.72108987 1169.28628644 1447.72613332 1165.64705422 1447.73040215 1162.00781809 C1447.73794799 1154.8030586 1447.74017346 1147.59830653 1447.7407312 1140.3935435 C1447.74164826 1131.75748977 1447.74832599 1123.12144283 1447.75507803 1114.48539203 C1447.7711069 1093.61458665 1447.77703819 1072.74378203 1447.78182678 1051.8729716 C1447.78416629 1041.98890382 1447.78776937 1032.10483663 1447.79152215 1022.2207693 C1447.80435617 988.35099123 1447.81507448 954.48121347 1447.81852476 920.61143301 C1447.81874638 918.48685447 1447.81896817 916.36227594 1447.81919011 914.2376974 C1447.81941074 912.10813703 1447.81963123 909.97857666 1447.81985155 907.84901629 C1447.82029409 903.57712815 1447.82074121 899.30524002 1447.82119123 895.03335188 C1447.82135532 893.4445924 1447.82135532 893.4445924 1447.82152272 891.82373678 C1447.82515014 857.51067073 1447.84105907 823.19762584 1447.86438159 788.88456789 C1447.88902469 752.56183736 1447.90269971 716.23911892 1447.90389267 679.91637979 C1447.90406411 675.92234919 1447.90427953 671.9283186 1447.90452711 667.93428801 C1447.90458287 666.95092711 1447.90463864 665.9675662 1447.9046961 664.95440649 C1447.90584278 649.18593708 1447.91683216 633.41748953 1447.93141416 617.64902748 C1447.94584132 601.77235433 1447.9489813 585.89570896 1447.94097418 570.01903105 C1447.93654677 560.60972924 1447.94026148 551.20051761 1447.95621269 541.79122781 C1447.96606704 535.47890549 1447.96468651 529.16664533 1447.95477646 522.85432337 C1447.9494584 519.27545562 1447.94842737 515.69675911 1447.96128518 512.11790657 C1448.03383744 487.1797298 1446.96216899 461.86861485 1441.83095685 437.38540266 C1441.57564191 436.12107405 1441.32032697 434.85674544 1441.05727521 433.55410383 C1438.5679771 421.61885541 1435.32836086 409.98098365 1431.58095685 398.38540266 C1431.32266096 397.56169173 1431.06436506 396.73798079 1430.79824201 395.88930891 C1414.49912585 344.21786553 1383.91474234 299.8870441 1346.08095685 261.69790266 C1345.21470685 260.81852034 1344.34845685 259.93913801 1343.45595685 259.03310774 C1337.47871004 253.0485469 1331.20343342 247.64116007 1324.58095685 242.38540266 C1323.4466945 241.45618004 1322.31361963 240.525503 1321.18251935 239.59243391 C1272.86714195 200.72455156 1214.08219301 177.28524029 1152.76845685 169.63540266 C1151.85257795 169.5197093 1150.93669904 169.40401594 1149.99306623 169.28481673 C1133.21461155 167.36410984 1116.26227238 167.23570062 1099.39401666 167.22604178 C1097.44724853 167.22134321 1095.50048137 167.21622892 1093.5537153 167.21074299 C1088.24624062 167.19700825 1082.93877211 167.18921772 1077.63128452 167.18251877 C1071.84113971 167.17418005 1066.05100738 167.16033632 1060.26087163 167.14728533 C1048.79643423 167.12236727 1037.3319934 167.10281661 1025.86754292 167.08505717 C1016.33327722 167.07020105 1006.79901771 167.05302922 997.2647585 167.03448103 C994.47034006 167.02906077 991.67592162 167.02364449 988.88150316 167.01822972 C988.1843875 167.0168783 987.48727184 167.01552688 986.76903146 167.01413451 C909.93960489 166.86554274 833.11007255 166.77876165 681.7325901 166.63378418 C667.36631471 166.62222202 653.00003968 166.61022028 638.63376483 166.59801248 C636.08690542 166.59585134 633.54004599 166.5937045 630.99318657 166.591558 C577.28707689 166.54611023 523.5811507 166.457757 469.87514447 166.3443805 C430.64924311 166.26158985 391.42338357 166.18535544 352.19740144 166.15493201 C351.39066248 166.15430317 350.58392353 166.15367433 349.75273793 166.15302644 C332.04286345 166.13934972 314.33298874 166.12924511 296.62311031 166.12250823 C289.49772387 166.11973907 282.37233766 166.11647861 275.2469515 166.11305998 C274.4671597 166.11269847 273.68736789 166.11233695 272.88394603 166.11196449 C247.77870509 166.1000893 222.67375419 166.04744915 197.5686256 165.97347029 C172.28757734 165.89917641 147.00682578 165.86565236 121.7256684 165.88847204 C118.23049583 165.89161806 114.73532305 165.8943026 111.24014989 165.89670943 C110.55502655 165.8971982 109.86990321 165.89768697 109.16401855 165.89819056 C97.66925199 165.90512066 86.17522539 165.86053211 74.68061988 165.8021714 C64.67664109 165.75494936 54.67338129 165.75491515 44.66936641 165.79326492 C38.96842005 165.8137712 33.26952406 165.81377064 27.56878555 165.75624251 C22.37683176 165.70425522 17.18853421 165.71271662 11.99665014 165.76834165 C10.13559806 165.77787882 8.27427055 165.76586016 6.41355924 165.72899248 C-7.38793362 165.47312775 -14.74094068 169.09324085 -24.62360198 178.67802275 Z " fill="#515151" transform="translate(518.4190431460738,57.61459733732045)"/>
<path d="M0 0 C18.08382836 15.05529672 29.67627195 34.41016457 32.22067261 58.05368042 C32.70147194 65.0059916 32.54553922 71.99532421 32.5234375 78.9609375 C32.52156963 80.69685322 32.52014747 82.43276947 32.51914978 84.16868591 C32.51535366 88.7109221 32.50554855 93.2531257 32.4944458 97.79534912 C32.48416886 102.44103556 32.47963876 107.08672732 32.47460938 111.73242188 C32.46392335 120.82813922 32.44688229 129.92383251 32.42578125 139.01953125 C33.0793158 139.14500839 33.73285034 139.27048553 34.40618896 139.39976501 C83.05080754 148.90254797 129.96475965 174.3023395 168.42578125 205.01953125 C169.81990234 206.12361328 169.81990234 206.12361328 171.2421875 207.25 C177.2780066 212.10097836 183.00168078 217.22638169 188.67578125 222.48828125 C191.85906993 225.41835378 195.11487882 228.23536329 198.42578125 231.01953125 C202.32942433 229.573356 205.79377667 227.74377495 209.37890625 225.6328125 C209.94788635 225.29882446 210.51686646 224.96483643 211.10308838 224.62072754 C212.9626341 223.52782395 214.81915827 222.42989124 216.67578125 221.33203125 C217.97315654 220.56899818 219.27068451 219.80622466 220.56835938 219.04370117 C226.88440528 215.32653031 233.17925911 211.57682323 239.44140625 207.76953125 C240.53678711 207.10526123 241.63216797 206.44099121 242.76074219 205.7565918 C244.79916964 204.51708828 246.8339829 203.27161137 248.86425781 202.01879883 C270.48610291 188.86260057 293.82129075 183.27128423 318.765625 188.98046875 C334.23161981 193.37102864 346.91990764 200.70574234 358.42578125 212.01953125 C359.12574219 212.70660156 359.82570313 213.39367187 360.546875 214.1015625 C375.41563092 229.72390059 382.90392272 251.87346399 382.57421875 273.23828125 C381.47376159 293.85737331 374.14873462 312.56118495 360.42578125 328.01953125 C359.55566406 329.03080078 359.55566406 329.03080078 358.66796875 330.0625 C348.04676561 341.58029821 332.91970471 348.74396042 319.51806641 356.53076172 C308.69324289 362.82450389 298.0234897 369.34990372 287.42578125 376.01953125 C287.75449219 377.29957031 287.75449219 377.29957031 288.08984375 378.60546875 C288.99651655 382.18056069 289.88688674 385.75902436 290.76660156 389.34082031 C291.2209939 391.18733614 291.67888696 393.03299284 292.13964844 394.87792969 C298.12878064 418.99886605 302.47486334 443.61603784 302.6640625 468.52734375 C302.67385635 469.59907333 302.68365021 470.67080292 302.69374084 471.77500916 C302.97910908 511.12794535 299.50295158 547.92513855 288.30859375 585.87109375 C287.33578645 588.79550866 287.33578645 588.79550866 287.42578125 591.01953125 C289.75274089 592.65557024 289.75274089 592.65557024 292.78515625 594.3359375 C293.63713844 594.82858093 293.63713844 594.82858093 294.5063324 595.33117676 C295.74294402 596.0455111 296.98143251 596.75660365 298.2215271 597.46487427 C301.54027132 599.36204731 304.84308365 601.28665718 308.1484375 603.20703125 C308.83122269 603.60285904 309.51400787 603.99868683 310.21748352 604.4065094 C316.78535455 608.21726905 323.31900202 612.08287773 329.82165527 616.00387573 C330.99855343 616.71210349 332.17713807 617.4175377 333.35754395 618.11990356 C348.86159657 627.34889021 362.47631514 638.09407104 371.42578125 654.01953125 C371.88726563 654.83164063 372.34875 655.64375 372.82421875 656.48046875 C383.04553128 675.62219949 384.94614236 697.96223113 379.42578125 718.79296875 C372.4756404 740.96940502 358.6836322 759.29903741 337.984375 770.265625 C316.60078712 780.80484669 293.98938294 782.95934124 271.05078125 775.95703125 C262.57664612 773.0498462 255.05513059 768.64184011 247.42578125 764.01953125 C246.39694824 763.39933105 245.36811523 762.77913086 244.30810547 762.14013672 C238.33758661 758.53769335 232.37758624 754.91842326 226.42578125 751.28515625 C220.19288202 747.4804815 213.940517 743.70909566 207.67578125 739.95703125 C206.83047852 739.45067139 205.98517578 738.94431152 205.11425781 738.42260742 C203.21848614 737.28760175 201.32220246 736.15345131 199.42578125 735.01953125 C195.35824981 738.44413769 191.39769501 741.94524843 187.54516602 745.60986328 C180.19781771 752.58712451 172.51728301 758.92986791 164.42578125 765.01953125 C163.8318457 765.47038086 163.23791016 765.92123047 162.62597656 766.38574219 C142.57658294 781.56553564 121.11932775 794.21229803 98.42578125 805.01953125 C97.7517627 805.34131348 97.07774414 805.6630957 96.38330078 805.99462891 C49.7597258 828.01953125 49.7597258 828.01953125 32.42578125 828.01953125 C32.43244308 828.95897079 32.43910492 829.89841034 32.44596863 830.86631775 C32.50723535 839.79368366 32.55196986 848.72100597 32.58121777 857.64853573 C32.59676072 862.23640255 32.61778641 866.82409736 32.65209961 871.41186523 C32.68510475 875.85340079 32.70271931 880.2947727 32.71041298 884.73642159 C32.71588372 886.41658664 32.7265622 888.09674448 32.74297142 889.7768383 C32.97910223 914.99589045 27.42796017 937.6116903 10.42578125 957.01953125 C9.55373047 958.03466797 9.55373047 958.03466797 8.6640625 959.0703125 C-6.22403365 975.18562699 -26.97399294 982.73301728 -48.421875 984.30078125 C-71.54634992 984.88436421 -92.42507457 977.05563525 -109.30078125 961.19140625 C-110.05101562 960.4746875 -110.80125 959.75796875 -111.57421875 959.01953125 C-112.20070313 958.4678125 -112.8271875 957.91609375 -113.47265625 957.34765625 C-127.43708893 944.58378565 -134.91390707 923.85469064 -135.92297363 905.25018311 C-136.07827195 900.27386059 -136.02652583 895.30173568 -135.96484375 890.32421875 C-135.95735682 888.51149123 -135.95167555 886.69875545 -135.94769287 884.88601685 C-135.93262899 880.18093373 -135.89352065 875.47636732 -135.84887695 870.77148438 C-135.80750155 865.94408146 -135.78959286 861.1165927 -135.76953125 856.2890625 C-135.72700164 846.86566196 -135.65899299 837.44264004 -135.57421875 828.01953125 C-137.2910083 827.62454185 -137.2910083 827.62454185 -139.04248047 827.22157288 C-140.5713199 826.86667944 -142.10012676 826.51164571 -143.62890625 826.15649414 C-144.38002686 825.98407448 -145.13114746 825.81165482 -145.9050293 825.63401031 C-152.95253171 823.99149296 -159.74297043 821.85268534 -166.57421875 819.45703125 C-167.81042969 819.02575928 -169.04664063 818.5944873 -170.3203125 818.15014648 C-209.328687 804.36402796 -246.03238474 783.85294656 -277.57421875 757.01953125 C-278.68057713 756.09846268 -279.78737374 755.17792033 -280.89453125 754.2578125 C-289.24093266 747.26859648 -296.99254629 739.82789824 -304.57421875 732.01953125 C-308.67758492 733.51971235 -312.34518373 735.5326386 -316.078125 737.7734375 C-316.70558121 738.14643982 -317.33303741 738.51944214 -317.97950745 738.90374756 C-319.33021923 739.70763254 -320.67989368 740.51326257 -322.02862549 741.32046509 C-324.16193316 742.59712055 -326.29824186 743.86863238 -328.43505859 745.1394043 C-335.46209123 749.32514199 -342.46287652 753.5497196 -349.421875 757.84765625 C-350.66265316 758.61128879 -351.90345671 759.37488008 -353.14428711 760.13842773 C-355.44001969 761.55172123 -357.72661441 762.97698511 -360.01000977 764.41040039 C-381.64051256 777.75540475 -404.43450487 783.16477492 -429.57421875 778.01953125 C-442.88535362 774.43107678 -453.97532001 768.81479331 -464.57421875 760.01953125 C-465.15558594 759.58382812 -465.73695313 759.148125 -466.3359375 758.69921875 C-481.87726811 746.59944154 -490.20852702 726.89050795 -493.57421875 708.01953125 C-495.28674716 683.66855832 -490.82284692 661.30299525 -475.1015625 641.98046875 C-465.03261054 630.40063051 -452.71009251 622.64726219 -439.57421875 615.01953125 C-436.75726884 613.36902332 -433.94324798 611.71354395 -431.12890625 610.05859375 C-430.42095917 609.64324371 -429.71301208 609.22789368 -428.98361206 608.79995728 C-420.89065151 604.0457935 -412.87638074 599.16361918 -404.86425781 594.27490234 C-403.16624494 593.23888188 -401.4678968 592.20341096 -399.76953125 591.16796875 C-398.3311792 590.28890869 -398.3311792 590.28890869 -396.86376953 589.39208984 C-394.57421875 588.01953125 -394.57421875 588.01953125 -392.57421875 587.01953125 C-393.30991033 580.70853841 -394.84214892 574.67548746 -396.38671875 568.51953125 C-400.78709105 550.54694223 -403.94405462 532.45326736 -405.57421875 514.01953125 C-405.74244141 512.21355469 -405.74244141 512.21355469 -405.9140625 510.37109375 C-409.00732989 470.62472642 -405.24565125 430.14036212 -394.72192383 391.69970703 C-394.42825928 390.61415527 -394.13459473 389.52860352 -393.83203125 388.41015625 C-393.56535645 387.46172852 -393.29868164 386.51330078 -393.02392578 385.53613281 C-392.53623717 382.80698288 -392.35670532 381.5117654 -393.57421875 379.01953125 C-395.96211005 377.15490034 -395.96211005 377.15490034 -399.03125 375.5078125 C-399.88097382 375.01941391 -399.88097382 375.01941391 -400.74786377 374.52114868 C-401.97703632 373.81633304 -403.20951977 373.11726736 -404.44485474 372.42330933 C-407.07758641 370.94378123 -409.69376042 369.43607613 -412.3110199 367.92939758 C-413.67349079 367.14523467 -415.03675412 366.36244713 -416.40077209 365.58097839 C-422.94434219 361.82723485 -429.41336023 357.95592272 -435.85922241 354.03720093 C-437.58185746 352.99037 -439.30712285 351.94787131 -441.0324707 350.90551758 C-465.7713943 335.87270371 -484.13703108 320.07678054 -491.84765625 291.078125 C-495.59226648 275.31452386 -494.83265385 258.32933573 -489.57421875 243.01953125 C-489.03087891 241.42625 -489.03087891 241.42625 -488.4765625 239.80078125 C-480.24815778 218.15589291 -463.31961034 202.65590589 -442.76123047 192.95898438 C-422.58163292 184.29063303 -398.68679288 184.73506269 -378.4375 192.6484375 C-370.9655139 195.64274354 -364.25062084 199.5262767 -357.44921875 203.83203125 C-355.03062868 205.33734835 -352.60686692 206.83426828 -350.18359375 208.33203125 C-349.5670694 208.71466629 -348.95054504 209.09730133 -348.31533813 209.49153137 C-340.57254669 214.28513208 -332.69539942 218.84947587 -324.82122803 223.42276001 C-323.61852236 224.12145276 -322.41619946 224.82080489 -321.21429443 225.52087402 C-319.63495457 226.4405962 -318.05410803 227.35772978 -316.47314453 228.2746582 C-314.38643358 229.53065645 -312.34487655 230.86279215 -310.33642578 232.24047852 C-307.82181659 234.21872172 -307.82181659 234.21872172 -305.43359375 233.99609375 C-303.10066789 232.77081756 -301.62415594 231.32091031 -299.82421875 229.39453125 C-295.92193855 225.34931039 -291.84066894 221.67347126 -287.57421875 218.01953125 C-286.55535376 217.12572427 -285.53717857 216.23113062 -284.51953125 215.3359375 C-267.46162346 200.41119511 -249.0338672 187.53452118 -229.46582031 176.12402344 C-228.21251263 175.39222634 -226.96181184 174.65594478 -225.71386719 173.91503906 C-202.96819539 160.42950994 -178.23613352 150.77512178 -153.01171875 143.01953125 C-151.59354858 142.58314331 -151.59354858 142.58314331 -150.14672852 142.13793945 C-145.27991077 140.68603115 -140.61565838 139.71592767 -135.57421875 139.01953125 C-135.5842115 137.52854164 -135.5842115 137.52854164 -135.59440613 136.00743103 C-135.65557238 126.57909073 -135.7003603 117.15079138 -135.72965527 107.72229671 C-135.74522305 102.87654706 -135.76629618 98.03095927 -135.80053711 93.18530273 C-135.83345105 88.49739076 -135.85113833 83.80963318 -135.85885048 79.12161446 C-135.86433712 77.34490089 -135.87504863 75.56819449 -135.89140892 73.79154778 C-136.0296233 58.14078148 -134.48606844 44.33834881 -127.57421875 30.01953125 C-127.15527344 29.11847656 -126.73632812 28.21742188 -126.3046875 27.2890625 C-116.8632323 8.4333609 -99.72509526 -5.76482572 -80.03515625 -12.87890625 C-52.32142605 -21.69975492 -23.39858647 -17.42113245 0 0 Z M-177.57421875 345.01953125 C-178.19603027 345.59896484 -178.8178418 346.17839844 -179.45849609 346.77539062 C-214.78726313 380.02802188 -237.32094937 426.41996466 -238.85546875 475.23046875 C-239.25719564 497.19247214 -237.13015642 518.02899012 -230.57421875 539.01953125 C-230.33751465 539.77766113 -230.10081055 540.53579102 -229.85693359 541.31689453 C-217.88558376 578.54265629 -193.78018302 610.74874333 -162.57421875 634.01953125 C-161.32898438 634.95732422 -161.32898438 634.95732422 -160.05859375 635.9140625 C-146.57223342 645.70772893 -132.10870606 653.08485275 -116.57421875 659.01953125 C-114.74697266 659.72722656 -114.74697266 659.72722656 -112.8828125 660.44921875 C-93.30382725 667.49327825 -72.95454713 670.25293987 -52.26171875 670.26953125 C-51.50510956 670.27020599 -50.74850037 670.27088074 -49.96896362 670.27157593 C-37.94306058 670.25456931 -26.34805037 669.66027029 -14.57421875 667.01953125 C-13.7965918 666.8479248 -13.01896484 666.67631836 -12.21777344 666.49951172 C14.03234628 660.52678216 39.20412194 649.74719212 60.42578125 633.01953125 C61.36035156 632.29378906 62.29492188 631.56804687 63.2578125 630.8203125 C87.0973224 611.82373594 105.80867843 588.91433264 118.42578125 561.01953125 C119.21855469 559.33923828 119.21855469 559.33923828 120.02734375 557.625 C140.10990283 513.39187628 140.1069863 462.26476014 123.39453125 417.0625 C115.42635899 396.27405058 104.34373177 377.55023318 89.42578125 361.01953125 C88.216237 359.60389832 87.00774407 358.18736574 85.80078125 356.76953125 C54.14454331 320.9874803 8.04055014 300.0369686 -39.26171875 296.26953125 C-41.36504875 296.16723406 -43.4693341 296.08216042 -45.57421875 296.01953125 C-46.47785156 295.97957031 -47.38148438 295.93960937 -48.3125 295.8984375 C-95.34080215 294.76762967 -143.27270961 312.83438944 -177.57421875 345.01953125 Z " fill="#A8FD02" transform="translate(1126.57421875,428.98046875)"/>
<path d="M0 0 C1.84368164 0.00676758 1.84368164 0.00676758 3.72460938 0.01367188 C6.71229356 0.02529711 9.69986855 0.04163441 12.6875 0.0625 C9.51953244 3.30952557 6.29182388 6.29263237 2.75 9.125 C-10.47375972 19.79887899 -10.47375972 19.79887899 -22.76171875 31.51171875 C-24.43040059 33.18040059 -26.19064932 34.67295188 -28 36.1875 C-33.39359696 40.84039022 -38.07042715 46.16324662 -42.83837891 51.43994141 C-44.18587009 52.92311902 -45.55104772 54.39017859 -46.91796875 55.85546875 C-52.95907555 62.3575821 -58.49425566 69.15309096 -63.8828125 76.19580078 C-64.83723926 77.44196659 -65.79559267 78.68513464 -66.7578125 79.92529297 C-79.75280443 96.67719266 -91.06858189 114.51046566 -101.3125 133.0625 C-101.7957373 133.93712891 -102.27897461 134.81175781 -102.77685547 135.71289062 C-127.83166343 181.46869352 -143.35286643 231.70944995 -149.625 283.4375 C-149.70649292 284.10793335 -149.78798584 284.7783667 -149.87194824 285.46911621 C-152.12275678 304.30874386 -152.46290945 322.96034575 -152.45337028 341.91680001 C-152.4526316 345.5785348 -152.45767971 349.24026271 -152.4619453 352.90199447 C-152.46948308 360.14735271 -152.4717162 367.39270357 -152.47227435 374.63806532 C-152.47319222 383.32451448 -152.47987233 392.01095692 -152.48662117 400.69740316 C-152.50264196 421.68902951 -152.50858047 442.6806551 -152.51336992 463.67228646 C-152.51571031 473.61594843 -152.51931349 483.55960983 -152.5230653 493.50327135 C-152.53589876 527.58526051 -152.54661699 561.66724935 -152.5500679 595.74924088 C-152.55028953 597.88670988 -152.55051131 600.02417889 -152.55073325 602.1616479 C-152.55095389 604.30409383 -152.55117437 606.44653975 -152.5513947 608.58898568 C-152.55183724 612.88663499 -152.55228436 617.18428429 -152.55273438 621.48193359 C-152.55284377 622.54749198 -152.55295316 623.61305037 -152.55306586 624.71089841 C-152.5566927 659.22514824 -152.57259967 693.73937701 -152.59592474 728.25361878 C-152.62057735 764.7995286 -152.6342433 801.34542641 -152.63543582 837.89134479 C-152.63560725 841.91125409 -152.63582267 845.93116339 -152.63607025 849.95107269 C-152.63612602 850.94078665 -152.63618179 851.93050062 -152.63623925 852.95020591 C-152.63738511 868.80889903 -152.64836753 884.66757038 -152.66295731 900.52625618 C-152.67739677 916.49909222 -152.68051762 932.47190067 -152.67251733 948.44474146 C-152.66848137 957.08102424 -152.66912302 965.7172403 -152.68357468 974.35351372 C-152.80471955 1050.26995697 -146.5451674 1121.23656727 -114.3125 1191.0625 C-113.62809243 1192.58036248 -112.94446166 1194.09857552 -112.26171875 1195.6171875 C-101.04526528 1220.29841242 -86.55980144 1243.40654339 -70.3125 1265.0625 C-69.8680957 1265.65998047 -69.42369141 1266.25746094 -68.96582031 1266.87304688 C-62.46219922 1275.60119631 -55.50521758 1283.89779356 -48.3125 1292.0625 C-47.4978125 1292.990625 -46.683125 1293.91875 -45.84375 1294.875 C-39.7116429 1301.70570158 -33.27431066 1308.23255748 -26.8125 1314.75 C-25.94633057 1315.62922119 -25.08016113 1316.50844238 -24.18774414 1317.41430664 C-18.20972287 1323.40020483 -11.92445685 1328.79259308 -5.3125 1334.0625 C-3.00724693 1335.96323899 -0.72031944 1337.88491522 1.5625 1339.8125 C2.09101563 1340.25464844 2.61953125 1340.69679688 3.1640625 1341.15234375 C6.50707345 1343.97404359 9.61094661 1346.95546 12.6875 1350.0625 C-14.95845971 1349.47362598 -41.09519645 1347.33958534 -68.3125 1342.0625 C-69.11365234 1341.91087402 -69.91480469 1341.75924805 -70.74023438 1341.60302734 C-124.30270042 1331.24377584 -177.07560627 1302.28508634 -216.87890625 1265.3125 C-218.92254149 1263.42303949 -221.00054318 1261.60908082 -223.125 1259.8125 C-232.1369588 1251.97358542 -240.71383519 1243.27588108 -248.3125 1234.0625 C-248.74820313 1233.5459082 -249.18390625 1233.02931641 -249.6328125 1232.49707031 C-262.65343532 1217.04786273 -274.34630846 1200.64382048 -284.3125 1183.0625 C-284.76302734 1182.28277832 -285.21355469 1181.50305664 -285.67773438 1180.69970703 C-307.28751926 1143.18552439 -321.2871184 1101.07668065 -326.3125 1058.0625 C-326.3949317 1057.35736889 -326.4773634 1056.65223778 -326.56229302 1055.92573906 C-328.35839952 1040.02508575 -328.60149055 1024.22938523 -328.56943511 1008.24182558 C-328.56428786 1004.54507175 -328.57091026 1000.84833378 -328.57592177 997.1515823 C-328.58309479 990.69443751 -328.58295733 984.23732625 -328.57782745 977.78017998 C-328.57021977 968.17775288 -328.57415199 958.57535374 -328.58024407 948.97292679 C-328.59074425 931.81698963 -328.58987531 914.66106741 -328.58408624 897.50512884 C-328.57904536 882.49185719 -328.57774628 867.478591 -328.58013153 852.46531868 C-328.5802843 851.46754985 -328.58043707 850.46978102 -328.58059447 849.44177677 C-328.5812172 845.39101884 -328.581854 841.34026091 -328.582514 837.28950299 C-328.58862508 799.32952713 -328.58309598 761.36956077 -328.5723202 723.40958637 C-328.56282904 689.7187719 -328.56367967 656.02797255 -328.57324219 622.3371582 C-328.58396195 584.44291564 -328.58819233 546.54868147 -328.58201766 508.6544376 C-328.58137627 504.61158025 -328.58075059 500.56872291 -328.58013153 496.52586555 C-328.57997338 495.53048665 -328.57981522 494.53510774 -328.57965227 493.50956584 C-328.57738174 478.50872414 -328.58002964 463.50788851 -328.58509064 448.50704765 C-328.59081907 431.44335183 -328.58935833 414.37967322 -328.57852915 397.31597953 C-328.57267477 387.77770332 -328.57224683 378.23946445 -328.5798215 368.70118924 C-328.58433018 362.31721529 -328.58147228 355.93327105 -328.57281196 349.54930148 C-328.56808843 345.92065959 -328.5663557 342.29209146 -328.57362393 338.66345208 C-328.61039515 318.86057464 -327.79036192 299.43842553 -324.5625 279.875 C-324.30980347 278.33344238 -324.30980347 278.33344238 -324.05200195 276.76074219 C-320.75997502 257.38690707 -316.13562987 238.49869821 -309.3125 220.0625 C-309.01118164 219.24652344 -308.70986328 218.43054688 -308.39941406 217.58984375 C-297.90427852 189.55839178 -283.86910152 163.3011834 -266.3125 139.0625 C-265.82394531 138.38461426 -265.33539063 137.70672852 -264.83203125 137.00830078 C-259.17692196 129.19981601 -253.37983359 121.7098627 -246.76171875 114.6875 C-244.81951065 112.60589898 -242.95382266 110.49643791 -241.09765625 108.33984375 C-230.8755588 96.61227263 -219.63059077 85.56553946 -207.3125 76.0625 C-206.25857277 75.18867639 -205.20800185 74.31079471 -204.16015625 73.4296875 C-169.97406201 44.92433984 -128.80470089 24.69614929 -86.3125 12.0625 C-85.55001953 11.83175781 -84.78753906 11.60101563 -84.00195312 11.36328125 C-71.67788795 7.70924575 -59.05433882 5.77195778 -46.375 3.8125 C-45.53115753 3.68148895 -44.68731506 3.55047791 -43.81790161 3.41549683 C-29.16232165 1.16001125 -14.85131165 -0.1055588 0 0 Z " fill="#6E6E6E" transform="translate(495.3125,224.9375)"/>
<path d="M0 0 C1.19282911 -0.00327219 2.38565823 -0.00654439 3.61463368 -0.00991574 C4.92400458 -0.00843212 6.23337548 -0.00694849 7.58242428 -0.00541991 C8.99410201 -0.00737321 10.4057792 -0.00976219 11.81745553 -0.01254788 C15.71382719 -0.01895381 19.61017825 -0.01910903 23.50655418 -0.01827047 C27.739199 -0.01843985 31.97183641 -0.02434469 36.20447755 -0.02951133 C44.60724822 -0.03884414 53.01001362 -0.04276053 61.41278883 -0.0450303 C71.47465194 -0.04799062 81.53650805 -0.05668705 91.59836749 -0.06544458 C115.92074181 -0.08629737 140.24311734 -0.09676022 164.56549852 -0.10557419 C176.0702557 -0.10977964 187.57501236 -0.11500178 199.0797691 -0.12025872 C238.45625314 -0.13814993 277.83273732 -0.15314614 317.20922482 -0.16057891 C319.68171519 -0.16105366 322.15420557 -0.16152955 324.62669594 -0.16200657 C325.85283861 -0.16224294 327.07898127 -0.16247932 328.34227978 -0.16272286 C334.55460703 -0.16392407 340.76693427 -0.16513951 346.97926152 -0.16636485 C348.21212061 -0.166605 349.4449797 -0.16684515 350.71519815 -0.16709258 C390.68794682 -0.1749856 430.66066582 -0.19841699 470.63340153 -0.23092079 C512.88736531 -0.26521688 555.14131173 -0.28492986 597.39528966 -0.28822315 C602.03370433 -0.28864069 606.67211899 -0.28912025 611.31053364 -0.28964633 C612.45265524 -0.28976952 613.59477684 -0.28989271 614.77150819 -0.29001964 C633.15387706 -0.29235198 651.53621149 -0.3080139 669.91856808 -0.32848817 C688.39605017 -0.34874188 706.87349087 -0.35422562 725.350982 -0.34471754 C736.32796739 -0.33950077 747.30481502 -0.34538845 758.28178059 -0.36725221 C765.61769541 -0.38075931 772.95351539 -0.37968406 780.28943115 -0.36685025 C784.46705817 -0.35995307 788.64442178 -0.3592858 792.82202528 -0.37641034 C796.63029343 -0.39189328 800.43808817 -0.38861042 804.24634287 -0.37100006 C806.24525872 -0.366415 808.24419118 -0.38127074 810.24304914 -0.39715984 C832.50956649 -0.22812392 851.18180487 8.92791931 867.09351933 24.12880117 C867.72000371 24.68051992 868.34648808 25.23223867 868.99195683 25.80067617 C882.96480477 38.57223854 890.47694823 59.14091691 891.48023808 77.73817617 C892.26685536 103.71388225 884.37733686 125.17447269 866.46851933 144.25380117 C844.27917014 165.69327988 817.59441142 167.74458257 788.36544972 167.64267138 C784.15278567 167.63244914 779.94017999 167.64559385 775.7275244 167.65564471 C768.35692974 167.67004221 760.98645243 167.66968369 753.61585248 167.65945607 C742.65529111 167.64428849 731.69482822 167.6520806 720.73426746 167.6642893 C701.15557373 167.68532663 681.57693228 167.68353693 661.9982336 167.67197365 C644.86440662 167.66190424 627.73059879 167.65928798 610.59676945 167.66406423 C609.45944175 167.66436977 608.32211404 167.66467531 607.15032186 167.66499011 C602.53332765 167.6662355 597.91633346 167.6675091 593.29933927 167.66882916 C550.00441781 167.68106018 506.70952961 167.66997921 463.41461328 167.64844158 C424.96495347 167.62945971 386.51534665 167.63115824 348.0656873 167.65028554 C304.84903331 167.67171248 261.63240871 167.6801927 218.41575015 167.66783649 C213.80725651 167.66655365 209.19876286 167.66530229 204.59026921 167.66406423 C203.45557306 167.66374792 202.32087691 167.66343161 201.15179603 167.66310572 C184.03037773 167.6585593 166.9089807 167.66387045 149.78756535 167.67398244 C130.31621434 167.6854251 110.84492371 167.68254813 91.37358022 167.66085947 C80.48138952 167.64912654 69.58932963 167.64832991 58.69714236 167.66344416 C51.41560801 167.67243234 44.13417824 167.66679787 36.85265934 167.64942509 C32.70795534 167.63993777 28.56351064 167.63659791 24.41881508 167.65104902 C-13.99393011 167.77522713 -13.99393011 167.77522713 -29.28148067 159.37880117 C-29.93519649 159.03446035 -30.58891231 158.69011953 -31.2624377 158.33534414 C-52.77304959 146.71612637 -66.469374 129.00092973 -73.93773067 105.94520742 C-79.98485912 82.62456854 -75.5992805 59.67704446 -63.90648067 39.12880117 C-63.44628536 38.28962148 -62.98609004 37.45044179 -62.51194942 36.58583242 C-55.82928361 25.50189426 -45.16268694 16.25474251 -33.90648067 10.12880117 C-33.09823848 9.67118398 -32.28999629 9.21356679 -31.45726192 8.74208242 C-21.86212166 3.59686228 -10.93773296 0.00786388 0 0 Z " fill="#515151" transform="translate(658.9064806699753,1907.8711988329887)"/>
</svg>
