<?xml version="1.0" encoding="UTF-8"?>
<svg version="1.1" xmlns="http://www.w3.org/2000/svg" width="2133" height="2133">
<path d="M0 0 C1.17447817 -0.00165078 2.34895635 -0.00330156 3.55902477 -0.00500236 C6.81193473 -0.0085666 10.0648079 -0.00768205 13.31771747 -0.00490058 C16.87253464 -0.00297184 20.42734638 -0.00686438 23.98216203 -0.00999737 C30.23409969 -0.01470523 36.48602944 -0.01569712 42.73796859 -0.01426902 C52.09755839 -0.0121468 61.45714 -0.01576279 70.81672854 -0.0204838 C86.7686819 -0.02835604 102.72063302 -0.03144579 118.67258817 -0.03192973 C134.84074559 -0.03243205 151.0089005 -0.03507829 167.17705709 -0.04033732 C168.19790375 -0.04066746 169.21875041 -0.04099759 170.27053182 -0.04133773 C174.42824382 -0.04268772 178.58595583 -0.04405039 182.74366783 -0.04542983 C231.97440654 -0.06173458 281.20514478 -0.06811876 330.43588574 -0.0728777 C354.94967521 -0.07526074 379.46346442 -0.07896419 403.97725369 -0.0829148 C482.6068507 -0.09557958 561.2364477 -0.10636336 639.86604572 -0.10975526 C643.62433852 -0.1099175 647.38263133 -0.11008306 651.14092414 -0.11024964 C658.67825916 -0.11058344 666.21559419 -0.11091392 673.75292921 -0.1112442 C682.57734618 -0.1116311 691.40176314 -0.11202071 700.2261801 -0.11241527 C702.7518014 -0.11252769 705.27742269 -0.1126391 707.80304399 -0.11274952 C788.91504109 -0.11629886 870.02702934 -0.1313767 951.13902306 -0.15468726 C1009.42090432 -0.17142996 1067.70278391 -0.18690439 1125.9846676 -0.19142222 C1127.18338583 -0.19151571 1128.38210407 -0.1916092 1129.61714709 -0.19170551 C1155.93275713 -0.19372462 1182.24836714 -0.19488062 1208.56397725 -0.1952341 C1217.98044303 -0.19537027 1227.39690881 -0.19557927 1236.81337459 -0.19582735 C1239.15595572 -0.19588891 1241.49853686 -0.19594723 1243.84111799 -0.1960023 C1281.16132653 -0.19692193 1318.48152581 -0.20688786 1355.8017313 -0.22145979 C1393.3960208 -0.23607999 1430.99029895 -0.24111501 1468.58459079 -0.23304025 C1473.78230842 -0.23192491 1478.98002607 -0.23091423 1484.17774373 -0.22996593 C1485.70605284 -0.22968097 1485.70605284 -0.22968097 1487.26523687 -0.22939027 C1503.3827157 -0.22665914 1519.50017352 -0.23399049 1535.61764778 -0.24553929 C1551.47544267 -0.2566919 1567.33320794 -0.25709952 1583.1910033 -0.24616911 C1592.48131699 -0.24008513 1601.7715411 -0.24213412 1611.06184629 -0.25642108 C1617.24311594 -0.26509997 1623.42432012 -0.26276233 1629.60558579 -0.25172237 C1633.10237269 -0.24577794 1636.59898487 -0.24425485 1640.0957597 -0.25640723 C1660.59092534 -0.31359552 1680.72202417 0.79298377 1700.65650731 5.8776505 C1702.20060277 6.26171056 1702.20060277 6.26171056 1703.77589208 6.65352941 C1720.49558104 10.92123676 1736.51006036 16.58884711 1752.03150731 24.1276505 C1752.86150243 24.52967687 1753.69149755 24.93170323 1754.54664403 25.34591222 C1779.49868681 37.58115598 1800.99231512 53.99546559 1821.03150731 73.1276505 C1821.705687 73.76058019 1822.37986669 74.39350987 1823.07447606 75.04561925 C1828.21251212 79.99553499 1832.58962763 85.55756176 1837.03150731 91.1276505 C1837.90854337 92.20233313 1838.78616286 93.27653985 1839.66431981 94.35030675 C1871.64328843 133.77706174 1892.82629954 185.96860986 1893.26978856 237.119838 C1893.28447934 238.52302281 1893.28447934 238.52302281 1893.29946691 239.9545548 C1893.46890241 260.33826782 1893.40155051 280.120582 1889.03150731 300.1276505 C1888.70207128 301.66703282 1888.70207128 301.66703282 1888.36597997 303.23751378 C1886.82253427 310.27095104 1885.03643461 317.21206846 1883.03150731 324.1276505 C1882.79125829 324.95716222 1882.55100927 325.78667394 1882.30347997 326.64132237 C1868.64784364 372.24023801 1838.58342754 415.93813268 1801.03150731 445.1276505 C1800.04924169 445.91526769 1799.06697606 446.70288487 1798.05494481 447.51436925 C1769.13847637 470.52292757 1735.10947244 486.36446914 1699.21900731 494.8151505 C1698.42776464 495.00552892 1697.63652196 495.19590734 1696.82130224 495.3920548 C1677.71277829 499.67638504 1658.75088588 500.57386081 1639.22879439 500.51244769 C1635.66440169 500.50465924 1632.10004546 500.51459715 1628.53565809 500.5220882 C1622.28549852 500.53285181 1616.03541641 500.53263823 1609.78525332 500.52501517 C1600.42846765 500.51365799 1591.07174669 500.51975234 1581.71496163 500.52907916 C1565.76298122 500.54447229 1549.81102814 500.54569977 1533.85904294 500.53909993 C1517.70236736 500.53246363 1501.54571129 500.53235795 1485.389036 500.54014707 C1483.85602261 500.54087906 1483.85602261 500.54087906 1482.29203925 500.54162585 C1478.1292697 500.54363412 1473.96650017 500.54568724 1469.80373067 500.54779759 C1427.58340718 500.56917891 1385.36309813 500.57125551 1343.14277059 500.56574055 C1337.312196 500.56498481 1331.48162141 500.56425719 1325.65104681 500.56355858 C1324.49290063 500.56341949 1323.33475444 500.5632804 1322.14151291 500.56313709 C1296.4590473 500.56018301 1270.77658343 500.56319936 1245.09411813 500.56745487 C1241.57769566 500.56803702 1238.06127318 500.56860587 1234.5448507 500.5691705 C1225.11815858 500.57068549 1215.69146645 500.5722124 1206.26477433 500.57376351 C1140.46994836 500.58451806 1074.67512398 500.58922431 1008.88029748 500.58129334 C1007.02050354 500.58107089 1007.02050354 500.58107089 1005.123138 500.58084393 C991.29778685 500.57918498 977.47243571 500.57743539 963.64708457 500.57565092 C962.39889183 500.5754899 961.15069908 500.57532887 959.86468231 500.57516297 C949.73605429 500.57385538 949.73605429 500.57385538 944.72133926 500.57320178 C864.88290713 500.56281053 785.04449704 500.57057719 705.20606786 500.59420323 C685.08819026 500.60014678 664.97031264 500.6060384 644.85243493 500.61161256 C643.61364928 500.61195633 642.37486363 500.6123001 641.09853902 500.61265429 C602.91101955 500.62318394 564.72350192 500.62877573 526.535981 500.6291697 C525.33685047 500.62918248 524.13771994 500.62919527 522.90225213 500.62920844 C496.57708682 500.62943674 470.25192167 500.6284305 443.92675646 500.62629938 C434.50696672 500.62554464 425.08717699 500.62486643 415.66738725 500.62421923 C413.32404987 500.62405654 410.9807125 500.62388887 408.63737513 500.62371622 C371.32140568 500.62099667 334.00544962 500.62954225 296.68948305 500.64357032 C258.05553817 500.65798736 219.42161873 500.65751596 180.7876747 500.6401956 C176.63544447 500.63839148 172.48321422 500.63665128 168.33098394 500.63496137 C167.3119801 500.63454087 166.29297627 500.63412036 165.24309353 500.63368712 C149.13494523 500.62739949 133.026832 500.63447783 116.91868865 500.64717057 C101.06370917 500.65937975 85.20878481 500.65721089 69.35380948 500.63995025 C60.06980268 500.63026537 50.78595286 500.63134594 41.5019565 500.64878023 C35.31987791 500.65928206 29.13791785 500.655027 22.95585086 500.63926374 C19.46187477 500.63075269 15.96820709 500.62801743 12.47424847 500.64364747 C-46.32995289 500.85258537 -103.64747333 482.2780631 -148.96849269 444.1276505 C-149.48589015 443.69903722 -150.00328761 443.27042394 -150.53636378 442.82882237 C-163.22490558 432.30929334 -174.83378147 421.16581953 -184.96849269 408.1276505 C-185.75610987 407.14538487 -186.54372706 406.16311925 -187.35521144 405.151088 C-210.36376976 376.23461956 -226.20531133 342.20561563 -234.65599269 306.3151505 C-234.8463711 305.52390782 -235.03674952 304.73266515 -235.23289698 303.91744542 C-239.1970099 286.23712148 -240.52385469 268.51472395 -240.40599269 250.4401505 C-240.4029513 249.44150975 -240.39990992 248.44286901 -240.39677638 247.41396642 C-240.32469296 231.34064638 -239.3961267 215.88068078 -235.96849269 200.1276505 C-235.64703273 198.60422032 -235.64703273 198.60422032 -235.31907862 197.05001378 C-224.89640846 148.79775404 -200.43835634 107.7551626 -166.96849269 72.1276505 C-166.35489894 71.47151769 -165.74130519 70.81538487 -165.10911769 70.13936925 C-160.13410852 64.98668118 -154.56070248 60.58717067 -148.96849269 56.1276505 C-147.89381006 55.25061444 -146.81960334 54.37299496 -145.74583644 53.494838 C-105.34167321 20.72309535 -52.32079747 -0.10459053 0 0 Z M116.03150731 167.1276505 C114.59476629 169.79591085 113.16330191 172.46679096 111.73463231 175.13936925 C111.33260595 175.88472936 110.93057958 176.63008946 110.51637059 177.39803624 C90.92604491 214.13488425 89.01845443 259.03332946 100.55738622 298.53365636 C103.72988549 308.82255617 107.98222223 318.43020166 113.15064794 327.86739659 C113.96015905 329.34688283 113.96015905 329.34688283 114.78602391 330.85625768 C115.19703344 331.60581731 115.60804296 332.35537694 116.03150731 333.1276505 C162.88567377 333.14415285 209.73984045 333.15996107 256.59400731 333.17525792 C257.5108654 333.17555731 258.42772348 333.17585671 259.37236514 333.17616517 C357.6130741 333.20822646 455.85378314 333.23589593 554.09449559 333.25467992 C556.27664557 333.25509827 558.45879555 333.25551662 560.64094552 333.25593498 C606.44468321 333.26470301 652.248421 333.27285316 698.05215892 333.28028953 C721.06083765 333.28402572 744.06951635 333.28788064 767.07819504 333.29184782 C770.54897091 333.29244557 774.01974678 333.29303993 777.49052265 333.29363414 C830.93659947 333.30281426 884.38267424 333.31454101 937.82874852 333.33364415 C939.55250156 333.3342602 939.55250156 333.3342602 941.31107789 333.33488869 C959.83912047 333.34152581 978.36716298 333.34837664 996.89520548 333.35525582 C1050.26064617 333.37506635 1103.62608528 333.39329714 1156.99152929 333.40106988 C1158.08891495 333.40123048 1159.18630061 333.40139109 1160.31694038 333.40155656 C1184.40704594 333.40505383 1208.49715153 333.4077384 1232.58725726 333.40965345 C1242.2802625 333.41043831 1251.97326772 333.41134018 1261.66627294 333.41228223 C1262.727131 333.41238251 1263.78798906 333.41248279 1264.88099434 333.41258611 C1299.06362234 333.41587555 1333.24623864 333.42868912 1367.42886192 333.44649712 C1401.86161486 333.46439184 1436.29435643 333.47294811 1470.72711413 333.46852246 C1475.48539945 333.46791322 1480.24368478 333.46741107 1485.00197011 333.46697354 C1485.93472938 333.4668839 1486.86748865 333.46679426 1487.82851335 333.4667019 C1502.59810537 333.46555996 1517.36767334 333.47451332 1532.13725881 333.48768009 C1546.66064482 333.50041987 1561.18399967 333.50246669 1575.70738862 333.49314594 C1584.22173054 333.48800395 1592.73597362 333.49106206 1601.25030399 333.5063015 C1606.90890184 333.51560794 1612.56742919 333.51397783 1618.22602491 333.50355372 C1621.43131447 333.49795277 1624.6363754 333.49857841 1627.84165721 333.50935623 C1656.79445487 333.60053496 1680.63117285 329.18057693 1702.03150731 308.1276505 C1702.80494481 307.36710362 1703.57838231 306.60655675 1704.37525731 305.822963 C1719.55178389 289.97076914 1726.68503791 268.61275726 1726.27760106 246.82686925 C1724.83250509 225.10455355 1716.33031894 206.67891776 1701.03150731 191.1276505 C1700.27096044 190.354213 1699.51041356 189.5807755 1698.72681981 188.7839005 C1677.46831253 168.43149352 1651.44974436 166.81904775 1623.4904564 166.88155484 C1620.86087914 166.88007467 1618.23131332 166.87779932 1615.60173872 166.87456185 C1609.87490496 166.86910877 1604.14811108 166.87105838 1598.42127933 166.87788413 C1589.84819171 166.88806219 1581.27513242 166.88662372 1572.70204094 166.88295098 C1558.08979781 166.87702557 1543.47757069 166.88055727 1528.86532956 166.88923955 C1514.05944938 166.89799812 1499.25357746 166.90238445 1484.4476946 166.90143514 C1483.51228229 166.90137775 1482.57686999 166.90132037 1481.61311185 166.90126124 C1476.84337853 166.90094849 1472.07364522 166.90056459 1467.30391191 166.90015557 C1432.78649368 166.89734107 1398.26908281 166.90420052 1363.75166684 166.91619039 C1329.56880642 166.92803567 1295.38594914 166.93574064 1261.20308667 166.93789601 C1260.14146106 166.93796484 1259.07983545 166.93803366 1257.98603937 166.93810457 C1248.28971103 166.93873097 1238.59338269 166.93930635 1228.89705434 166.93982052 C1204.79317155 166.9410993 1180.68928883 166.94301795 1156.58540612 166.94537091 C1154.93895779 166.94553086 1154.93895779 166.94553086 1153.25924786 166.94569405 C1099.86700829 166.95093697 1046.4747708 166.96355204 993.0825327 166.97677159 C974.55445655 166.98135492 956.02638038 166.98590565 937.49830419 166.9903214 C935.77463225 166.99073225 935.77463225 166.99073225 934.01613865 166.99115139 C880.5956582 167.0038398 827.17517739 167.01129081 773.75469583 167.01739099 C770.28655395 167.01778712 766.81841208 167.0181855 763.35027021 167.01858435 C740.36669319 167.02122391 717.38311617 167.02377321 694.39953913 167.02626206 C648.6680112 167.03121506 602.93648333 167.03669842 557.2049555 167.04254616 C555.02710592 167.04282464 552.84925633 167.04310275 550.67140674 167.04338049 C452.63087609 167.05588648 354.59034696 167.07456232 256.54981786 167.09591222 C255.17281139 167.09621202 255.17281139 167.09621202 253.7679866 167.09651789 C207.85582675 167.10651879 161.94366698 167.11686687 116.03150731 167.1276505 Z " fill="#515151" transform="translate(239.9684926867485,1632.8723495006561)"/>
<path d="M0 0 C1.41226738 -0.00701971 2.82453442 -0.01410655 4.23680115 -0.02125549 C8.72558038 -0.0406628 13.21430805 -0.04568929 17.703125 -0.046875 C18.8490531 -0.04753778 18.8490531 -0.04753778 20.01813126 -0.04821396 C42.4709629 -0.05502907 64.66061062 0.16622575 86.953125 3.203125 C88.25797852 3.36941406 89.56283203 3.53570312 90.90722656 3.70703125 C181.41246507 15.29395309 267.74170789 49.37576504 356.953125 114.203125 C357.57106934 114.69635254 358.18901367 115.18958008 358.82568359 115.69775391 C378.20231507 131.20955616 396.42977629 147.61919894 414.015625 165.140625 C414.89613525 166.0164624 415.77664551 166.8922998 416.68383789 167.79467773 C421.64793319 172.77110855 426.38767683 177.86060895 430.953125 183.203125 C431.99836615 184.39466439 433.045217 185.58479385 434.09375 186.7734375 C441.3395007 195.03801397 448.28250029 203.46884905 454.953125 212.203125 C455.52820801 212.95223145 456.10329102 213.70133789 456.69580078 214.47314453 C465.59148471 226.08506783 474.06761741 237.88169832 481.953125 250.203125 C482.47616211 251.01861816 482.99919922 251.83411133 483.53808594 252.67431641 C491.44718511 265.06998865 498.71607772 277.73780067 505.62011719 290.71777344 C506.79409264 292.90661412 507.99364327 295.07725973 509.2109375 297.2421875 C521.85044374 319.96027321 531.44710354 344.69786355 539.953125 369.203125 C540.29504883 370.17572266 540.63697266 371.14832031 540.98925781 372.15039062 C552.75911892 405.95865768 560.42826014 441.38894945 565.140625 476.828125 C565.2957959 477.99351807 565.4509668 479.15891113 565.61083984 480.35961914 C566.10542621 484.30309597 566.54726187 488.24972522 566.953125 492.203125 C567.04139557 493.05798492 567.12966614 493.91284485 567.22061157 494.79360962 C568.97058243 512.34947215 569.31735149 529.85859834 569.27118301 547.48469925 C569.26553782 549.67444177 569.26272041 551.86417653 569.26010132 554.05392456 C569.22326769 575.24060231 568.79242234 596.17667503 565.953125 617.203125 C565.70369141 619.16475586 565.70369141 619.16475586 565.44921875 621.16601562 C553.74500483 712.59647584 518.89590185 798.53084662 446.4609375 897.296875 C444.0823677 900.05334842 441.79281864 902.86275443 439.515625 905.703125 C434.73854858 911.57015826 429.61226134 917.07662716 424.4453125 922.59765625 C423.02880928 924.12169505 421.62827829 925.65841931 420.234375 927.203125 C411.32136077 937.05987015 402.15117702 946.84531231 391.99609375 955.44140625 C389.84784188 957.29391407 387.76689643 959.21164324 385.68847656 961.1418457 C379.64005581 966.75428408 373.41321312 972.06481643 366.953125 977.203125 C366.44620117 977.60966309 365.93927734 978.01620117 365.41699219 978.43505859 C338.72567313 999.82892625 310.37097616 1018.56396205 280.33203125 1034.90722656 C278.7592305 1035.76400267 277.1888626 1036.62526156 275.62109375 1037.49121094 C218.29790024 1069.07600537 153.77987164 1087.89738745 89.078125 1096.453125 C87.94109131 1096.60426758 86.80405762 1096.75541016 85.63256836 1096.91113281 C62.79401016 1099.74694846 40.01459928 1100.58057587 17.015625 1100.515625 C15.61840828 1100.51340056 14.22119148 1100.51122414 12.82397461 1100.50909424 C-8.26304355 1100.4646057 -29.12193215 1099.99174863 -50.046875 1097.203125 C-50.80669678 1097.10366577 -51.56651855 1097.00420654 -52.34936523 1096.9017334 C-111.76702687 1089.08044741 -168.00436111 1072.12222213 -222.23242188 1046.75854492 C-257.03494069 1030.50876785 -292.70877169 1024.55569842 -330.046875 1037.203125 C-353.6983761 1046.21814241 -372.88304335 1060.11393597 -390.109375 1078.515625 C-405.12652322 1093.72864906 -426.66369615 1100.54555731 -447.546875 1100.703125 C-468.0202234 1100.50348166 -487.85256498 1094.45574412 -503.046875 1080.203125 C-503.97113281 1079.3575 -504.89539062 1078.511875 -505.84765625 1077.640625 C-521.11824878 1063.09326757 -530.75296108 1043.13199242 -531.5012992 1021.91536809 C-531.58379055 1017.29961608 -531.57198524 1012.68658143 -531.54808044 1008.07034302 C-531.55198026 1005.96886408 -531.55762613 1003.86738779 -531.56485134 1001.76591766 C-531.57952823 996.03000712 -531.56947071 990.2943733 -531.55511463 984.55847192 C-531.54396315 978.35625921 -531.55596179 972.15408401 -531.56495667 965.95187378 C-531.57806422 954.51268796 -531.57312444 943.07362496 -531.55888138 931.63444813 C-531.5457935 921.05356133 -531.5406405 910.47270604 -531.54319954 899.89181137 C-531.54335995 899.18803589 -531.54352037 898.48426042 -531.54368565 897.75915841 C-531.54434933 894.90160455 -531.54505176 892.0440507 -531.54581099 889.18649687 C-531.55282894 862.39820354 -531.5373695 835.60996553 -531.51118753 808.82168629 C-531.48811943 785.09416015 -531.48266817 761.36669497 -531.49291992 737.63916016 C-531.49552256 731.571483 -531.49810778 725.50380585 -531.50051785 719.43612862 C-531.50081529 718.68881101 -531.50111274 717.94149341 -531.5014192 717.17152982 C-531.50906501 697.27977803 -531.50259328 677.38803109 -531.49182183 657.4962815 C-531.49067417 655.35083495 -531.48953099 653.20538839 -531.488395 651.05994182 C-531.48763974 649.63702559 -531.4868741 648.21410936 -531.48609799 646.79119314 C-531.48047545 636.23719523 -531.48174554 625.68321318 -531.48632622 615.12921524 C-531.49147477 603.09645838 -531.48511175 591.06377481 -531.46543192 579.03102757 C-531.45565735 572.90631845 -531.45034606 566.781704 -531.45832443 560.65699005 C-531.49629368 528.06739886 -530.64790551 495.97850293 -525.234375 463.765625 C-525.10715057 462.9857019 -524.97992615 462.20577881 -524.84884644 461.40222168 C-522.47775315 446.87121174 -519.58947662 432.49692798 -516.046875 418.203125 C-515.7988916 417.18557129 -515.5509082 416.16801758 -515.29541016 415.11962891 C-495.79283195 335.99452516 -457.50927228 261.50222177 -405.046875 199.203125 C-404.19243458 198.17470654 -403.33828422 197.14604706 -402.484375 196.1171875 C-394.28799893 186.28741703 -385.76139688 176.75480265 -376.609375 167.80078125 C-374.89240659 166.04518105 -373.3196098 164.20325228 -371.734375 162.328125 C-368.29632106 158.3350489 -364.477585 154.90781217 -360.52734375 151.4296875 C-358.24296224 149.37914032 -356.07278825 147.26707011 -353.921875 145.078125 C-350.12936454 141.24037585 -346.15435373 137.69899946 -342.046875 134.203125 C-341.08910156 133.37941406 -340.13132812 132.55570313 -339.14453125 131.70703125 C-320.75830007 115.95471079 -301.39033179 101.33547129 -281.046875 88.203125 C-280.35754883 87.75291992 -279.66822266 87.30271484 -278.95800781 86.83886719 C-197.44576146 33.67553799 -97.79038572 0.32882682 0 0 Z M-143.046875 203.203125 C-144.00029785 203.65300781 -144.9537207 204.10289062 -145.93603516 204.56640625 C-171.34147615 216.65303936 -195.06514481 231.64724652 -217.046875 249.203125 C-217.97628906 249.93917969 -218.90570312 250.67523438 -219.86328125 251.43359375 C-225.89321753 256.2798441 -231.61614466 261.39553185 -237.28125 266.65625 C-239.48069201 268.68172485 -241.70563671 270.64406981 -243.984375 272.578125 C-252.64169006 280.09441318 -260.65002444 288.45568176 -268.046875 297.203125 C-268.89121094 298.15832031 -269.73554687 299.11351562 -270.60546875 300.09765625 C-302.10709421 335.87059772 -325.6116557 377.59991417 -342.046875 422.203125 C-342.39234375 423.1401123 -342.7378125 424.07709961 -343.09375 425.04248047 C-354.00805219 455.10713357 -360.72341183 487.30768929 -363.046875 519.203125 C-363.12932685 520.20573836 -363.2117787 521.20835173 -363.29672909 522.24134731 C-364.34870547 536.9761619 -364.18268459 551.73499704 -364.16294062 566.49814212 C-364.1585787 570.59672273 -364.16008658 574.695302 -364.1608429 578.79388428 C-364.16136453 585.87631677 -364.15825565 592.95873997 -364.15260506 600.04117012 C-364.14444085 610.28088378 -364.14186982 620.520593 -364.14061707 630.76030957 C-364.13843424 647.37788796 -364.13179511 663.9954614 -364.12231445 680.61303711 C-364.11312037 696.74519832 -364.10604932 712.87735818 -364.10180664 729.00952148 C-364.10154392 730.0056987 -364.10128119 731.00187592 -364.10101051 732.02824033 C-364.09970537 737.02630341 -364.09844169 742.02436649 -364.09719861 747.02242959 C-364.08684998 788.41599816 -364.0692527 829.80956129 -364.046875 871.203125 C-359.3211773 870.62429609 -354.66651141 870.0004366 -349.9921875 869.08203125 C-348.88101562 868.86869141 -347.76984375 868.65535156 -346.625 868.43554688 C-344.36128985 867.99637686 -342.09823942 867.55378941 -339.8359375 867.10742188 C-322.3548747 863.76958133 -305.25898614 862.82559169 -287.484375 862.890625 C-285.89357117 862.89385773 -285.89357117 862.89385773 -284.27062988 862.89715576 C-268.66981565 862.94802351 -253.4196341 863.30426186 -238.046875 866.203125 C-236.38833496 866.50911621 -236.38833496 866.50911621 -234.69628906 866.82128906 C-204.77748885 872.47893171 -177.56268757 882.24001882 -150.109375 895.203125 C-107.20418999 915.45822262 -61.48776456 928.64718759 -14.046875 932.203125 C-13.30566406 932.25952148 -12.56445312 932.31591797 -11.80078125 932.37402344 C85.55222929 939.4050742 181.72726115 908.88962422 266.36987305 841.20458984 C267.9031184 839.87690465 269.42959374 838.54194005 270.953125 837.203125 C271.85417969 836.41421875 272.75523437 835.6253125 273.68359375 834.8125 C280.544575 828.65793854 287.0965692 822.19127795 293.640625 815.703125 C294.51976562 814.83703613 295.39890625 813.97094727 296.3046875 813.07861328 C302.29068376 807.10049334 307.67658149 800.80961561 312.953125 794.203125 C313.81673181 793.17575864 314.68512827 792.1523551 315.5625 791.13671875 C336.12531197 767.15927925 352.35961786 739.63010985 365.953125 711.203125 C366.30197754 710.4802832 366.65083008 709.75744141 367.01025391 709.01269531 C409.37002522 620.5650363 412.87247055 515.08482325 380.79638672 422.87792969 C366.81639624 384.05035465 347.71857926 347.512767 321.953125 315.203125 C320.87998047 313.82833984 320.87998047 313.82833984 319.78515625 312.42578125 C310.42801384 300.52195266 300.42855041 289.34177749 289.68920898 278.6784668 C287.88090892 276.88096695 286.08366523 275.07290184 284.28710938 273.26367188 C277.48333015 266.45170079 270.53380334 260.15161093 262.953125 254.203125 C261.69814745 253.17868187 260.44526026 252.15166785 259.1953125 251.12109375 C244.58066636 239.22129525 229.22185743 228.71091771 212.953125 219.203125 C212.23576172 218.78321289 211.51839844 218.36330078 210.77929688 217.93066406 C129.83950269 170.92981349 31.37157134 155.67221893 -143.046875 203.203125 Z " fill="#A8FD02" transform="translate(1562.046875,-0.203125)"/>
<path d="M0 0 C1.77948099 -0.0046439 3.55896101 -0.00967059 5.33843994 -0.01504517 C10.11728044 -0.02801002 14.896107 -0.03458114 19.67496228 -0.03905582 C22.67142685 -0.04200931 25.6678878 -0.04611785 28.66435051 -0.05056 C38.07227703 -0.06418576 47.48019504 -0.07387937 56.88813072 -0.07776189 C67.69026194 -0.08224688 78.49226689 -0.09983605 89.29435974 -0.12876248 C97.68894088 -0.15045114 106.08348664 -0.1604698 114.47809547 -0.16180301 C119.47285382 -0.16284482 124.46749268 -0.16861991 129.46222115 -0.18662262 C134.1598593 -0.2032311 138.85728965 -0.20519758 143.5549469 -0.19648361 C145.2656199 -0.19572034 146.97630472 -0.1999606 148.68694878 -0.20994186 C174.54261454 -0.35180947 196.75419522 6.01275179 215.73999023 24.35253906 C232.10193494 40.85217195 240.6504216 62.17469635 240.56030273 85.43066406 C239.96261763 108.27003092 230.47531056 130.36041738 213.82983398 146.19628906 C197.18863762 160.3836141 177.79466191 168.25611631 155.80413818 168.29916382 C155.06976855 168.3019851 154.33539891 168.30480638 153.57877564 168.30771315 C151.13998982 168.31598559 148.70124983 168.31739113 146.26245117 168.31884766 C144.50376764 168.32352195 142.74508531 168.32866652 140.98640442 168.33424377 C137.20569727 168.34549274 133.42499786 168.35394294 129.64427948 168.36036301 C123.63743729 168.37111028 117.63065012 168.39137869 111.62384033 168.41348267 C94.54393073 168.47516224 77.46402339 168.52916791 60.3840332 168.5625 C50.94506655 168.58100053 41.50619152 168.61013397 32.06729245 168.65050471 C27.0888121 168.67133624 22.11044604 168.68699721 17.13191986 168.68931198 C-73.34338756 168.74370426 -155.61715398 195.54087013 -223.20141602 257.11035156 C-225.32249001 259.02369151 -227.48460077 260.87546334 -229.66235352 262.72363281 C-232.89432487 265.54437918 -235.68506572 268.55579567 -238.45141602 271.82910156 C-240.43348175 274.11345145 -242.49709774 276.3039604 -244.58178711 278.49438477 C-252.21389243 286.55976978 -258.88088504 295.23925147 -265.47485352 304.16113281 C-265.92070801 304.75506836 -266.3665625 305.34900391 -266.82592773 305.9609375 C-305.73945184 357.81571434 -329.72832449 425.60799615 -329.60513878 490.60095501 C-329.60708221 491.69195553 -329.60902564 492.78295606 -329.61102796 493.9070172 C-329.61632304 497.54623351 -329.61458996 501.18541149 -329.61288452 504.82463074 C-329.61530433 507.46687013 -329.61812228 510.10910635 -329.62143385 512.7513445 C-329.62784571 518.48771338 -329.63064925 524.224075 -329.63105965 529.96044731 C-329.6317063 538.49104888 -329.63811163 547.02163936 -329.64580644 555.55223715 C-329.6578673 569.02886346 -329.66653717 582.50548927 -329.67284459 595.98211942 C-329.68289245 617.37940781 -329.70215361 638.77668035 -329.72438698 660.1739592 C-329.73291626 668.4132841 -329.74118301 676.65260927 -329.74949074 684.89193439 C-329.75087825 686.26493827 -329.75087825 686.26493827 -329.75229379 687.6656796 C-329.77427325 709.44288961 -329.79406961 731.22010137 -329.81274414 752.99731445 C-329.81356382 753.94989108 -329.8143835 754.90246771 -329.81522802 755.88391029 C-329.83431061 778.10595489 -329.85127373 800.32799938 -329.86358643 822.55004883 C-329.86411609 823.50570307 -329.86464576 824.46135732 -329.86519148 825.44597078 C-329.86944321 833.14925426 -329.87361944 840.85253778 -329.87777628 848.55582131 C-329.89498419 880.33573516 -329.92220745 912.11562727 -329.96093665 943.89552244 C-329.96639812 948.38595335 -329.97173114 952.8763844 -329.9769783 957.36681557 C-329.97801268 958.25051083 -329.97904706 959.13420609 -329.98011279 960.04468 C-329.99641681 974.2485156 -330.00196521 988.45233594 -330.00327596 1002.65618001 C-330.00478244 1016.93767452 -330.01696804 1031.21912767 -330.04003237 1045.50060394 C-330.05338441 1053.97767145 -330.05844737 1062.45464852 -330.05148601 1070.93172419 C-330.04764994 1076.60358758 -330.05475215 1082.2753712 -330.07050179 1087.94721379 C-330.0791493 1091.17262008 -330.08158494 1094.39780713 -330.07392792 1097.6232213 C-330.01041171 1127.01108933 -334.07049674 1151.40356883 -355.47485352 1173.16113281 C-356.23540039 1173.93457031 -356.99594727 1174.70800781 -357.77954102 1175.50488281 C-373.95689147 1190.99270685 -395.55215248 1197.82594793 -417.74438477 1197.40722656 C-439.95877905 1195.94177437 -458.49631577 1187.88027872 -474.47485352 1172.16113281 C-475.63500977 1171.0203125 -475.63500977 1171.0203125 -476.81860352 1169.85644531 C-492.50480292 1153.47188772 -498.83258162 1132.11967942 -498.7265358 1109.77324104 C-498.72944268 1108.68782365 -498.73234956 1107.60240625 -498.73534453 1106.48409742 C-498.74261657 1102.86369997 -498.73571405 1099.24347348 -498.7288208 1095.62307739 C-498.73112638 1092.99422434 -498.73422183 1090.36538289 -498.73827529 1087.73653305 C-498.74547914 1082.02906031 -498.74529156 1076.32162545 -498.74018097 1070.614151 C-498.73260119 1062.12583235 -498.73649143 1053.63754552 -498.74259758 1045.14922707 C-498.75312216 1029.98205512 -498.75221843 1014.81490004 -498.74643976 999.64772649 C-498.74140355 986.36324159 -498.74009757 973.07876286 -498.74248505 959.79427719 C-498.74263782 958.91219387 -498.74279059 958.03011055 -498.74294799 957.12129743 C-498.74357071 953.5402041 -498.74420751 949.95911077 -498.74486751 946.37801745 C-498.7509854 912.78180541 -498.74544051 879.18560408 -498.73467372 845.5893937 C-498.72519742 815.79380228 -498.7260193 785.99822798 -498.7355957 756.20263672 C-498.74632958 722.69403346 -498.75053665 689.18543968 -498.74437118 655.67683494 C-498.74372981 652.0967807 -498.74310412 648.51672646 -498.74248505 644.93667221 C-498.74232689 644.0552366 -498.74216874 643.17380098 -498.74200579 642.2656552 C-498.7397395 629.00764818 -498.74237549 615.74964806 -498.74744415 602.491642 C-498.75318946 587.38887051 -498.7516771 572.28611848 -498.74088266 557.18334939 C-498.73505321 548.75124227 -498.73456339 540.31917735 -498.74217501 531.88707142 C-498.74671504 526.22859655 -498.74377092 520.57015496 -498.73516548 514.91168496 C-498.73048364 511.70461443 -498.72976471 508.49764108 -498.73597744 505.29057087 C-498.77923759 481.07212716 -497.68935674 456.84849504 -494.28735352 432.84863281 C-494.18258698 432.09106689 -494.07782043 431.33350098 -493.96987915 430.55297852 C-487.29108191 382.62140489 -473.41181843 336.20808052 -453.47485352 292.16113281 C-453.07556641 291.27151855 -452.6762793 290.3819043 -452.26489258 289.46533203 C-434.4209691 249.91620242 -410.36021751 213.32853674 -382.47485352 180.16113281 C-381.82081543 179.37971924 -381.82081543 179.37971924 -381.15356445 178.58251953 C-370.36913767 165.72589399 -358.9383154 153.55082233 -347.09985352 141.66113281 C-346.36299316 140.91959961 -345.62613281 140.17806641 -344.86694336 139.4140625 C-340.23091631 134.79162471 -335.43789733 130.42787658 -330.47485352 126.16113281 C-329.31833695 125.13946826 -328.16334217 124.11607802 -327.01000977 123.09082031 C-317.82835654 114.98858913 -308.29150691 107.47618264 -298.47485352 100.16113281 C-297.82484375 99.67370605 -297.17483398 99.1862793 -296.50512695 98.68408203 C-255.46994536 67.94435309 -209.89386625 43.93204637 -161.47485352 27.16113281 C-160.47663574 26.81244141 -159.47841797 26.46375 -158.44995117 26.10449219 C-107.59786777 8.52931319 -53.74537848 0.03332442 0 0 Z " fill="#515151" transform="translate(664.474853515625,290.8388671875)"/>
<path d="M0 0 C21.55339171 22.51904546 23.92359551 49.09499983 23.84047651 78.88946724 C23.83277376 82.52409625 23.83995448 86.15870482 23.84463501 89.79333496 C23.85006216 95.89205061 23.8429816 101.99065655 23.82861328 108.08935547 C23.81229262 115.09676772 23.8175833 122.10391792 23.8340925 129.11132383 C23.84779486 135.17471384 23.84958469 141.23802589 23.84177649 147.30142641 C23.83714761 150.902263 23.83634056 154.50297727 23.84638596 158.10380554 C23.91958095 188.4517626 20.63689457 213.37177879 -1.5625 235.9375 C-2.32304688 236.7109375 -3.08359375 237.484375 -3.8671875 238.28125 C-20.04453795 253.76907404 -41.63979897 260.60231511 -63.83203125 260.18359375 C-86.04642553 258.71814156 -104.58396225 250.6566459 -120.5625 234.9375 C-121.3359375 234.17695312 -122.109375 233.41640625 -122.90625 232.6328125 C-139.54230817 215.25610791 -144.88771792 193.22234071 -144.8371582 169.69018555 C-144.8448246 167.80931244 -144.8448246 167.80931244 -144.85264587 165.89044189 C-144.86406334 162.49140404 -144.86663179 159.09261221 -144.86408257 155.69357276 C-144.86300224 152.83629229 -144.86792312 149.97903355 -144.872688 147.12175781 C-144.88373074 140.36997322 -144.88425047 133.61824429 -144.87817383 126.86645508 C-144.8721403 119.94602514 -144.88444129 113.02579883 -144.9057439 106.1054036 C-144.92346952 100.12276232 -144.92934409 94.1401852 -144.92610615 88.15751868 C-144.92431028 84.60245542 -144.92675667 81.0475374 -144.94082069 77.4924984 C-145.04404194 48.93467087 -142.11054979 24.29461993 -122.5625 1.9375 C-121.76585937 1.01517578 -121.76585937 1.01517578 -120.953125 0.07421875 C-107.06955278 -14.87467708 -85.88345033 -23.94961392 -65.7109375 -25.03125 C-40.45930506 -25.28188655 -18.61775473 -17.32035022 0 0 Z " fill="#515151" transform="translate(1943.5625,1228.0625)"/>
<path d="M0 0 C2.59457714 0.0093496 5.18916324 0.01645553 7.78375244 0.0214386 C13.85716994 0.0384194 19.93005146 0.0776083 26.00326943 0.12818605 C32.93219293 0.18460379 39.86114185 0.21169594 46.79023886 0.23666322 C61.01144759 0.28854527 75.23226967 0.37615512 89.453125 0.48828125 C89.19488953 1.06010132 88.93665405 1.63192139 88.67059326 2.22106934 C87.48794429 4.84103664 86.30646369 7.46152925 85.125 10.08203125 C84.71878418 10.98147461 84.31256836 11.88091797 83.89404297 12.80761719 C65.70493941 53.17045551 62.84671278 97.42248523 77.453125 139.48828125 C79.26246329 144.23062034 81.31568538 148.84510181 83.48731995 153.43276978 C84.70336427 156.02086252 85.88454477 158.62404584 87.06616211 161.22802734 C87.73777626 162.70751358 87.73777626 162.70751358 88.42295837 164.21688843 C88.76291336 164.96644806 89.10286835 165.71600769 89.453125 166.48828125 C74.58770353 166.55867183 59.72229509 166.61141549 44.85674191 166.64371777 C37.95285881 166.65912156 31.04907987 166.68008524 24.14526367 166.71459961 C17.47329351 166.74793872 10.80145346 166.76517272 4.12939644 166.77291298 C1.59351469 166.77842376 -0.94236167 166.78918427 -3.4781971 166.80547142 C-32.02651924 166.98141337 -54.8716453 162.5373713 -76.296875 142.30078125 C-92.22237202 125.65666646 -100.09907912 104.62553312 -99.89624023 81.71826172 C-99.30320711 58.21002667 -90.04454695 39.06552396 -73.546875 22.48828125 C-52.2541411 2.43039242 -28.15192678 -0.30190227 0 0 Z " fill="#6E6E6E" transform="translate(266.546875,1799.51171875)"/>
</svg>
