<?xml version="1.0" encoding="UTF-8"?>
<svg version="1.1" xmlns="http://www.w3.org/2000/svg" width="2133" height="2133">
<path d="M0 0 C1.42267875 -0.00165385 2.84535705 -0.00374203 4.26803461 -0.0062201 C8.15777203 -0.01174239 12.04748725 -0.01112256 15.93722732 -0.00944251 C20.17683695 -0.00870735 24.41644052 -0.01374385 28.65604752 -0.01801753 C37.05624437 -0.02557545 45.45643485 -0.02778947 53.85663474 -0.02834659 C63.92267798 -0.02926244 73.98871539 -0.03593663 84.05475612 -0.04269341 C108.3836632 -0.05873464 132.71256964 -0.06465498 157.04148106 -0.06944216 C168.55971638 -0.07178043 180.0779512 -0.07538338 191.59618613 -0.07913754 C231.0535517 -0.09197264 270.51091699 -0.10269086 309.96828461 -0.10614014 C312.44412136 -0.10636177 314.91995812 -0.10658355 317.39579488 -0.10680549 C319.87749365 -0.10702613 322.35919241 -0.10724661 324.84089118 -0.10746694 C329.8193053 -0.10790948 334.79771942 -0.1083566 339.77613354 -0.10880661 C341.010486 -0.108916 342.24483847 -0.10902539 343.51659556 -0.1091381 C383.51105497 -0.11276608 423.50549623 -0.12867658 463.4999487 -0.15199697 C505.82104214 -0.17662871 548.14212521 -0.19031457 590.46322602 -0.19150805 C595.11502087 -0.1916795 599.76681572 -0.19189492 604.41861057 -0.19214249 C606.13661459 -0.19222614 606.13661459 -0.19222614 607.88932575 -0.19231148 C626.27160965 -0.19345915 644.65387484 -0.20445707 663.03615243 -0.21902954 C681.53759262 -0.23344205 700.03900897 -0.23660484 718.54045323 -0.22858956 C729.51165987 -0.22415532 740.48278922 -0.22790484 751.4539856 -0.24382807 C758.8074656 -0.25365818 766.16089212 -0.25232421 773.51437176 -0.24239184 C777.68791185 -0.23705691 781.86130481 -0.23610064 786.03483204 -0.24890056 C813.11688463 -0.32672932 839.91188165 1.15839539 866.63672924 5.88142776 C867.37078991 6.00770554 868.10485058 6.13398331 868.86115551 6.26408768 C949.00949611 20.08140651 1025.3302186 53.04376959 1089.51172924 103.13142776 C1090.75220473 104.08508622 1091.99309417 105.03820645 1093.23438549 105.99080276 C1100.27307748 111.42288745 1106.96248439 117.11257951 1113.51172924 123.13142776 C1114.79955105 124.26082705 1116.09108346 125.38601276 1117.38672924 126.50642776 C1126.14865175 134.17310996 1134.57840663 142.10090007 1142.82422924 150.31892776 C1143.57688061 151.06698685 1144.32953197 151.81504593 1145.10499096 152.58577347 C1149.77943458 157.27314134 1154.19877326 162.11178921 1158.51172924 167.13142776 C1159.53336223 168.2879722 1160.55675333 169.4429664 1161.58204174 170.59627151 C1169.06797248 179.07878878 1176.0781002 187.83570356 1182.84376049 196.9014473 C1184.53477974 199.16224499 1186.2413589 201.41068598 1187.94922924 203.65877151 C1201.67027777 221.84727211 1213.57449673 241.15878274 1224.51172924 261.13142776 C1225.03089916 262.07792191 1225.55006908 263.02441605 1226.08497143 263.99959183 C1269.10198701 343.05152989 1285.06055984 429.38453797 1284.8971319 518.66653574 C1284.88941625 524.73507517 1284.89934265 530.80359277 1284.9068619 536.87212896 C1284.91762515 547.47383532 1284.91751541 558.07548999 1284.90972042 568.6771946 C1284.90142131 580.03428539 1284.89976169 591.39134925 1284.90593243 602.7484417 C1284.90631994 603.46992888 1284.90670746 604.19141607 1284.90710672 604.93476651 C1284.90870682 607.87402073 1284.91035298 610.81327493 1284.91205755 613.75252909 C1284.92786624 641.03160988 1284.92902802 668.31067264 1284.9206152 695.58975601 C1284.91251461 721.86961485 1284.90935662 748.14946516 1284.91317654 774.4293251 C1284.91340898 776.08398003 1284.91364045 777.73863495 1284.91387095 779.39328988 C1284.91480245 786.0436869 1284.91575846 792.69408392 1284.91675024 799.34448094 C1284.91950043 817.93180614 1284.92121284 836.51913137 1284.92210865 855.10645676 C1284.92214959 855.95267889 1284.92219052 856.79890102 1284.9222327 857.67076625 C1284.92345942 884.61029382 1284.92008566 911.5498188 1284.91355991 938.48934555 C1284.91334917 939.36231535 1284.91313842 940.23528516 1284.91292129 941.13470859 C1284.90948699 955.30861979 1284.90582834 969.48253093 1284.90215077 983.65644206 C1284.88758324 1039.86181557 1284.88825941 1096.06716763 1284.90284252 1152.27254105 C1284.90650649 1166.43953067 1284.91013981 1180.6065203 1284.91355991 1194.77350998 C1284.91387693 1196.08221491 1284.91387693 1196.08221491 1284.91420035 1197.41735831 C1284.92067485 1224.33037214 1284.92341061 1251.24338419 1284.92210865 1278.15639877 C1284.92204752 1279.42478428 1284.92204752 1279.42478428 1284.92198516 1280.71879374 C1284.92104747 1299.28592674 1284.91914606 1317.85305956 1284.91637714 1336.42019238 C1284.91538984 1343.06442492 1284.91445058 1349.70865747 1284.91352501 1356.35289002 C1284.91329284 1358.00560158 1284.91305665 1359.65831313 1284.91281642 1361.31102469 C1284.90900887 1387.57748502 1284.91326632 1413.843936 1284.92136685 1440.11039511 C1284.92966508 1467.31539949 1284.92655005 1494.52038232 1284.91077296 1521.72538364 C1284.90911612 1524.65506035 1284.90750598 1527.58473708 1284.90593243 1530.51441383 C1284.90554181 1531.23334182 1284.90515119 1531.9522698 1284.90474873 1532.69298348 C1284.89886377 1544.01254348 1284.90291665 1555.33207639 1284.91123944 1566.65163393 C1284.91923428 1577.81959364 1284.9160349 1588.98750872 1284.90219718 1600.15546645 C1284.89511343 1606.11331131 1284.89250948 1612.07105511 1284.90341513 1618.02889651 C1284.95785479 1650.11426805 1284.31590904 1681.99005412 1278.82422924 1713.69392776 C1278.69889812 1714.43938858 1278.57356701 1715.1848494 1278.44443798 1715.95289993 C1263.64407125 1803.66614836 1225.78958026 1886.00401793 1168.51172924 1954.13142776 C1168.07570385 1954.65237015 1167.63967846 1955.17331253 1167.19044018 1955.71004105 C1156.55937342 1968.38383883 1145.30537553 1980.40906196 1133.63672924 1992.13142776 C1132.94748363 1992.82534622 1132.25823803 1993.51926468 1131.54810619 1994.23421097 C1127.59032638 1998.17960634 1123.52513941 2001.94053055 1119.29346752 2005.59041214 C1117.11464833 2007.47486086 1115.00276723 2009.42697813 1112.88672924 2011.38142776 C1107.2802291 2016.43325134 1101.38774175 2021.05964546 1095.4111433 2025.66023636 C1093.5240008 2027.12192283 1091.6536957 2028.60308073 1089.78516674 2030.08845901 C1014.57315676 2089.37388663 921.73774988 2123.64261409 802.02345848 2133.26285553 C800.60077973 2133.26450938 799.17810143 2133.26659756 797.75542387 2133.26907563 C793.86568645 2133.27459792 789.97597123 2133.27397809 786.08623116 2133.27229804 C781.84662153 2133.27156288 777.60701796 2133.27659938 773.36741096 2133.28087306 C764.96721411 2133.28843098 756.56702363 2133.290645 748.16682374 2133.29120212 C738.1007805 2133.29211797 728.03474309 2133.29879216 717.96870236 2133.30554894 C693.63979528 2133.32159017 669.31088884 2133.32751051 644.98197742 2133.33229769 C633.4637421 2133.33463596 621.94550728 2133.33823891 610.42727235 2133.34199307 C570.96990678 2133.35482817 531.51254149 2133.36554639 492.05517387 2133.36899567 C489.57933712 2133.3692173 487.10350036 2133.36943908 484.6276636 2133.36966102 C482.14596483 2133.36988166 479.66426607 2133.37010214 477.1825673 2133.37032247 C472.20415318 2133.37076501 467.22573906 2133.37121213 462.24732494 2133.37166214 C460.39579624 2133.37182623 460.39579624 2133.37182623 458.50686292 2133.37199363 C418.51240351 2133.37562161 378.51796225 2133.39153211 338.52350978 2133.4148525 C296.20241634 2133.43948424 253.88133327 2133.4531701 211.56023246 2133.45436358 C206.90843761 2133.45453503 202.25664276 2133.45475045 197.60484791 2133.45499802 C195.8868439 2133.45508167 195.8868439 2133.45508167 194.13413273 2133.45516701 C175.75184883 2133.45631468 157.36958364 2133.4673126 138.98730605 2133.48188507 C120.48586586 2133.49629758 101.98444951 2133.49946037 83.48300525 2133.49144509 C72.51179862 2133.48701085 61.54066926 2133.49076037 50.56947288 2133.5066836 C43.21599288 2133.51651371 35.86256636 2133.51517974 28.50908672 2133.50524737 C24.33554663 2133.49991244 20.16215367 2133.49895617 15.98862644 2133.51175609 C-11.09342615 2133.58958485 -37.88842317 2132.10446014 -64.61327076 2127.38142776 C-65.34733143 2127.25514999 -66.0813921 2127.12887222 -66.83769703 2126.99876785 C-146.98603763 2113.18144902 -223.30676012 2080.21908594 -287.48827076 2030.13142776 C-288.72874625 2029.17776931 -289.96963569 2028.22464908 -291.21092701 2027.27205276 C-298.249619 2021.83996808 -304.93902591 2016.15027602 -311.48827076 2010.13142776 C-312.77609257 2009.00202848 -314.06762497 2007.87684277 -315.36327076 2006.75642776 C-324.12519326 1999.08974557 -332.55494815 1991.16195546 -340.80077076 1982.94392776 C-341.55342213 1982.19586868 -342.30607349 1981.4478096 -343.08153248 1980.67708206 C-347.7559761 1975.98971419 -352.17531478 1971.15106632 -356.48827076 1966.13142776 C-357.50990375 1964.97488333 -358.53329485 1963.81988913 -359.55858326 1962.66658401 C-367.044514 1954.18406675 -374.05464172 1945.42715197 -380.82030201 1936.36140823 C-382.51132126 1934.10061054 -384.21790042 1931.85216955 -385.92577076 1929.60408401 C-399.64681929 1911.41558342 -411.55103825 1892.10407279 -422.48827076 1872.13142776 C-423.26702564 1870.71168655 -423.26702564 1870.71168655 -424.06151295 1869.2632637 C-467.07852853 1790.21132564 -483.03710136 1703.87831756 -482.87367342 1614.59631979 C-482.86595777 1608.52778035 -482.87588417 1602.45926276 -482.88340342 1596.39072657 C-482.89416666 1585.78902021 -482.89405693 1575.18736554 -482.88626194 1564.58566093 C-482.87796283 1553.22857014 -482.87630321 1541.87150628 -482.88247395 1530.51441383 C-482.88286146 1529.79292665 -482.88324898 1529.07143946 -482.88364824 1528.32808902 C-482.88524833 1525.3888348 -482.8868945 1522.4495806 -482.88859907 1519.51032644 C-482.90440776 1492.23124565 -482.90556954 1464.95218289 -482.89715672 1437.67309952 C-482.88905613 1411.39324068 -482.88589814 1385.11339037 -482.88971806 1358.83353043 C-482.8899505 1357.1788755 -482.89018196 1355.52422058 -482.89041247 1353.86956565 C-482.89134397 1347.21916863 -482.89229998 1340.56877161 -482.89329176 1333.91837459 C-482.89604195 1315.33104939 -482.89775436 1296.74372416 -482.89865017 1278.15639877 C-482.89869111 1277.31017664 -482.89873204 1276.46395451 -482.89877422 1275.59208928 C-482.90000094 1248.65256171 -482.89662718 1221.71303673 -482.89010143 1194.77350998 C-482.88989069 1193.90054018 -482.88967994 1193.02757037 -482.88946281 1192.12814694 C-482.8860285 1177.95423574 -482.88236986 1163.7803246 -482.87869228 1149.60641347 C-482.86412476 1093.40103996 -482.86480093 1037.1956879 -482.87938404 980.99031448 C-482.88304801 966.82332486 -482.88668132 952.65633523 -482.89010143 938.48934555 C-482.89031278 937.6168756 -482.89052412 936.74440565 -482.89074187 935.84549722 C-482.89721637 908.93248339 -482.89995213 882.01947134 -482.89865017 855.10645676 C-482.89860942 854.26086642 -482.89856866 853.41527608 -482.89852668 852.54406179 C-482.89758899 833.97692879 -482.89568758 815.40979597 -482.89291866 796.84266315 C-482.89193136 790.19843061 -482.8909921 783.55419806 -482.89006653 776.90996551 C-482.88983436 775.25725395 -482.88959817 773.6045424 -482.88935794 771.95183084 C-482.88555039 745.68537051 -482.88980784 719.41891953 -482.89790837 693.15246042 C-482.9062066 665.94745604 -482.90309157 638.74247321 -482.88731448 611.53747189 C-482.88565764 608.60779518 -482.8840475 605.67811845 -482.88247395 602.7484417 C-482.88208333 602.02951371 -482.8816927 601.31058573 -482.88129025 600.56987205 C-482.87540529 589.25031205 -482.87945817 577.93077914 -482.88778096 566.6112216 C-482.8957758 555.44326189 -482.89257642 544.27534681 -482.8787387 533.10738908 C-482.87165495 527.14954422 -482.869051 521.19180042 -482.87995665 515.23395902 C-482.93439631 483.14858748 -482.29245056 451.27280141 -476.80077076 419.56892776 C-476.61277409 418.45073654 -476.61277409 418.45073654 -476.4209795 417.3099556 C-461.62061277 329.59670717 -423.76612178 247.2588376 -366.48827076 179.13142776 C-365.83423267 178.35001419 -365.83423267 178.35001419 -365.1669817 177.55281448 C-354.53591494 164.8790167 -343.28191705 152.85379357 -331.61327076 141.13142776 C-330.92402515 140.43750931 -330.23477955 139.74359085 -329.52464771 139.02864456 C-325.5668679 135.08324919 -321.50168093 131.32232498 -317.27000904 127.67244339 C-315.09118985 125.78799467 -312.97930875 123.8358774 -310.86327076 121.88142776 C-305.25677061 116.82960419 -299.36428327 112.20321007 -293.38768482 107.60261917 C-291.50054232 106.1409327 -289.63023722 104.6597748 -287.76170826 103.17439651 C-212.54969828 43.8889689 -119.7142914 9.62024144 0 0 Z M4.51172924 177.13142776 C3.26459893 178.19317966 2.00163404 179.2374674 0.70704174 180.24080276 C-0.32020102 181.11656719 -1.34371844 181.99672211 -2.36327076 182.88142776 C-2.93295582 183.37328568 -3.50264088 183.86514359 -4.08958912 184.37190628 C-18.30286131 196.73909792 -32.31067999 209.73032785 -44.48827076 224.13142776 C-45.3326067 225.08662308 -46.17694263 226.04181839 -47.04686451 227.02595901 C-112.50906261 301.3657089 -147.83235521 398.94340267 -148.87367342 525.9914436 C-148.86596029 531.97855095 -148.87588321 537.96563612 -148.88340342 543.95274019 C-148.89416844 554.41298585 -148.89405578 564.87319475 -148.88626194 575.33344078 C-148.87796377 586.53937049 -148.87630248 597.74527291 -148.88247395 608.9512043 C-148.88286146 609.66300422 -148.88324898 610.37480415 -148.88364824 611.10817376 C-148.88524833 614.0079481 -148.88689449 616.9077224 -148.88859907 619.80749667 C-148.90440899 646.72215515 -148.90556898 673.63679535 -148.89715672 700.55145645 C-148.88905658 726.4804649 -148.88589791 752.40946471 -148.88971806 778.33847427 C-148.8899505 779.97093962 -148.89018196 781.60340496 -148.89041247 783.23587031 C-148.89134397 789.79705873 -148.89229998 796.35824715 -148.89329176 802.91943556 C-148.89604197 821.2575073 -148.89775437 839.59557905 -148.89865017 857.93365097 C-148.89869111 858.76853011 -148.89873204 859.60340924 -148.89877422 860.46358775 C-148.90000096 887.04259414 -148.89662704 913.62159791 -148.89010143 940.20060349 C-148.88989069 941.06190929 -148.88967994 941.92321509 -148.88946281 942.81062106 C-148.88602849 956.7952108 -148.88236986 970.77980048 -148.87869228 984.76439016 C-148.86412473 1040.21926283 -148.8648009 1095.67411378 -148.87938404 1151.12898636 C-148.883048 1165.10674156 -148.88668131 1179.08449678 -148.89010143 1193.06225204 C-148.89031278 1193.92306435 -148.89052412 1194.78387665 -148.89074187 1195.67077417 C-148.89721623 1222.22358465 -148.89995216 1248.77639332 -148.89865017 1275.32920456 C-148.89860942 1276.16346061 -148.89856866 1276.99771667 -148.89852668 1277.85725321 C-148.89758899 1296.17539273 -148.8956876 1314.49353206 -148.89291866 1332.81167139 C-148.89193136 1339.36678318 -148.8909921 1345.92189498 -148.89006653 1352.47700678 C-148.88983436 1354.10755482 -148.88959817 1355.73810286 -148.88935794 1357.3686509 C-148.88555014 1383.28453499 -148.88980828 1409.20040961 -148.89790837 1435.11629245 C-148.90620602 1461.957755 -148.90309273 1488.79919571 -148.88731448 1515.64065516 C-148.88565764 1518.53098716 -148.8840475 1521.42131918 -148.88247395 1524.31165123 C-148.88208333 1525.02092573 -148.8816927 1525.73020024 -148.88129025 1526.46096791 C-148.87540452 1537.63002928 -148.87945899 1548.7990632 -148.88778096 1559.96812208 C-148.8957744 1570.98671694 -148.89257881 1582.00527119 -148.8787387 1593.02386129 C-148.87165334 1598.90240221 -148.86905448 1604.78084069 -148.87995665 1610.65937811 C-149.04365806 1706.1070968 -128.31906149 1796.04082676 -58.48827076 1892.13142776 C-57.75350513 1893.05955276 -57.01873951 1893.98767776 -56.26170826 1894.94392776 C-51.48380812 1900.88675762 -46.4560729 1906.53536391 -41.26170826 1912.11189651 C-39.17151489 1914.36196626 -37.15457611 1916.66557745 -35.14842701 1918.99080276 C-31.45069813 1923.23323246 -27.54053186 1927.22725111 -23.55077076 1931.19392776 C-22.88625904 1931.86230667 -22.22174732 1932.53068558 -21.53709888 1933.21931839 C-17.01886375 1937.72878876 -12.33058918 1941.97427926 -7.48827076 1946.13142776 C-6.33529628 1947.13982164 -5.18292641 1948.14890734 -4.03123951 1949.15877151 C-2.91309044 1950.12921607 -1.79460411 1951.09927219 -0.67577076 1952.06892776 C-0.1362981 1952.54265823 0.40317455 1953.0163887 0.95899487 1953.50447464 C2.08759613 1954.4798251 3.22940742 1955.44010197 4.38399507 1956.38454715 C5.88390392 1957.61597997 7.3607133 1958.87581548 8.81990613 1960.15523317 C16.19810998 1966.17338966 21.63714451 1967.27863084 31.01099968 1967.12139702 C32.35022275 1967.12793418 33.68943239 1967.13798081 35.02860633 1967.15118474 C38.69645704 1967.17725625 42.36254182 1967.15378359 46.03028467 1967.12196003 C50.02515575 1967.09618244 54.0198336 1967.1170476 58.01472265 1967.13191164 C65.01252771 1967.15154927 72.00980049 1967.14153727 79.00756359 1967.11198807 C89.41409949 1967.06816716 99.82027423 1967.07028158 110.22687808 1967.08165661 C127.73947925 1967.09945954 145.25185173 1967.07975875 162.76440525 1967.03839874 C180.11868123 1966.99747851 197.47285831 1966.97229152 214.82718372 1966.96832275 C216.4470098 1966.96793325 216.4470098 1966.96793325 218.09955964 1966.96753588 C222.48335821 1966.96653596 226.86715678 1966.96565604 231.25095541 1966.9649317 C271.21058662 1966.95832475 311.17008029 1966.91362909 351.12964916 1966.84480667 C388.81943309 1966.77992517 426.50914768 1966.73735539 464.1989851 1966.7217598 C465.35909652 1966.72127371 466.51920793 1966.72078763 467.71447424 1966.72028682 C473.55800177 1966.71784257 479.40152933 1966.71543592 485.24505689 1966.71304324 C486.39828387 1966.7125707 487.55151084 1966.71209816 488.7396841 1966.7116113 C491.06522088 1966.71066295 493.39075767 1966.70972263 495.71629446 1966.70879037 C532.80644118 1966.69382014 569.8965752 1966.66226944 606.986707 1966.62639201 C617.835128 1966.61591788 628.68354883 1966.60602966 639.53197169 1966.59766817 C662.3503744 1966.5798696 685.16874534 1966.55644677 707.98711809 1966.5145361 C717.4218362 1966.49733018 726.85653347 1966.48295195 736.29126644 1966.47750473 C744.12227424 1966.47296909 751.95323585 1966.46173035 759.78421997 1966.44168472 C763.71893799 1966.43179255 767.65359482 1966.42479472 771.58832636 1966.42662437 C794.06005101 1966.43396199 816.32859341 1965.761039 838.51172924 1961.88142776 C839.76808178 1961.6652681 841.02443432 1961.44910843 842.31885815 1961.22639847 C875.39127312 1955.35425491 906.86028656 1944.61467011 936.64405346 1929.10213089 C938.50172314 1928.13662832 940.36745328 1927.18824511 942.23438549 1926.24080276 C972.70210121 1910.5926224 998.99202476 1888.61338041 1023.19922924 1864.63142776 C1024.51830273 1863.33205276 1024.51830273 1863.33205276 1025.86402416 1862.00642776 C1031.84858501 1856.02918095 1037.25597183 1849.75390433 1042.51172924 1843.13142776 C1043.44095186 1841.99716541 1044.3716289 1840.86409054 1045.30469799 1839.73299026 C1096.21630863 1776.44645306 1117.73709068 1699.10548012 1117.64036369 1618.87517452 C1117.64171399 1616.90853049 1117.64349993 1614.94188671 1117.64567593 1612.97524342 C1117.65036511 1607.60780814 1117.64891764 1602.24039001 1117.64639816 1596.87295394 C1117.64475521 1591.01934115 1117.64891408 1585.16573189 1117.65230733 1579.31212026 C1117.65778367 1568.39318777 1117.65876473 1557.47426039 1117.65764457 1546.55532674 C1117.65663442 1536.23912203 1117.65799366 1525.92292034 1117.66142368 1515.60671616 C1117.66176816 1514.56295434 1117.66176816 1514.56295434 1117.6621196 1513.49810642 C1117.66306132 1510.66369847 1117.66401701 1507.82929052 1117.66499079 1504.99488257 C1117.67511726 1475.47594412 1117.67819612 1445.95700757 1117.6787829 1416.43806758 C1117.67884765 1413.2639173 1117.67891559 1410.08976703 1117.67898631 1406.91561675 C1117.67900332 1406.12787629 1117.67902032 1405.34013583 1117.67903784 1404.52852445 C1117.67944686 1387.04715503 1117.6816386 1369.56578598 1117.68414216 1352.08441676 C1117.68517056 1344.87884604 1117.68616062 1337.67327532 1117.68715841 1330.46770459 C1117.687269 1329.67147072 1117.68737958 1328.87523685 1117.68749353 1328.05487468 C1117.69381492 1282.44544722 1117.69794293 1236.83601999 1117.69748497 1191.22659206 C1117.69746919 1189.52086186 1117.69745346 1187.81513165 1117.69743776 1186.10940144 C1117.69736438 1178.40874015 1117.69727621 1170.70807886 1117.69718388 1163.00741757 C1117.69714275 1159.57373192 1117.69710261 1156.14004627 1117.69706256 1152.70636062 C1117.69704217 1150.98774187 1117.69702115 1149.26912312 1117.6969995 1147.55050437 C1117.69631948 1093.22306525 1117.70363394 1038.89563264 1117.71753979 984.56819534 C1117.72104107 970.88201111 1117.72451065 957.19582688 1117.72780418 943.5096426 C1117.72800706 942.66682492 1117.72820993 941.82400723 1117.72841895 940.95564962 C1117.73463852 914.95959463 1117.7384004 888.96354018 1117.73966217 862.96748447 C1117.73970212 862.15074242 1117.73974207 861.33400036 1117.73978323 860.49250855 C1117.7406367 842.5589023 1117.74089764 824.62529608 1117.74061286 806.69168982 C1117.74051638 800.27393932 1117.74046433 793.85618881 1117.74043413 787.43843831 C1117.74042621 785.84198946 1117.74041601 784.24554061 1117.7404035 782.64909176 C1117.74022754 757.26284366 1117.74591075 731.87660117 1117.75455732 706.49035468 C1117.76322721 680.9055153 1117.76538146 655.32068366 1117.758796 629.73584343 C1117.75788386 626.19107932 1117.75704054 622.64631519 1117.75623798 619.10155106 C1117.7560779 618.406763 1117.75591781 617.71197494 1117.75575287 616.99613271 C1117.75355352 606.71491006 1117.75689216 596.4336996 1117.76359844 586.15247917 C1117.77103864 574.68942631 1117.77180873 563.22639833 1117.76371703 551.76334544 C1117.75985222 546.00138185 1117.75901123 540.23946552 1117.76717439 534.47750535 C1117.84868029 472.77728156 1112.14129676 414.7337142 1085.51172924 358.13142776 C1084.91690746 356.8533223 1084.91690746 356.8533223 1084.31006908 355.54939651 C1073.11007081 331.67318243 1058.59233429 309.22453678 1041.51172924 289.13142776 C1040.73829174 288.17365433 1039.96485424 287.21588089 1039.16797924 286.22908401 C1032.26089029 277.77790319 1024.64248033 270.04638742 1016.94922924 262.31892776 C1016.15343456 261.5153685 1016.15343456 261.5153685 1015.34156322 260.69557571 C1008.40388473 253.70462519 1001.27846043 247.21192616 993.51172924 241.13142776 C992.7820393 240.55304153 992.05234936 239.9746553 991.3005476 239.37874222 C971.71310111 223.9485363 950.87917766 210.81889258 928.38086987 200.03133011 C926.58941436 199.16882946 924.80810675 198.28534619 923.02735424 197.40095901 C880.50011846 176.75162342 832.63321651 166.98945395 785.48954105 166.98044682 C784.14234679 166.97666075 782.79515366 166.97245404 781.44796187 166.96787164 C777.77727285 166.95661165 774.10659705 166.95133384 770.43589406 166.94714796 C766.4305284 166.9415294 762.42517739 166.93032703 758.41982186 166.91991204 C750.49017738 166.90020947 742.56053147 166.8858546 734.63087288 166.87325361 C728.0362434 166.86263002 721.44162158 166.84972185 714.84699917 166.83538628 C713.89321207 166.83331605 712.93942496 166.83124582 711.95673522 166.82911285 C710.01123024 166.82488727 708.06572525 166.82066118 706.12022027 166.8164346 C636.26878356 166.66610014 566.41711902 166.59291099 496.56555242 166.53412168 C486.03963587 166.52524016 475.51371961 166.51601884 464.98780346 166.50667191 C463.24326772 166.50513485 463.24326772 166.50513485 461.46348884 166.50356674 C423.72610108 166.47007237 385.98888045 166.40152642 348.25158251 166.31392248 C309.43726426 166.22398246 270.62303654 166.16657058 231.80861347 166.15118586 C226.32820379 166.14900471 220.84779433 166.14646586 215.36738491 166.14371681 C213.7495604 166.14292522 213.7495604 166.14292522 212.09905257 166.14211763 C194.74141673 166.13269664 177.38402567 166.08921476 160.02648483 166.03314622 C142.58752055 165.97758186 125.14881831 165.95858844 107.70977245 165.97690079 C97.34966543 165.98668425 86.99048114 165.96860803 76.63052726 165.91058913 C69.70875259 165.87457792 62.7875943 165.87496098 55.8657919 165.90478546 C51.92278602 165.92074089 47.98153231 165.92103854 44.038702 165.87691716 C21.98703502 165.16112936 21.98703502 165.16112936 4.51172924 177.13142776 Z " fill="#515151" transform="translate(665.4882707595825,-0.13142776489257813)"/>
<path d="M0 0 C-2.66915227 2.75388727 -5.41589413 5.20330351 -8.4375 7.5625 C-27.21789174 22.4714952 -45.46588471 38.68268905 -61 57 C-61.845625 57.95648438 -62.69125 58.91296875 -63.5625 59.8984375 C-129.01964306 134.24303252 -164.34406456 231.81000831 -165.38540266 358.86001583 C-165.37768953 364.84712319 -165.38761245 370.83420836 -165.39513266 376.82131243 C-165.40589768 387.28155808 -165.40578502 397.74176699 -165.39799118 408.20201302 C-165.38969301 419.40794273 -165.38803172 430.61384514 -165.39420319 441.81977654 C-165.3945907 442.53157646 -165.39497822 443.24337638 -165.39537748 443.976746 C-165.39697757 446.87652033 -165.39862373 449.77629463 -165.40032831 452.67606891 C-165.41613823 479.59072738 -165.41729823 506.50536759 -165.40888596 533.42002869 C-165.40078582 559.34903713 -165.39762715 585.27803694 -165.4014473 611.20704651 C-165.40167974 612.83951185 -165.40191121 614.4719772 -165.40214171 616.10444254 C-165.40307321 622.66563096 -165.40402922 629.22681938 -165.405021 635.7880078 C-165.40777121 654.12607953 -165.40948361 672.46415129 -165.41037941 690.80222321 C-165.41042035 691.63710234 -165.41046128 692.47198148 -165.41050346 693.33215998 C-165.4117302 719.91116638 -165.40835628 746.49017015 -165.40183067 773.06917572 C-165.40161993 773.93048152 -165.40140918 774.79178732 -165.40119205 775.6791933 C-165.39775773 789.66378304 -165.3940991 803.64837272 -165.39042152 817.63296239 C-165.37585397 873.08783507 -165.37653014 928.54268601 -165.39111328 983.99755859 C-165.39477724 997.9753138 -165.39841055 1011.95306901 -165.40183067 1025.93082428 C-165.40214769 1027.22204273 -165.40214769 1027.22204273 -165.40247111 1028.53934641 C-165.40894547 1055.09215688 -165.4116814 1081.64496555 -165.41037941 1108.19777679 C-165.41031828 1109.44916088 -165.41031828 1109.44916088 -165.41025592 1110.72582545 C-165.40931823 1129.04396497 -165.40741684 1147.3621043 -165.4046479 1165.68024363 C-165.4036606 1172.23535542 -165.40272134 1178.79046721 -165.40179577 1185.34557901 C-165.4015636 1186.97612705 -165.40132741 1188.60667509 -165.40108718 1190.23722314 C-165.39727938 1216.15310723 -165.40153752 1242.06898184 -165.40963761 1267.98486469 C-165.41793526 1294.82632724 -165.41482197 1321.66776795 -165.39904372 1348.5092274 C-165.39738688 1351.3995594 -165.39577674 1354.28989142 -165.39420319 1357.18022346 C-165.39381257 1357.88949797 -165.39342195 1358.59877247 -165.39301949 1359.32954015 C-165.38713376 1370.49860152 -165.39118823 1381.66763544 -165.3995102 1392.83669431 C-165.40750364 1403.85528917 -165.40430805 1414.87384342 -165.39046794 1425.89243353 C-165.38338258 1431.77097445 -165.38078372 1437.64941292 -165.39168589 1443.52795035 C-165.5553873 1538.97566904 -144.83079074 1628.90939899 -75 1725 C-74.26523437 1725.928125 -73.53046875 1726.85625 -72.7734375 1727.8125 C-67.92268476 1733.84594511 -62.80407403 1739.57344845 -57.5390625 1745.2421875 C-55.55512764 1747.39704597 -53.63843486 1749.57543102 -51.75 1751.8125 C-43.60566404 1761.19919229 -34.51350846 1770.01420822 -25 1778 C-23.93094915 1778.93075191 -22.86338735 1779.8632154 -21.796875 1780.796875 C-15.3730746 1786.39797042 -8.91544552 1791.70149829 -1.9140625 1796.57421875 C-0.96660156 1797.27998047 -0.96660156 1797.27998047 0 1798 C0 1798.33 0 1798.66 0 1799 C-78.67932354 1800.52118993 -160.47701603 1770.87941065 -218.5234375 1717.265625 C-220.55404134 1715.4079748 -222.61402674 1713.60758511 -224.69921875 1711.8125 C-236.42862577 1701.57184646 -247.48836008 1690.32923892 -257 1678 C-257.87382361 1676.94607277 -258.75170529 1675.89550185 -259.6328125 1674.84765625 C-273.41158163 1658.3229569 -285.06953726 1640.0639234 -295 1621 C-295.33902344 1620.36288086 -295.67804688 1619.72576172 -296.02734375 1619.06933594 C-312.58632485 1587.90043669 -323.94155257 1553.44152742 -329.25 1518.5625 C-329.40114258 1517.57717285 -329.55228516 1516.5918457 -329.70800781 1515.57666016 C-330.2034708 1512.05753082 -330.60744812 1508.53169158 -331 1505 C-331.08336891 1504.27557038 -331.16673782 1503.55114075 -331.25263306 1502.80475871 C-333.67998888 1480.7838548 -333.28430487 1458.66615799 -333.25693511 1436.54636245 C-333.25182075 1430.60610202 -333.25839763 1424.6658519 -333.26342177 1418.72559297 C-333.27061818 1408.33385077 -333.27051069 1397.94212499 -333.26532745 1387.55038261 C-333.25980565 1376.41163571 -333.25867967 1365.27290101 -333.26280212 1354.13415337 C-333.26318964 1353.07493489 -333.26318964 1353.07493489 -333.26358499 1351.99431807 C-333.26465165 1349.11782287 -333.26574908 1346.24132769 -333.26688554 1343.36483252 C-333.27743929 1316.63306742 -333.27819263 1289.9013105 -333.27259064 1263.16954422 C-333.27242505 1262.37898204 -333.27225946 1261.58841987 -333.27208885 1260.77390126 C-333.27192299 1259.98205832 -333.27175713 1259.19021539 -333.27158624 1258.37437721 C-333.26653259 1234.21495018 -333.26524047 1210.05552653 -333.26763153 1185.89609909 C-333.26778649 1184.27598621 -333.2679408 1182.65587333 -333.26809447 1181.03576045 C-333.26871545 1174.52458098 -333.26935279 1168.01340151 -333.270014 1161.50222205 C-333.2718477 1143.30249343 -333.27298913 1125.10276481 -333.27358627 1106.90303612 C-333.27361356 1106.07437293 -333.27364086 1105.24570974 -333.27366897 1104.39193555 C-333.27448711 1078.0009018 -333.27223597 1051.60986922 -333.26788712 1025.21883583 C-333.26774662 1024.36331069 -333.26760612 1023.50778555 -333.26746136 1022.6263354 C-333.26517169 1008.73466788 -333.26273266 994.8430004 -333.26028102 980.95133291 C-333.25056983 925.86631504 -333.25101891 870.78130689 -333.26074219 815.69628906 C-333.26318474 801.81387648 -333.26560691 787.9314639 -333.26788712 774.04905128 C-333.26802801 773.19416173 -333.26816891 772.33927218 -333.26831407 771.45847689 C-333.27262912 745.09583449 -333.27445448 718.7331929 -333.27358627 692.37055016 C-333.2735591 691.54247462 -333.27353194 690.71439908 -333.27350394 689.86123034 C-333.27287887 671.68022336 -333.27161137 653.49921645 -333.26976527 635.31820955 C-333.26910704 628.81234858 -333.26848087 622.30648761 -333.26786385 615.80062664 C-333.26770907 614.18226068 -333.26755161 612.56389472 -333.26739145 610.94552876 C-333.2650082 586.79641361 -333.26702952 562.64730226 -333.27208885 538.49818758 C-333.27225444 537.707791 -333.27242003 536.91739441 -333.27259064 536.10304642 C-333.272756 535.31411943 -333.27292137 534.52519244 -333.27309174 533.71235857 C-333.27861867 507.05276187 -333.27655776 480.39317495 -333.26602915 453.73357965 C-333.26492454 450.86526936 -333.26385112 447.99695907 -333.26280212 445.12864876 C-333.26254171 444.42475793 -333.2622813 443.72086711 -333.26201299 442.99564626 C-333.25808266 431.8923112 -333.26079921 420.78898839 -333.26634014 409.68565444 C-333.27165712 398.74304844 -333.26955917 387.80046064 -333.26031196 376.85785678 C-333.25557458 371.01503142 -333.25388539 365.17225199 -333.26112393 359.32942815 C-333.3265102 302.35547047 -333.3265102 302.35547047 -328.6875 276.5625 C-328.35830566 274.67954224 -328.35830566 274.67954224 -328.02246094 272.75854492 C-321.92779424 238.78230391 -310.11629044 206.49314081 -294 176 C-293.63471191 175.30132812 -293.26942383 174.60265625 -292.89306641 173.8828125 C-283.90994134 156.80537897 -273.0289246 141.06653183 -261 126 C-260.27554688 125.0821875 -259.55109375 124.164375 -258.8046875 123.21875 C-245.78418752 106.97812637 -230.99609127 90.85755715 -214.57421875 78.01953125 C-211.80408748 75.84630232 -209.16295623 73.55299801 -206.5 71.25 C-176.05501558 45.90533513 -138.72160633 26.70041386 -101 15 C-100.01797607 14.68627441 -99.03595215 14.37254883 -98.02416992 14.04931641 C-90.51761116 11.67988852 -82.99960466 9.68953041 -75.3125 8 C-73.58241699 7.61871948 -73.58241699 7.61871948 -71.81738281 7.22973633 C-47.81993067 2.0713598 -24.50341032 -0.22388903 0 0 Z " fill="#6E6E6E" transform="translate(683,167)"/>
<path d="M0 0 C0.96608185 -0.00979385 1.9321637 -0.01958771 2.92752075 -0.02967834 C25.11681221 -0.2081567 46.65260643 0.11884157 68.515625 4.23828125 C69.62905273 4.44727051 70.74248047 4.65625977 71.88964844 4.87158203 C118.14031533 13.9065016 161.53778707 34.16044365 198.515625 63.23828125 C199.51078125 64.01945313 200.5059375 64.800625 201.53125 65.60546875 C218.22818987 79.01072619 234.48557192 94.20865589 247.515625 111.23828125 C248.67191406 112.68654297 248.67191406 112.68654297 249.8515625 114.1640625 C281.70295828 154.50581457 301.92254397 201.69719079 310.515625 252.23828125 C310.76554199 253.69089355 310.76554199 253.69089355 311.02050781 255.17285156 C320.178293 311.20029511 311.35165986 370.57643188 288.515625 422.23828125 C288.12503906 423.12257813 287.73445313 424.006875 287.33203125 424.91796875 C276.77690798 448.51991653 263.05959944 470.36612445 246.515625 490.23828125 C245.814375 491.12386719 245.113125 492.00945312 244.390625 492.921875 C238.05831184 500.72563913 231.0981299 507.87139319 224.015625 514.98828125 C223.53124969 515.47783295 223.04687439 515.96738464 222.54782104 516.47177124 C215.88735637 523.18823813 208.96260739 529.39966226 201.515625 535.23828125 C200.82629883 535.78162109 200.13697266 536.32496094 199.42675781 536.88476562 C135.92289715 586.36061361 56.21950919 608.00142432 -23.671875 599.05078125 C-55.21767303 595.12042083 -86.95759352 586.48670516 -115.484375 572.23828125 C-116.88163818 571.55475586 -116.88163818 571.55475586 -118.30712891 570.85742188 C-138.40293322 560.98041871 -157.10858524 549.38189904 -174.484375 535.23828125 C-174.99838867 534.82046387 -175.51240234 534.40264648 -176.04199219 533.97216797 C-194.54408046 518.84906758 -211.05843577 502.28678184 -225.484375 483.23828125 C-225.92604004 482.66416504 -226.36770508 482.09004883 -226.82275391 481.49853516 C-235.20104005 470.59360996 -242.48507703 459.06797959 -249.484375 447.23828125 C-249.87222168 446.58424316 -250.26006836 445.93020508 -250.65966797 445.25634766 C-274.23375095 404.89583453 -286.51231944 355.76287147 -287.484375 309.23828125 C-287.50483887 308.55958984 -287.52530273 307.88089844 -287.54638672 307.18164062 C-289.85262455 225.83434273 -257.63001852 149.80464536 -202.796875 90.86328125 C-201.88869019 89.88234497 -201.88869019 89.88234497 -200.9621582 88.8815918 C-197.25727068 84.94078811 -193.39067875 81.30973324 -189.28588867 77.78808594 C-187.12987254 75.93331017 -185.0619231 73.99266856 -182.984375 72.05078125 C-134.3959946 28.29891651 -65.40804881 0.55396861 0 0 Z M73.515625 183.23828125 C57.36938982 209.72780639 46.56249566 237.61639353 41.515625 268.23828125 C41.39703125 268.9559668 41.2784375 269.67365234 41.15625 270.41308594 C33.20624321 321.26000436 46.24881815 374.11418248 73.515625 417.23828125 C83.48210523 415.82472301 92.0602442 407.54577008 99.515625 401.23828125 C100.32773438 400.56152344 101.13984375 399.88476562 101.9765625 399.1875 C127.6882667 377.00405804 142.68744687 345.00762346 146.203125 311.48828125 C148.83143332 274.58245197 136.71178659 240.04550354 112.765625 211.98046875 C102.58071448 200.36362711 90.29180728 190.34003548 76.515625 183.23828125 C75.525625 183.23828125 74.535625 183.23828125 73.515625 183.23828125 Z " fill="#515151" transform="translate(1061.484375,453.76171875)"/>
<path d="M0 0 C2.10299219 -0.00135461 4.20598407 -0.00330165 6.30897522 -0.00579834 C10.6743575 -0.00871297 15.03965682 -0.00457256 19.4050293 0.00488281 C24.92260625 0.01626953 30.4399902 0.00950969 35.95756054 -0.00199032 C80.48839836 -0.08106473 80.48839836 -0.08106473 100.09765625 2.265625 C101.18785568 2.38874054 101.18785568 2.38874054 102.30007935 2.51434326 C106.68837038 3.01659861 111.04838819 3.6341463 115.41015625 4.328125 C116.38041245 4.48143784 116.38041245 4.48143784 117.37026978 4.6378479 C180.49218358 14.75670023 241.8511508 40.53428228 292.09765625 80.265625 C292.70915527 80.74854004 293.3206543 81.23145508 293.95068359 81.72900391 C302.067362 88.16336662 309.93056892 94.78132674 317.5 101.8515625 C319.68098345 103.87840125 321.89505847 105.83457194 324.16015625 107.765625 C331.28576609 113.95599855 337.99039342 120.75244287 344.109375 127.9375 C345.71811088 129.82120645 347.3470417 131.67960714 348.9921875 133.53125 C362.49302676 148.79093668 374.05697245 165.15518138 385.09765625 182.265625 C385.51611816 182.91289551 385.93458008 183.56016602 386.36572266 184.22705078 C423.32890491 242.01907436 441.82156258 310.08694978 444.09765625 378.265625 C444.14019531 379.53277344 444.18273438 380.79992188 444.2265625 382.10546875 C444.61072589 404.87355233 438.7115274 424.65490008 424.09765625 442.265625 C423.66195312 442.84699219 423.22625 443.42835938 422.77734375 444.02734375 C410.67643203 459.57013156 390.96927291 467.89700727 372.09765625 471.265625 C346.35349788 473.08761981 324.15972045 468.07438149 304.09765625 451.265625 C288.70027637 437.6038596 278.73679008 418.71891216 276.09765625 398.265625 C275.96142838 395.66963617 275.88022371 393.0753556 275.80786133 390.47680664 C274.77703013 353.89559068 267.64579499 318.62442613 250.09765625 286.265625 C249.75653809 285.61964355 249.41541992 284.97366211 249.06396484 284.30810547 C222.04387443 233.17506991 175.35385195 196.13632011 120.60546875 178.4453125 C102.61179507 172.92309877 83.64577569 169.15096547 64.78369141 169.08862305 C63.89915787 169.08205185 63.01462433 169.07548065 62.10328674 169.06871033 C59.19776285 169.0491319 56.29229066 169.03733994 53.38671875 169.02734375 C51.87750917 169.02123046 51.87750917 169.02123046 50.33781052 169.01499367 C44.99636802 168.99418323 39.65495072 168.97986836 34.31347656 168.97045898 C29.9516781 168.96166129 25.59020467 168.94092878 21.22851562 168.90893555 C-24.5079195 168.58080464 -65.97340313 173.17629332 -106.90234375 195.265625 C-108.05734375 195.87921875 -109.21234375 196.4928125 -110.40234375 197.125 C-161.23981403 225.08560865 -197.99531028 273.46072821 -214.27734375 328.828125 C-219.17184678 346.31379189 -221.68237867 364.5180262 -222.19213867 382.6484375 C-223.03593516 411.04255202 -231.50037977 432.74428306 -252.26953125 452.51953125 C-271.05777095 468.68247819 -294.86577075 472.7523418 -318.90234375 471.265625 C-328.43379651 470.06094753 -337.44571257 466.76439447 -345.90234375 462.265625 C-347.12630859 461.62173828 -347.12630859 461.62173828 -348.375 460.96484375 C-367.95438609 449.94949975 -381.38282177 432.37394398 -387.9375 411.0546875 C-405.84411324 340.73316993 -372.14814339 250.16115377 -337.11425781 190.20556641 C-326.95118292 173.40475078 -315.63879776 157.21900445 -302.90234375 142.265625 C-301.99324313 141.18249847 -301.08440377 140.09915263 -300.17578125 139.015625 C-288.01432088 124.59435823 -275.25143481 110.54128418 -260.90234375 98.265625 C-259.84846887 97.34821822 -258.79512613 96.43019995 -257.7421875 95.51171875 C-239.41871589 79.58365797 -219.86383116 65.52292115 -198.90234375 53.265625 C-197.84225098 52.64373291 -197.84225098 52.64373291 -196.76074219 52.00927734 C-155.4570545 27.96469866 -109.99985476 12.04762168 -62.83984375 4.515625 C-61.61185059 4.31686768 -60.38385742 4.11811035 -59.11865234 3.91333008 C-39.49440326 0.9338056 -19.82717457 -0.0463491 0 0 Z " fill="#A8FD02" transform="translate(1039.90234375,1190.734375)"/>
<path d="M0 0 C1.85141602 0.00845947 1.85141602 0.00845947 3.74023438 0.01708984 C12.90613494 0.13883576 21.38265368 0.87194597 30.25 3.3125 C31.05405273 3.52712891 31.85810547 3.74175781 32.68652344 3.96289062 C53.22379253 9.52426972 53.22379253 9.52426972 60.25 14.3125 C60.58 14.9725 60.91 15.6325 61.25 16.3125 C60.4206543 18.08642578 60.4206543 18.08642578 59.07421875 20.2578125 C58.58066895 21.07515869 58.08711914 21.89250488 57.57861328 22.73461914 C57.0370459 23.62656982 56.49547852 24.51852051 55.9375 25.4375 C42.14503775 48.89850674 33.66434451 74.52846471 29.25 101.3125 C29.07210938 102.38902832 29.07210938 102.38902832 28.890625 103.48730469 C20.94061821 154.33422311 33.98319315 207.18840123 61.25 250.3125 C53.3901938 259.33960416 37.55600683 261.94454439 26.25 264.3125 C25.04899658 264.57957764 25.04899658 264.57957764 23.82373047 264.85205078 C-9.56037421 271.71028708 -45.08855029 263.49656995 -73.33203125 245.00390625 C-99.72100614 227.12633556 -118.77179682 201.58772155 -128.125 171.125 C-128.36371826 170.35462402 -128.60243652 169.58424805 -128.84838867 168.79052734 C-138.4341405 135.65468069 -133.33373945 98.89332594 -116.98413086 68.81884766 C-99.69143173 38.25106739 -71.316798 14.81448026 -37.41796875 5.00390625 C-33.5555933 3.96942154 -29.67638265 3.06798894 -25.75 2.3125 C-24.8729541 2.13662354 -23.9959082 1.96074707 -23.09228516 1.77954102 C-15.36141447 0.3433335 -7.85379452 -0.03777939 0 0 Z " fill="#6E6E6E" transform="translate(1074.75,620.6875)"/>
</svg>
