<?xml version="1.0" encoding="UTF-8"?>
<svg version="1.1" xmlns="http://www.w3.org/2000/svg" width="2133" height="2133">
<path d="M0 0 C3.07429102 0.01197303 6.14856161 0.01890351 9.22286987 0.02481461 C37.7138901 0.08826245 66.11930165 0.32500479 94.4960022 3.1334877 C97.21613422 3.40084202 99.93731789 3.65465332 102.65890503 3.9067421 C156.19125235 8.91829306 209.24513647 17.79953745 261.44747925 30.69922256 C262.6790274 31.00033447 262.6790274 31.00033447 263.93545532 31.30752945 C283.42022703 36.10662343 299.72493058 43.05929669 314.07247925 57.38672256 C314.81626831 58.11891006 315.56005737 58.85109756 316.3263855 59.60547256 C324.43317892 68.10888015 330.47078472 79.23364917 334.07247925 90.38672256 C334.37025269 91.26457413 334.66802612 92.14242569 334.974823 93.04687881 C341.03317663 114.23715718 337.66271002 137.60874616 327.20529175 156.73047256 C315.46776376 177.24720326 298.18309341 190.19629049 275.8888855 197.41797256 C256.93404139 202.33303418 238.5591068 199.12155551 219.98019409 194.36670303 C171.4638527 182.08111586 121.80684267 174.61242235 71.94747925 170.69922256 C71.17297424 170.63810287 70.39846924 170.57698318 69.60049438 170.51401138 C47.94622712 168.83296632 26.28874414 168.17673118 4.57247925 168.19922256 C3.4757489 168.19982681 2.37901855 168.20043106 1.24905396 168.20105362 C-54.77945812 168.2838927 -110.3392449 173.82310627 -165.42752075 184.01172256 C-166.19906494 184.15179733 -166.97060913 184.2918721 -167.76553345 184.43619156 C-180.86339729 186.83445413 -191.75918901 191.07887434 -203.55252075 197.26172256 C-204.63936157 197.8297963 -205.72620239 198.39787003 -206.84597778 198.98315811 C-217.36379864 204.53241451 -227.62428434 210.47948695 -237.84109497 216.56103897 C-240.9736307 218.41399754 -244.12204303 220.23703625 -247.275177 222.05469131 C-265.68627753 232.72540161 -283.35004075 244.40525022 -300.92752075 256.38672256 C-301.61643402 256.85607224 -302.30534729 257.32542191 -303.01513672 257.80899429 C-310.97146052 263.23611151 -318.88619482 268.70028795 -326.61502075 274.44922256 C-327.41190308 275.03937149 -328.2087854 275.62952042 -329.02981567 276.23755264 C-335.72487716 281.20838432 -342.35208934 286.25871316 -348.92752075 291.38672256 C-350.07723566 292.27737941 -351.22697603 293.1680034 -352.3767395 294.05859756 C-359.3378711 299.46993215 -366.13510358 305.03782623 -372.837677 310.76562881 C-375.70329769 313.2097559 -378.62157598 315.5836799 -381.55252075 317.94922256 C-386.31559293 321.82485189 -390.86116325 325.89906545 -395.38064575 330.05469131 C-397.51693824 332.01077508 -399.67532733 333.92859954 -401.86502075 335.82422256 C-406.75358826 340.0794534 -411.51848473 344.46851752 -416.27810669 348.86670303 C-417.89818595 350.35968904 -419.52571761 351.84419127 -421.15408325 353.32812881 C-429.62346514 361.09325193 -437.79505382 369.14713568 -445.92752075 377.26172256 C-446.47008514 377.80169876 -447.01264954 378.34167496 -447.57165527 378.89801407 C-453.04901106 384.35474049 -458.4809928 389.81130967 -463.47634888 395.72119522 C-465.05133985 397.52883123 -466.71605092 399.20844396 -468.42752075 400.88672256 C-471.46347 403.87544593 -474.27260734 407.00378735 -477.05252075 410.23047256 C-479.10111169 412.58635214 -481.19955077 414.89179716 -483.30252075 417.19922256 C-487.18102802 421.49632084 -490.85618043 425.92431011 -494.493927 430.42578506 C-496.6790527 433.08441313 -498.91151826 435.68720646 -501.17190552 438.28125381 C-507.27435827 445.29506687 -512.97422614 452.55102991 -518.57595825 459.96875381 C-520.82513046 462.94629858 -523.10054668 465.90025051 -525.40408325 468.83594131 C-525.99270142 469.58649796 -526.58131958 470.3370546 -527.18777466 471.11035538 C-528.27860662 472.49846431 -529.37168563 473.88481354 -530.4680481 475.2685585 C-541.67470313 489.55920211 -551.89325568 504.57378709 -561.92752075 519.69922256 C-562.4943457 520.55178635 -563.06117065 521.40435013 -563.64517212 522.28274918 C-571.98748458 534.83628844 -580.23405968 547.42176853 -587.92752075 560.38672256 C-588.48262329 561.31871475 -589.03772583 562.25070694 -589.60964966 563.21094131 C-598.05065592 577.42248419 -606.14534424 591.80461136 -613.92752075 606.38672256 C-614.64174194 607.72041885 -614.64174194 607.72041885 -615.37039185 609.0810585 C-635.78487609 647.31420485 -653.17167459 686.73933566 -668.18655396 727.38385391 C-668.90339191 729.32150116 -669.62485281 731.25736647 -670.34744263 733.19287491 C-702.54648199 819.8448287 -721.41876358 912.73935362 -726.92752075 1008.38672256 C-726.98947128 1009.36241699 -726.98947128 1009.36241699 -727.05267334 1010.35782242 C-728.11766344 1027.23950663 -728.11504215 1044.12917606 -728.11282349 1061.03686905 C-728.11274292 1064.28497342 -728.11958989 1067.53293466 -728.1333313 1070.78100967 C-728.258098 1100.79277464 -727.17462188 1130.69290054 -724.24002075 1160.57422256 C-724.11888412 1161.83098297 -724.11888412 1161.83098297 -723.99530029 1163.11313248 C-717.90548821 1225.56378435 -705.72043012 1287.22917541 -687.92752075 1347.38672256 C-687.71845093 1348.09536453 -687.5093811 1348.8040065 -687.29397583 1349.53412247 C-676.9372202 1384.5415118 -664.40578796 1418.87522768 -649.92752075 1452.38672256 C-649.45814087 1453.4795253 -648.98876099 1454.57232803 -648.50515747 1455.698246 C-633.33238537 1490.88826558 -616.33268985 1525.40834803 -596.72683716 1558.33984756 C-594.94834615 1561.35145784 -593.20558488 1564.38118877 -591.4704895 1567.41797256 C-583.09884667 1581.96219772 -574.04818923 1595.9883544 -564.74002075 1609.94922256 C-564.15291321 1610.83124344 -563.56580566 1611.71326431 -562.96090698 1612.62201309 C-552.38784189 1628.47883992 -541.41170661 1644.01892155 -529.80252075 1659.13672256 C-529.13003296 1660.01521866 -528.45754517 1660.89371475 -527.76467896 1661.79883194 C-525.82294399 1664.33122724 -523.87657571 1666.85995838 -521.92752075 1669.38672256 C-521.39852173 1670.07314835 -520.86952271 1670.75957413 -520.32449341 1671.46680069 C-514.5805965 1678.90164899 -508.65584406 1686.15073917 -502.55252075 1693.29297256 C-500.08836111 1696.18223577 -497.69091075 1699.12190714 -495.30252075 1702.07422256 C-491.67566794 1706.53007031 -487.90089405 1710.81903811 -484.0329895 1715.06641006 C-482.1983439 1717.0882644 -480.39983289 1719.13350779 -478.61502075 1721.19922256 C-474.03760877 1726.44854824 -469.28665548 1731.5381732 -464.54568481 1736.63916397 C-462.99615051 1738.31260492 -461.45683655 1739.9948585 -459.91970825 1741.67969131 C-452.17471854 1750.12535469 -444.14519015 1758.27623212 -436.05252075 1766.38672256 C-435.51245392 1766.92937759 -434.97238708 1767.47203262 -434.41595459 1768.03113174 C-429.01557501 1773.45192805 -423.60268286 1778.80586439 -417.78250122 1783.78125381 C-413.70610441 1787.30933823 -409.84067941 1791.07445313 -405.92752075 1794.78125381 C-401.35400589 1799.09572193 -396.6867833 1803.27837159 -391.92752075 1807.38672256 C-391.3453479 1807.89106827 -390.76317505 1808.39541397 -390.1633606 1808.91504288 C-382.51611702 1815.5278021 -374.79530542 1822.03690722 -366.92752075 1828.38672256 C-366.396427 1828.81888077 -365.86533325 1829.25103897 -365.31814575 1829.69629288 C-355.20605872 1837.92396002 -344.84565083 1845.79129847 -334.37722778 1853.55908585 C-332.1723423 1855.20407018 -329.98297335 1856.86698973 -327.7986145 1858.53906631 C-304.00503064 1876.60289338 -278.61235601 1893.14522771 -252.92752075 1908.38672256 C-251.52953247 1909.21937637 -251.52953247 1909.21937637 -250.103302 1910.06885147 C-237.62819885 1917.47849199 -225.05092762 1924.68940342 -212.24002075 1931.50391006 C-208.79141549 1933.34424753 -205.43892949 1935.27574177 -202.11502075 1937.33203506 C-186.87015344 1946.48760152 -170.64629949 1949.21779928 -153.35165405 1951.99670792 C-150.91082621 1952.38940852 -148.47161237 1952.79112576 -146.03250122 1953.19433975 C-96.82815035 1961.27443545 -47.24232706 1965.62578866 2.63497925 1965.57422256 C3.73365326 1965.57361832 4.83232727 1965.57301407 5.96429443 1965.57239151 C91.50150142 1965.44607708 176.8765065 1953.04075179 347.07247925 1897.38672256 C348.25873901 1896.89172256 349.44499878 1896.39672256 350.66720581 1895.88672256 C391.65033073 1878.75488042 431.14310375 1858.4863438 469.07247925 1835.38672256 C470.06731323 1834.78134659 471.06214722 1834.17597061 472.08712769 1833.55224991 C482.22142117 1827.36812409 492.27777585 1821.09863087 502.07247925 1814.38672256 C503.3341785 1813.52731894 504.59589868 1812.66794603 505.8576355 1811.80859756 C530.05295845 1795.2883077 553.88712381 1778.00130384 576.1232605 1758.90234756 C578.94554307 1756.4949966 581.81051648 1754.1533378 584.69747925 1751.82422256 C589.46198732 1747.94742487 594.00891815 1743.87200724 598.5295105 1739.71484756 C600.64314979 1737.77977995 602.77907773 1735.8846396 604.94747925 1734.01172256 C617.19613872 1723.31671826 628.70539922 1711.91078651 640.1857605 1700.40381241 C642.95936287 1697.62481583 645.73831606 1694.85124974 648.51779175 1692.07812881 C650.30457106 1690.2906892 652.0910404 1688.50293967 653.87716675 1686.71484756 C654.69708099 1685.89695755 655.51699524 1685.07906754 656.36175537 1684.23639297 C660.60452148 1679.97644478 664.69905766 1675.64542314 668.61502075 1671.08229446 C670.66858964 1668.69322218 672.809924 1666.38810813 674.94747925 1664.07422256 C679.01787981 1659.61149424 682.87424834 1655.02414256 686.66622925 1650.32422256 C689.37027814 1647.02317587 692.15392402 1643.79937139 694.94747925 1640.57422256 C700.35960586 1634.30022162 705.5123868 1627.85783012 710.58029175 1621.30420303 C712.17924103 1619.24953227 713.79637507 1617.21010287 715.41622925 1615.17187881 C722.65615211 1606.02411117 729.44587158 1596.6758275 735.93966675 1586.98437881 C738.20365554 1583.61895052 740.55729272 1580.33476809 742.959198 1577.06641006 C747.16559786 1571.31383353 751.11828592 1565.41811992 755.00997925 1559.44922256 C755.55014679 1558.62126678 755.55014679 1558.62126678 756.10122681 1557.77658463 C796.88629228 1495.16215638 829.83021326 1428.06012529 854.07247925 1357.38672256 C854.32857971 1356.64140274 854.58468018 1355.89608292 854.84854126 1355.12817764 C879.23895555 1283.96239021 894.01616267 1209.80540827 899.82247925 1134.82422256 C899.91136414 1133.68216354 899.91136414 1133.68216354 900.00204468 1132.51703262 C901.64493686 1110.99702127 902.28232873 1089.46597364 902.25997925 1067.88672256 C902.259375 1066.78999222 902.25877075 1065.69326187 902.25814819 1064.56329727 C902.15224128 992.93276989 893.476875 921.5608699 876.36056519 852.00195694 C876.14997467 851.14395996 875.93938416 850.28596298 875.72241211 849.40196609 C875.32903141 847.80487033 874.93237563 846.20857587 874.53167725 844.61330032 C868.96622432 822.10040488 871.41691636 798.39599474 882.92404175 778.12500381 C896.13791775 757.56716087 915.14038992 743.58817595 939.07247925 738.07422256 C963.50631757 734.36229727 985.63401456 739.2102583 1005.88497925 753.19922256 C1015.47563866 760.58330921 1023.15756541 768.82103214 1029.07247925 779.38672256 C1029.72796753 780.46373428 1029.72796753 780.46373428 1030.396698 781.56250381 C1059.06771928 832.48296118 1061.4442355 913.5344864 1066.80819702 970.59552383 C1067.0573605 973.22704689 1067.31653422 975.85740894 1067.57736206 978.48779678 C1070.34588816 1007.04916255 1070.38527371 1035.69282289 1070.44039536 1064.36111832 C1070.44732776 1067.38318497 1070.45897702 1070.40520209 1070.47155762 1073.42724991 C1070.60403581 1110.35213125 1068.93402147 1147.17574811 1064.82247925 1183.88672256 C1064.71954559 1184.82712387 1064.61661194 1185.76752518 1064.51055908 1186.73642349 C1053.74779897 1284.50596905 1029.49392973 1380.73651369 930.07247925 1598.38672256 C929.2840564 1599.74893936 929.2840564 1599.74893936 928.47970581 1601.13867569 C917.36853841 1620.27039655 905.82901188 1639.19174528 893.37081909 1657.48047256 C891.9186945 1659.61251259 890.47438598 1661.74976387 889.0295105 1663.88672256 C875.69907422 1683.54237642 861.62288866 1702.61935377 847.07247925 1721.38672256 C846.63145874 1721.95681046 846.19043823 1722.52689835 845.73605347 1723.11426163 C839.88674193 1730.66461619 833.88477319 1738.05017272 827.68185425 1745.31250381 C825.3097889 1748.09405344 822.99755212 1750.92020918 820.69747925 1753.76172256 C812.11009921 1764.29312625 803.11206863 1774.45073302 793.849823 1784.39062881 C791.32258015 1787.10526763 788.84937943 1789.86480624 786.38497925 1792.63672256 C782.86418554 1796.57135278 779.19914555 1800.31374718 775.40841675 1803.98828506 C773.50285312 1805.94483367 771.72803529 1807.92964531 769.9513855 1810.00000381 C765.41836394 1815.22050935 760.5322366 1820.07284904 755.63497925 1824.94922256 C754.73199097 1825.85607803 753.82900269 1826.7629335 752.89865112 1827.69726944 C748.3273434 1832.26195688 743.69740463 1836.6758995 738.79489136 1840.88257217 C736.43809742 1842.94071639 734.25458109 1845.145645 732.07247925 1847.38672256 C728.58206484 1850.91426904 725.02603611 1854.2605673 721.256073 1857.48437881 C719.0646656 1859.3935298 716.92936197 1861.35663573 714.79928589 1863.33374405 C709.69190232 1868.07174349 704.4716218 1872.5799412 699.04122925 1876.94922256 C695.54965993 1879.81598474 692.15724452 1882.7845049 688.75997925 1885.76172256 C682.8471366 1890.92619885 676.79034268 1895.84644368 670.584198 1900.65234756 C667.59703697 1902.9661697 664.6561287 1905.33232729 661.72164917 1907.71240616 C653.34774232 1914.49123013 644.734985 1920.9222778 636.01608276 1927.24951553 C633.73645983 1928.90463863 631.46198996 1930.56620049 629.18942261 1932.23096085 C618.60653774 1939.95777484 607.8380748 1947.36605208 596.92379761 1954.61621475 C594.26871085 1956.3809191 591.61864035 1958.15297097 588.96896362 1959.92578506 C572.72215308 1970.76417372 556.2111129 1981.18127385 539.25997925 1990.88672256 C538.17869751 1991.50780899 537.09741577 1992.12889542 535.98336792 1992.76880264 C524.7846303 1999.17099068 513.46133267 2005.33050058 502.07247925 2011.38672256 C500.6962439 2012.12221329 500.6962439 2012.12221329 499.29220581 2012.87256241 C420.72841483 2054.78350608 336.53377131 2085.53375939 120.57247925 2128.13672256 C119.72174835 2128.23200241 118.87101746 2128.32728226 117.99450684 2128.42544937 C81.94764423 2132.40483357 45.78754113 2133.90327013 9.54074097 2133.77783585 C4.5674277 2133.76074577 -0.4054033 2133.77094802 -5.37870026 2133.78815842 C-41.49233852 2133.8937525 -77.52573859 2132.15763717 -113.42752075 2128.13672256 C-114.36792206 2128.03378891 -115.30832336 2127.93085526 -116.27722168 2127.8248024 C-214.04676724 2117.06204229 -310.27731188 2092.80817305 -588.92752075 1955.38672256 C-589.60282837 1954.93007217 -590.27813599 1954.47342178 -590.97390747 1954.0029335 C-611.46748192 1940.14002344 -631.37530699 1925.54562513 -650.92752075 1910.38672256 C-651.49760864 1909.94570206 -652.06769653 1909.50468155 -652.65505981 1909.05029678 C-660.20541438 1903.20098525 -667.59097091 1897.1990165 -674.853302 1890.99609756 C-677.63485163 1888.62403221 -680.46100736 1886.31179544 -683.30252075 1884.01172256 C-693.83392444 1875.42434252 -703.99153121 1866.42631194 -713.931427 1857.16406631 C-716.64606582 1854.63682347 -719.40560443 1852.16362275 -722.17752075 1849.69922256 C-726.11215097 1846.17842886 -729.85454537 1842.51338887 -733.52908325 1838.72266006 C-735.48563186 1836.81709644 -737.47044349 1835.0422786 -739.540802 1833.26562881 C-744.76130754 1828.73260726 -749.61364723 1823.84647991 -754.49002075 1818.94922256 C-755.39687622 1818.04623428 -756.30373169 1817.143246 -757.23806763 1816.21289444 C-761.80275506 1811.64158672 -766.21669768 1807.01164795 -770.42337036 1802.10913467 C-772.48151458 1799.75234074 -774.68644319 1797.5688244 -776.92752075 1795.38672256 C-780.45506722 1791.89630816 -783.80136549 1788.34027943 -787.025177 1784.57031631 C-788.93432799 1782.37890892 -790.89743392 1780.24360529 -792.87454224 1778.11352921 C-797.61254168 1773.00614564 -802.12073939 1767.78586512 -806.49002075 1762.35547256 C-809.35678293 1758.86390324 -812.32530309 1755.47148784 -815.30252075 1752.07422256 C-820.46699704 1746.16137991 -825.38724187 1740.104586 -830.19314575 1733.89844131 C-832.50696789 1730.91128029 -834.87312548 1727.97037201 -837.25320435 1725.03589249 C-844.79638543 1715.71777241 -851.87861997 1706.08143479 -858.92752075 1696.38672256 C-860.03421789 1694.87234579 -861.14098723 1693.35802177 -862.24783325 1691.84375381 C-891.55610994 1651.63119709 -917.57169328 1609.30784966 -940.92752075 1565.38672256 C-941.66301147 1564.01048721 -941.66301147 1564.01048721 -942.4133606 1562.60644913 C-984.32430427 1484.04265815 -1015.07455758 1399.84801463 -1057.67752075 1183.88672256 C-1057.7728006 1183.03599167 -1057.86808044 1182.18526077 -1057.96624756 1181.30875015 C-1061.94563176 1145.26188754 -1063.44406832 1109.10178445 -1063.31863403 1072.85498428 C-1063.30154396 1067.88167102 -1063.3117462 1062.90884001 -1063.3289566 1057.93554306 C-1063.43455069 1021.8219048 -1061.69843535 985.78850472 -1057.67752075 949.88672256 C-1057.5745871 948.94632126 -1057.47165344 948.00591995 -1057.36560059 947.03702164 C-1046.56508441 848.92449774 -1022.07160496 752.64580779 -969.92752075 627.38672256 C-969.39449341 626.2206044 -968.86146606 625.05448624 -968.31228638 623.85303116 C-933.77569694 548.44507673 -890.74144467 477.92739728 -839.92752075 412.38672256 C-839.48650024 411.81663467 -839.04547974 411.24654678 -838.59109497 410.6591835 C-832.74178343 403.10882893 -826.73981469 395.72327241 -820.53689575 388.46094131 C-818.1648304 385.67939169 -815.85259363 382.85323595 -813.55252075 380.01172256 C-804.96514071 369.48031888 -795.96711013 359.3227121 -786.7048645 349.38281631 C-784.17762165 346.6681775 -781.70442093 343.90863889 -779.24002075 341.13672256 C-775.71922705 337.20209235 -772.05418705 333.45969795 -768.26345825 329.78516006 C-766.35789463 327.82861146 -764.58307679 325.84379982 -762.806427 323.77344131 C-758.27340544 318.55293578 -753.3872781 313.70059609 -748.49002075 308.82422256 C-747.58703247 307.9173671 -746.68404419 307.01051163 -745.75369263 306.07617569 C-741.18238491 301.51148825 -736.55244613 297.09754563 -731.64993286 292.89087296 C-729.29313893 290.83272874 -727.10962259 288.62780013 -724.92752075 286.38672256 C-721.43710635 282.85917609 -717.88107761 279.51287783 -714.1111145 276.28906631 C-711.9197071 274.37991533 -709.78440348 272.4168094 -707.65432739 270.43970108 C-702.54694383 265.70170164 -697.32666331 261.19350393 -691.89627075 256.82422256 C-688.40470143 253.95746039 -685.01228603 250.98894022 -681.61502075 248.01172256 C-675.7021781 242.84724628 -669.64538419 237.92700145 -663.4392395 233.12109756 C-660.45207847 230.80727543 -657.5111702 228.44111784 -654.57669067 226.06103897 C-645.25857059 218.51785789 -635.62223298 211.43562335 -625.92752075 204.38672256 C-624.41314398 203.28002543 -622.89881996 202.17325609 -621.384552 201.06641006 C-581.17199527 171.75813338 -538.84864785 145.74255004 -494.92752075 122.38672256 C-493.5512854 121.65123184 -493.5512854 121.65123184 -492.14724731 120.90088272 C-413.58345634 78.98993905 -329.38881282 48.23968573 -113.42752075 5.63672256 C-112.57678986 5.54144272 -111.72605896 5.44616287 -110.84954834 5.34799576 C-73.99994293 1.27999297 -37.05148109 -0.15424307 0 0 Z " fill="#515151" transform="translate(1062.9275207519531,-0.3867225646972656)"/>
<path d="M0 0 C16.52790474 14.06899867 26.92208447 34.48694268 29.421875 55.98046875 C30.59791384 78.21212602 26.12489478 100.13629764 11.28359075 117.47917046 C2.52996483 127.03205222 -6.62641723 136.17267708 -15.79053974 145.32989788 C-17.64460673 147.18622415 -19.49847612 149.04274589 -21.35211024 150.89950421 C-25.38226438 154.93565842 -29.41424757 158.96997808 -33.44745765 163.00307848 C-39.48532113 169.04079071 -45.52032026 175.08136016 -51.55479317 181.12246091 C-61.84155187 191.4203408 -72.13069694 201.71583333 -82.42116547 212.01000595 C-92.84609893 222.43869866 -103.26997071 232.86845082 -113.69256401 243.29948235 C-114.35142889 243.95887832 -115.01029376 244.61827429 -115.68912424 245.29765195 C-118.37267724 247.98337174 -121.05622531 250.66909644 -123.73976643 253.35482808 C-156.23909815 285.88063371 -188.74387443 318.40099596 -221.24989355 350.92011808 C-231.78956245 361.46403876 -242.32907337 372.00811734 -252.86848617 382.55229402 C-308.09650832 437.80522109 -363.32595361 493.05672528 -418.56031604 548.30331427 C-422.60145106 552.34534666 -426.64257742 556.38738771 -430.68370328 560.42942925 C-431.48532396 561.23123154 -432.28694464 562.03303384 -433.11285686 562.85913317 C-441.23423657 570.98235552 -449.35560467 579.1055895 -457.47696092 587.22883532 C-459.10530124 588.85755368 -460.73364243 590.48627117 -462.36198451 592.11498779 C-514.67837442 644.44341234 -566.98592348 696.78066115 -619.28748644 749.12390483 C-656.87769111 786.74405736 -694.46905364 824.36304862 -732.06938457 861.97308064 C-732.84253698 862.7464336 -733.61568939 863.51978656 -734.41227066 864.31657446 C-751.38423829 881.29289251 -768.35690819 898.26850828 -785.33023604 915.24346635 C-792.1593042 922.07321086 -798.98828277 928.90304495 -805.81723595 935.73290443 C-806.56461323 936.48037581 -807.31199052 937.2278472 -808.0820156 937.99796922 C-832.15780999 962.07687593 -856.22589545 986.16347042 -880.29002045 1010.2540389 C-904.52317474 1034.51373476 -928.76421179 1058.76552425 -953.01615526 1083.00643773 C-956.3673407 1086.35610165 -959.71843811 1089.70585362 -963.0694828 1093.05565834 C-964.05482542 1094.04062636 -964.05482542 1094.04062636 -965.06007394 1095.04549272 C-975.46047724 1105.44240131 -985.85245537 1115.84768899 -996.24094596 1126.25649923 C-1006.4564694 1136.4916557 -1016.68087899 1146.71786313 -1026.91479899 1156.93462597 C-1032.91367858 1162.92398336 -1038.90563779 1168.92006751 -1044.88753647 1174.9263858 C-1048.86396759 1178.91767661 -1052.84944474 1182.89978091 -1056.84231096 1186.87462972 C-1059.10359623 1189.12621544 -1061.35947555 1191.38275748 -1063.60710948 1193.64798145 C-1081.69022445 1211.86340655 -1101.83041849 1226.78822602 -1128.578125 1227.98046875 C-1129.24328125 1228.02042969 -1129.9084375 1228.06039063 -1130.59375 1228.1015625 C-1152.82065135 1228.80129828 -1174.03788004 1220.6638641 -1190.578125 1205.98046875 C-1191.25230469 1205.40039062 -1191.92648437 1204.8203125 -1192.62109375 1204.22265625 C-1208.55670831 1189.52753863 -1216.16494415 1168.66485688 -1217.859375 1147.4609375 C-1218.4737584 1125.06154279 -1211.04042462 1103.34330703 -1195.81046578 1086.75626339 C-1191.11478102 1081.81265248 -1186.27502659 1077.01417885 -1181.43722153 1072.21035957 C-1179.56556295 1070.3334799 -1177.69492159 1068.45563355 -1175.82545704 1066.57657325 C-1171.75891621 1062.49314519 -1167.68325439 1058.41900562 -1163.60137686 1054.3509108 C-1157.49073211 1048.26080565 -1151.39466778 1042.15625487 -1145.30127441 1036.04889513 C-1134.91385819 1025.63851644 -1124.51464424 1015.23999668 -1114.1089077 1004.84793282 C-1103.56716492 994.31995702 -1093.03088456 983.78655907 -1082.50119209 973.24653053 C-1081.50276611 972.24713576 -1081.50276611 972.24713576 -1080.48416991 971.22755118 C-1077.77313591 968.51385077 -1075.06214051 965.80011182 -1072.35119405 963.08632395 C-1047.11321842 937.82191442 -1021.86294532 912.56982935 -996.60475922 887.32562637 C-995.85661999 886.57790113 -995.10848077 885.83017588 -994.33767065 885.05979229 C-993.58833313 884.31086941 -992.8389956 883.56194653 -992.06695088 882.79032902 C-969.23847133 859.97446507 -946.41467645 837.15392761 -923.59549713 814.32876205 C-922.06744566 812.80032319 -920.53939339 811.27188513 -919.01134031 809.74344788 C-912.87075121 803.60130645 -906.73018261 797.45914452 -900.58964393 791.31695269 C-883.4243528 774.14707653 -866.25819564 756.97806636 -849.09135818 739.80973625 C-847.91875596 738.63703168 -847.91875596 738.63703168 -846.72246479 737.4406361 C-821.81307121 712.52919615 -796.89983918 687.62159853 -771.98398972 662.71661568 C-770.77180814 661.50496097 -770.77180814 661.50496097 -769.53513806 660.2688284 C-756.41173469 647.15114978 -743.28814509 634.03365749 -730.16453974 620.91618095 C-678.11216538 568.88808948 -626.07251318 516.84730799 -574.04443359 464.79492188 C-560.9323765 451.67675885 -547.82029405 438.55862116 -534.70803452 425.44066048 C-533.90067058 424.6329443 -533.09330664 423.82522812 -532.26147713 422.9930357 C-507.38153273 398.10231091 -482.49848548 373.21469164 -457.61206436 348.33044243 C-456.83084891 347.5492949 -456.04963346 346.76814737 -455.24474481 345.9633287 C-438.09607257 328.81621883 -420.94659757 311.66991198 -403.79639856 294.52432914 C-397.66001404 288.38959034 -391.52366968 282.25481138 -385.38733679 276.12002093 C-383.86077075 274.59384183 -382.33420135 273.06766608 -380.80762859 271.5414937 C-357.98772747 248.72756125 -335.17335909 225.90810862 -312.36275704 203.08487867 C-311.24104497 201.96254564 -311.24104497 201.96254564 -310.09667206 200.81753922 C-309.35024317 200.07069692 -308.60381429 199.32385462 -307.83476635 198.55438074 C-282.66448899 173.37031524 -257.4848017 148.19569205 -232.29444233 123.0317132 C-229.58981265 120.32984532 -226.8852221 117.62793828 -224.18066216 114.9260006 C-223.51691111 114.26290058 -222.85316007 113.59980057 -222.16929535 112.91660662 C-211.6572016 102.41437693 -201.15349527 91.90380006 -190.65324105 81.38973446 C-180.32968848 71.05295928 -169.99724253 60.72514541 -159.65525248 50.40681633 C-153.59178147 44.35668898 -147.53521529 38.29984301 -141.48865648 32.23281235 C-137.47067281 28.20259685 -133.44367429 24.18154101 -129.40927174 20.16776188 C-127.12354585 17.89321744 -124.8432374 15.61369681 -122.57113009 13.32553764 C-88.29124555 -21.17929799 -40.46991843 -31.7014361 0 0 Z " fill="#A8FD02" transform="translate(1812.578125,306.01953125)"/>
<path d="M0 0 C-0.81339844 0.41137207 -1.62679687 0.82274414 -2.46484375 1.24658203 C-19.27442893 9.7719158 -35.83355511 18.53336125 -52.01025391 28.22265625 C-55.10049021 30.0597394 -58.20952844 31.86097382 -61.32421875 33.65625 C-79.74494172 44.32795318 -97.41529385 56.01360205 -115 68 C-115.68891327 68.46934967 -116.37782654 68.93869934 -117.08761597 69.42227173 C-125.04393977 74.84938895 -132.95867407 80.31356538 -140.6875 86.0625 C-141.48438232 86.65264893 -142.28126465 87.24279785 -143.10229492 87.85083008 C-149.79735641 92.82166175 -156.42456859 97.8719906 -163 103 C-164.14971491 103.89065685 -165.29945528 104.78128084 -166.44921875 105.671875 C-173.41035035 111.08320959 -180.20758282 116.65110366 -186.91015625 122.37890625 C-189.77577694 124.82303334 -192.69405522 127.19695734 -195.625 129.5625 C-200.38807218 133.43812933 -204.93364249 137.51234289 -209.453125 141.66796875 C-211.58941749 143.62405252 -213.74780657 145.54187697 -215.9375 147.4375 C-220.82606751 151.69273083 -225.59096398 156.08179496 -230.35058594 160.47998047 C-231.9706652 161.97296648 -233.59819686 163.45746871 -235.2265625 164.94140625 C-243.69594438 172.70652936 -251.86753307 180.76041311 -260 188.875 C-260.54256439 189.4149762 -261.08512878 189.95495239 -261.64413452 190.5112915 C-267.12149031 195.96801793 -272.55347205 201.42458711 -277.54882812 207.33447266 C-279.1238191 209.14210866 -280.78853016 210.8217214 -282.5 212.5 C-285.53594925 215.48872337 -288.34508659 218.61706479 -291.125 221.84375 C-293.17359094 224.19962958 -295.27203002 226.5050746 -297.375 228.8125 C-301.25350727 233.10959827 -304.92865968 237.53758754 -308.56640625 242.0390625 C-310.75153195 244.69769056 -312.9839975 247.3004839 -315.24438477 249.89453125 C-321.34683752 256.90834431 -327.04670539 264.16430735 -332.6484375 271.58203125 C-334.89760971 274.55957602 -337.17302593 277.51352795 -339.4765625 280.44921875 C-340.06518066 281.19977539 -340.65379883 281.95033203 -341.26025391 282.72363281 C-342.35108587 284.11174175 -343.44416487 285.49809098 -344.54052734 286.88183594 C-355.74718237 301.17247955 -365.96573493 316.18706452 -376 331.3125 C-376.56682495 332.16506378 -377.1336499 333.01762756 -377.71765137 333.89602661 C-386.05996383 346.44956588 -394.30653893 359.03504597 -402 372 C-402.55510254 372.93199219 -403.11020508 373.86398437 -403.68212891 374.82421875 C-412.12313517 389.03576162 -420.21782349 403.4178888 -428 418 C-428.47614746 418.88913086 -428.95229492 419.77826172 -429.44287109 420.69433594 C-449.85735534 458.92748229 -467.24415384 498.35261309 -482.2590332 538.99713135 C-482.97587116 540.93477859 -483.69733206 542.87064391 -484.41992188 544.80615234 C-516.61896123 631.45810614 -535.49124282 724.35263105 -541 820 C-541.06195053 820.97569443 -541.06195053 820.97569443 -541.12515259 821.97109985 C-542.19014269 838.85278407 -542.1875214 855.7424535 -542.18530273 872.65014648 C-542.18522216 875.89825086 -542.19206913 879.14621209 -542.20581055 882.39428711 C-542.33057725 912.40605208 -541.24710112 942.30617798 -538.3125 972.1875 C-538.23174225 973.02534027 -538.1509845 973.86318054 -538.06777954 974.72640991 C-531.97796746 1037.17706178 -519.79290936 1098.84245284 -502 1159 C-501.68639526 1160.06296295 -501.68639526 1160.06296295 -501.36645508 1161.1473999 C-491.00969945 1196.15478923 -478.47826721 1230.48850511 -464 1264 C-463.53062012 1265.09280273 -463.06124023 1266.18560547 -462.57763672 1267.31152344 C-447.40486462 1302.50154301 -430.40516909 1337.02162547 -410.79931641 1369.953125 C-409.0208254 1372.96473528 -407.27806413 1375.9944662 -405.54296875 1379.03125 C-397.17132592 1393.57547516 -388.12066848 1407.60163183 -378.8125 1421.5625 C-378.22539246 1422.44452087 -377.63828491 1423.32654175 -377.03338623 1424.23529053 C-366.46032114 1440.09211735 -355.48418586 1455.63219898 -343.875 1470.75 C-343.20251221 1471.62849609 -342.53002441 1472.50699219 -341.8371582 1473.41210938 C-339.89542324 1475.94450467 -337.94905496 1478.47323581 -336 1481 C-335.47100098 1481.68642578 -334.94200195 1482.37285156 -334.39697266 1483.08007812 C-328.65307575 1490.51492642 -322.72832331 1497.76401661 -316.625 1504.90625 C-314.16084036 1507.7955132 -311.76339 1510.73518458 -309.375 1513.6875 C-305.74814719 1518.14334774 -301.9733733 1522.43231555 -298.10546875 1526.6796875 C-296.27082315 1528.70154184 -294.47231214 1530.74678522 -292.6875 1532.8125 C-288.11008801 1538.06182567 -283.35913473 1543.15145064 -278.61816406 1548.25244141 C-277.06862975 1549.92588235 -275.5293158 1551.60813594 -273.9921875 1553.29296875 C-266.24719779 1561.73863213 -258.2176694 1569.88950956 -250.125 1578 C-249.58493317 1578.54265503 -249.04486633 1579.08531006 -248.48843384 1579.64440918 C-243.08805426 1585.06520549 -237.6751621 1590.41914183 -231.85498047 1595.39453125 C-227.77858366 1598.92261567 -223.91315866 1602.68773057 -220 1606.39453125 C-215.42648514 1610.70899937 -210.75926255 1614.89164902 -206 1619 C-205.41782715 1619.5043457 -204.8356543 1620.00869141 -204.23583984 1620.52832031 C-196.58859627 1627.14107954 -188.86778467 1633.65018465 -181 1640 C-180.46890625 1640.4321582 -179.9378125 1640.86431641 -179.390625 1641.30957031 C-169.27853797 1649.53723745 -158.91813008 1657.4045759 -148.44970703 1665.17236328 C-146.24482154 1666.81734761 -144.0554526 1668.48026716 -141.87109375 1670.15234375 C-118.07750988 1688.21617082 -92.68483525 1704.75850515 -67 1720 C-65.60201172 1720.83265381 -65.60201172 1720.83265381 -64.17578125 1721.68212891 C-43.15958384 1734.16478864 -21.69183263 1745.74144907 0 1757 C-3.17775873 1758.02199969 -5.22484365 1757.94429374 -8.44775391 1757.13891602 C-9.32551987 1756.92409073 -10.20328583 1756.70926544 -11.10765076 1756.4879303 C-12.05439163 1756.24570236 -13.00113251 1756.00347443 -13.9765625 1755.75390625 C-15.46030113 1755.38506569 -15.46030113 1755.38506569 -16.97401428 1755.0087738 C-20.19384434 1754.20417426 -23.40956436 1753.38447272 -26.625 1752.5625 C-27.72188141 1752.2847876 -28.81876282 1752.0070752 -29.94888306 1751.72094727 C-44.98166584 1747.91273226 -59.9024599 1743.94724333 -74.63623047 1739.09423828 C-77.81889783 1738.05891275 -81.0099208 1737.05732356 -84.20626831 1736.06538391 C-107.59560882 1728.80006542 -130.37465705 1720.37046447 -153 1711 C-154.01966858 1710.57847656 -154.01966858 1710.57847656 -155.05993652 1710.1484375 C-192.59230526 1694.60224072 -229.34801801 1676.49264051 -264.22021484 1655.65966797 C-266.88750468 1654.06716522 -269.56185249 1652.48723797 -272.23828125 1650.91015625 C-313.61255959 1626.43483706 -352.87245695 1598.07042949 -389.42871094 1566.87060547 C-392.65442612 1564.11984835 -395.93261892 1561.45143924 -399.25 1558.8125 C-404.97409711 1554.1611473 -410.30011095 1549.11140944 -415.63574219 1544.02270508 C-419.16630788 1540.65608846 -422.72722255 1537.35073612 -426.390625 1534.12890625 C-433.78755842 1527.50158364 -440.73939107 1520.40939551 -447.75073242 1513.37963867 C-450.18881632 1510.93618078 -452.63221789 1508.49813193 -455.07617188 1506.06054688 C-456.64875833 1504.48729979 -458.22103464 1502.91374263 -459.79296875 1501.33984375 C-460.51292526 1500.62191147 -461.23288177 1499.90397919 -461.97465515 1499.16429138 C-465.96210406 1495.15857191 -469.78178623 1491.06071627 -473.46507263 1486.77304077 C-475.85948739 1484.00718026 -478.3726386 1481.35528243 -480.875 1478.6875 C-485.31465293 1473.91589105 -489.51659141 1469.0183201 -493.59765625 1463.93359375 C-496.44962178 1460.45094967 -499.4085712 1457.07252582 -502.375 1453.6875 C-508.51293642 1446.64895544 -514.31500146 1439.40671074 -520 1432 C-520.6074707 1431.21318848 -521.21494141 1430.42637695 -521.84082031 1429.61572266 C-530.35439212 1418.58420004 -538.68769349 1407.46026149 -546.61621094 1396 C-547.98098852 1394.02747743 -549.3532893 1392.0603641 -550.7265625 1390.09375 C-567.80223931 1365.54880992 -583.53695681 1340.16456273 -598 1314 C-598.52561523 1313.05318359 -599.05123047 1312.10636719 -599.59277344 1311.13085938 C-635.86199456 1245.64538568 -664.2342838 1175.38267025 -682.32324219 1102.68652344 C-682.99844072 1100.00618987 -683.70277874 1097.33502547 -684.4140625 1094.6640625 C-696.05894631 1050.41663962 -703.44462949 1004.59427571 -707 959 C-707.09619629 957.81937988 -707.19239258 956.63875977 -707.29150391 955.42236328 C-707.92572707 947.61875353 -708.52493259 939.81501619 -709 932 C-709.06565155 930.96588989 -709.06565155 930.96588989 -709.13262939 929.91088867 C-710.0991068 914.28638226 -710.15563628 898.66598906 -710.13037109 883.01806641 C-710.12469619 879.47439583 -710.12806576 875.93080063 -710.13378906 872.38713264 C-710.16949 846.67741103 -709.29279978 821.21952334 -706.75 795.625 C-706.58426987 793.93505417 -706.58426987 793.93505417 -706.41519165 792.21096802 C-702.29609892 750.4229801 -695.8195192 708.82200565 -685.74316406 668.02685547 C-684.96234611 664.84663834 -684.21080645 661.66030318 -683.4609375 658.47265625 C-665.0686218 581.39137662 -634.27562841 505.20965435 -586 422 C-584.94603843 420.21909085 -583.89263731 418.43784988 -582.83984375 416.65625 C-558.33760919 375.33053268 -530.05474927 336.10917082 -498.87060547 299.57128906 C-496.11984835 296.34557388 -493.45143924 293.06738108 -490.8125 289.75 C-486.1611473 284.02590289 -481.11140944 278.69988905 -476.02270508 273.36425781 C-472.65608846 269.83369212 -469.35073612 266.27277745 -466.12890625 262.609375 C-459.50158364 255.21244158 -452.40939551 248.26060893 -445.37963867 241.24926758 C-442.93618078 238.81118368 -440.49813193 236.36778211 -438.06054688 233.92382812 C-436.48729979 232.35124167 -434.91374263 230.77896536 -433.33984375 229.20703125 C-432.62191147 228.48707474 -431.90397919 227.76711823 -431.16429138 227.02534485 C-427.15857191 223.03789594 -423.06071627 219.21821377 -418.77304077 215.53492737 C-416.00718026 213.14051261 -413.35528243 210.6273614 -410.6875 208.125 C-405.91589105 203.68534707 -401.0183201 199.48340859 -395.93359375 195.40234375 C-392.45094967 192.55037822 -389.07252582 189.5914288 -385.6875 186.625 C-378.64895544 180.48706358 -371.40671074 174.68499854 -364 169 C-363.21318848 168.3925293 -362.42637695 167.78505859 -361.61572266 167.15917969 C-350.58420004 158.64560788 -339.46026149 150.31230651 -328 142.38378906 C-326.02747743 141.01901148 -324.0603641 139.6467107 -322.09375 138.2734375 C-297.54880992 121.19776069 -272.16456273 105.46304319 -246 91 C-245.05318359 90.47438477 -244.10636719 89.94876953 -243.13085938 89.40722656 C-172.88342157 50.50058497 -97.57187333 21.56226146 -19.55078125 2.62255859 C-17.28073202 2.0685171 -15.01494057 1.50026254 -12.75 0.92578125 C-11.595 0.64089844 -10.44 0.35601562 -9.25 0.0625 C-7.83460938 -0.29134766 -7.83460938 -0.29134766 -6.390625 -0.65234375 C-3.8830268 -1.01701081 -2.40445165 -0.67787773 0 0 Z " fill="#6E6E6E" transform="translate(877,188)"/>
<path d="M0 0 C1.26070312 0.32242676 1.26070312 0.32242676 2.546875 0.65136719 C44.31825515 11.63605796 80.9480657 34.36555771 112 64 C112.87269531 64.83144531 113.74539063 65.66289063 114.64453125 66.51953125 C120.58903516 72.31793368 125.87388519 78.47345177 131 85 C131.79148437 85.98613281 132.58296875 86.97226563 133.3984375 87.98828125 C162.20476894 124.47327202 178.73288606 167.16588316 185 213 C185.1045752 213.74733398 185.20915039 214.49466797 185.31689453 215.26464844 C186.36762138 224.0050417 186.24385289 232.83483875 186.25 241.625 C186.25067474 242.49237793 186.25134949 243.35975586 186.25204468 244.25341797 C186.23464785 258.36598519 185.53564553 272.08794287 183 286 C182.83902832 286.91990723 182.67805664 287.83981445 182.51220703 288.78759766 C173.71235996 337.70663223 150.07354135 381.17187705 116 417 C115.46213867 417.56654297 114.92427734 418.13308594 114.37011719 418.71679688 C106.67779957 426.76017925 98.70586697 434.02963652 89.77539062 440.67333984 C87.98657115 442.0100347 86.21935568 443.37192442 84.453125 444.73828125 C49.85691124 471.19200726 7.14787029 487.24090703 -36 492 C-36.79696289 492.0928125 -37.59392578 492.185625 -38.41503906 492.28125 C-46.80595423 493.16218598 -55.19722589 493.24330481 -63.625 493.25 C-64.77784485 493.25101212 -64.77784485 493.25101212 -65.95397949 493.25204468 C-79.80605016 493.23285849 -93.32733228 492.35035445 -107 490 C-107.94133789 489.83902832 -108.88267578 489.67805664 -109.85253906 489.51220703 C-149.69119423 482.38887484 -187.39652638 465.19573739 -219 440 C-219.94488281 439.26652344 -220.88976563 438.53304688 -221.86328125 437.77734375 C-258.86506507 408.45000398 -287.1116071 367.7883687 -302 323 C-302.27779297 322.16952148 -302.55558594 321.33904297 -302.84179688 320.48339844 C-323.21904308 258.56054321 -318.09223157 189.02796669 -289.125 130.625 C-281.17491236 115.06752753 -271.84371413 100.68523403 -261 87 C-260.18660156 85.96101563 -259.37320312 84.92203125 -258.53515625 83.8515625 C-245.86308223 68.27672271 -231.29672235 53.750173 -215 42 C-213.89979678 41.17222493 -212.80085344 40.34277288 -211.703125 39.51171875 C-151.6191874 -5.39422067 -72.07696748 -18.46840186 0 0 Z M-116 178 C-116.85335938 178.68964844 -117.70671875 179.37929687 -118.5859375 180.08984375 C-134.68463862 193.78612332 -144.60478695 213.03058768 -147 234 C-148.43052316 257.13801084 -142.52490295 278.94664901 -127.09545898 296.62719727 C-113.35078472 311.85907055 -94.56129349 323.93888177 -73.53588867 325.14086914 C-49.91551789 325.95989477 -29.2392221 321.95931934 -11 306 C-10.34 305.48179687 -9.68 304.96359375 -9 304.4296875 C6.5020143 291.89485562 16.29275777 271.37133737 18.52734375 251.80859375 C20.42082834 231.17266195 15.64609779 209.8831066 2.72460938 193.37011719 C-0.32795051 189.71643094 -3.62047119 186.35088874 -7 183 C-7.76828125 182.19820312 -8.5365625 181.39640625 -9.328125 180.5703125 C-24.68637764 165.47325464 -45.66695298 159.7159476 -66.68774414 159.68310547 C-84.86707984 159.93631262 -101.9415179 166.46864686 -116 178 Z " fill="#515151" transform="translate(1464,1178)"/>
<path d="M0 0 C1.15284485 -0.00101212 1.15284485 -0.00101212 2.32897949 -0.00204468 C16.18105016 0.01714151 29.70233228 0.89964555 43.375 3.25 C44.78700684 3.49145752 44.78700684 3.49145752 46.22753906 3.73779297 C86.06619423 10.86112516 123.77152638 28.05426261 155.375 53.25 C156.79232422 54.35021484 156.79232422 54.35021484 158.23828125 55.47265625 C195.24006507 84.79999602 223.4866071 125.4616313 238.375 170.25 C238.65279297 171.08047852 238.93058594 171.91095703 239.21679688 172.76660156 C259.59404308 234.68945679 254.46723157 304.22203331 225.5 362.625 C217.54991236 378.18247247 208.21871413 392.56476597 197.375 406.25 C196.56160156 407.28898437 195.74820312 408.32796875 194.91015625 409.3984375 C182.23808223 424.97327729 167.67172235 439.499827 151.375 451.25 C150.27479678 452.07777507 149.17585344 452.90722712 148.078125 453.73828125 C95.35108516 493.1457727 27.26162325 508.06741476 -37.42480469 498.75488281 C-46.26367976 497.36040664 -54.95910978 495.47047554 -63.625 493.25 C-64.46546875 493.03504883 -65.3059375 492.82009766 -66.171875 492.59863281 C-107.94325515 481.61394204 -144.5730657 458.88444229 -175.625 429.25 C-176.49769531 428.41855469 -177.37039063 427.58710937 -178.26953125 426.73046875 C-184.21403516 420.93206632 -189.49888519 414.77654823 -194.625 408.25 C-195.41648437 407.26386719 -196.20796875 406.27773438 -197.0234375 405.26171875 C-225.82976894 368.77672798 -242.35788606 326.08411684 -248.625 280.25 C-248.7295752 279.50266602 -248.83415039 278.75533203 -248.94189453 277.98535156 C-249.99262138 269.2449583 -249.86885289 260.41516125 -249.875 251.625 C-249.87567474 250.75762207 -249.87634949 249.89024414 -249.87704468 248.99658203 C-249.85964785 234.88401481 -249.16064553 221.16205713 -246.625 207.25 C-246.46402832 206.33009277 -246.30305664 205.41018555 -246.13720703 204.46240234 C-237.34086435 155.56284892 -213.68228636 112.06103092 -179.625 76.25 C-179.08713867 75.68345703 -178.54927734 75.11691406 -177.99511719 74.53320312 C-170.30279957 66.48982075 -162.33086697 59.22036348 -153.40039062 52.57666016 C-151.61157115 51.2399653 -149.84435568 49.87807558 -148.078125 48.51171875 C-113.48191124 22.05799274 -70.77287029 6.00909297 -27.625 1.25 C-26.82803711 1.1571875 -26.03107422 1.064375 -25.20996094 0.96875 C-16.81904577 0.08781402 -8.42777411 0.00669519 0 0 Z M-52.625 187.25 C-53.615 188.02730469 -53.615 188.02730469 -54.625 188.8203125 C-70.1270143 201.35514438 -79.91775777 221.87866263 -82.15234375 241.44140625 C-84.04582834 262.07733805 -79.27109779 283.3668934 -66.34960938 299.87988281 C-63.29704949 303.53356906 -60.00452881 306.89911126 -56.625 310.25 C-55.85671875 311.05179688 -55.0884375 311.85359375 -54.296875 312.6796875 C-38.93862236 327.77674536 -17.95804702 333.5340524 3.06274414 333.56689453 C21.24207984 333.31368738 38.3165179 326.78135314 52.375 315.25 C53.22835937 314.56035156 54.08171875 313.87070312 54.9609375 313.16015625 C71.05963862 299.46387668 80.97978695 280.21941232 83.375 259.25 C84.80552316 236.11198916 78.89990295 214.30335099 63.47045898 196.62280273 C49.72578472 181.39092945 30.93629349 169.31111823 9.91088867 168.10913086 C-13.70948211 167.29010523 -34.3857779 171.29068066 -52.625 187.25 Z " fill="#515151" transform="translate(732.625,461.75)"/>
<path d="M0 0 C1.63679803 -0.00679667 1.63679803 -0.00679667 3.30666268 -0.01373065 C6.94700858 -0.02634548 10.5872043 -0.02475607 14.22756958 -0.02310181 C16.84515575 -0.02908935 19.46274017 -0.03589541 22.08032227 -0.04345703 C28.44692623 -0.06003041 34.81349314 -0.06556515 41.18011688 -0.06668179 C46.36703275 -0.06763518 51.55393651 -0.07176 56.74084854 -0.07808304 C71.49204113 -0.09569506 86.2432047 -0.10492341 100.99440788 -0.10342209 C101.78871452 -0.10334218 102.58302116 -0.10326227 103.40139771 -0.10317993 C104.59433884 -0.10305729 104.59433884 -0.10305729 105.81137981 -0.10293217 C118.6545392 -0.10212203 131.49758053 -0.12119076 144.34070586 -0.14945666 C157.57244468 -0.17834412 170.80412629 -0.19198792 184.03589737 -0.19026911 C191.44619168 -0.18961005 198.85636267 -0.19488548 206.26662827 -0.21662521 C212.58649893 -0.23504838 218.90619062 -0.23901564 225.22607683 -0.22560637 C228.43764863 -0.21917749 231.64881637 -0.22085542 234.86036682 -0.23631287 C293.02540807 -0.49776706 350.10263295 18.6006172 394.84915161 56.26742554 C395.36654907 56.69603882 395.88394653 57.1246521 396.41702271 57.56625366 C409.10556451 68.0857827 420.71444039 79.22925651 430.84915161 92.26742554 C431.6367688 93.24969116 432.42438599 94.23195679 433.23587036 95.24398804 C456.24442869 124.16045648 472.08597026 158.18946041 480.53665161 194.07992554 C480.82221924 195.26678955 480.82221924 195.26678955 481.11355591 196.47763062 C485.44334845 215.78892076 486.29169058 234.95744876 486.25320435 254.67929077 C486.25892106 257.35768218 486.26579219 260.03604905 486.27400208 262.71443176 C486.29102344 269.17618118 486.29206604 275.63783267 486.28678917 282.09959864 C486.28271827 287.35591469 486.28422526 292.61220219 486.28953743 297.86851692 C486.29028585 298.62165428 486.29103427 299.37479164 486.29180538 300.15075134 C486.29333709 301.68148963 486.29487544 303.21222791 486.29642034 304.74296618 C486.31008251 319.02934352 486.30474999 333.31566577 486.29323513 347.60204179 C486.28328768 360.64001453 486.29628068 373.67784566 486.32016932 386.71579658 C486.34460651 400.15581768 486.3541582 413.59577293 486.3475166 427.03581578 C486.34403741 434.56066171 486.34617111 442.08539861 486.36376762 449.61022758 C486.37854677 456.00845423 486.37904988 462.40649479 486.36169671 468.80471801 C486.35323498 472.06146701 486.35312084 475.31781924 486.36634827 478.57456207 C486.41567027 491.72743141 486.38013878 503.79734904 481.84915161 516.26742554 C481.4714585 517.34628242 481.09376539 518.42513929 480.70462704 519.5366888 C473.91221807 538.13476054 459.11755696 553.13300457 441.84915161 562.26742554 C440.97001099 562.74695679 440.09087036 563.22648804 439.18508911 563.72055054 C420.20922143 573.23714883 395.98178158 574.62489525 375.85647583 568.00375366 C352.87841775 559.57492574 336.07471612 543.86431787 325.42337036 521.93930054 C320.68619752 510.8898155 318.69787073 499.92710779 318.71112061 487.97277832 C318.70829933 486.93763497 318.70547805 485.90249162 318.70257127 484.8359803 C318.6942397 481.36797137 318.69288823 477.89999443 318.69143677 474.43197632 C318.68676734 471.94476736 318.68162356 469.45755925 318.67604065 466.97035217 C318.66476459 461.6126115 318.65627735 456.25487701 318.64992142 450.89712906 C318.63956979 442.4153869 318.61899777 433.93368358 318.59680176 425.45196533 C318.58932228 422.54610647 318.58190843 419.64024744 318.57451439 416.73438835 C318.57266382 416.00817247 318.57081326 415.2819566 318.56890661 414.53373418 C318.54798922 406.27114029 318.52915852 398.00854211 318.51126099 389.74594116 C318.5096228 388.99092437 318.50798462 388.23590758 318.5062968 387.45801149 C318.48005602 375.24424012 318.46138748 363.03046575 318.44466908 350.81667818 C318.42719819 338.25515791 318.39829796 325.69369633 318.35977972 313.13222301 C318.33648308 305.39767209 318.32239451 297.66321692 318.32045208 289.92863064 C318.31807715 283.9856214 318.30010805 278.04272134 318.27658272 272.09975624 C318.26942662 269.67474515 318.26727068 267.24971293 318.2706852 264.82469368 C318.30461767 236.12583052 313.68913543 212.46122912 292.84915161 191.26742554 C292.1620813 190.5674646 291.47501099 189.86750366 290.76712036 189.14633179 C280.7765524 179.63768362 268.18937888 173.49697581 254.84915161 170.26742554 C254.13579336 170.09371902 253.42243511 169.92001249 252.68745995 169.74104214 C241.47721708 167.47833962 230.05029269 167.98268858 218.66799927 167.9961853 C216.21606779 167.99179333 213.7641378 167.98648946 211.31221008 167.98034668 C206.04951052 167.96888274 200.78683847 167.9631967 195.52412796 167.96246529 C187.90008402 167.96113288 180.2761126 167.94596228 172.65209441 167.92697012 C160.2594558 167.89619424 147.86681535 167.87199899 135.47415161 167.85409546 C134.73396567 167.85302278 133.99377972 167.8519501 133.2311639 167.85084491 C124.97579669 167.83902819 116.72042874 167.82882066 108.46505737 167.82040405 C105.4716695 167.81732993 102.47828163 167.81424115 99.4848938 167.81112671 C98.37689245 167.8099787 98.37689245 167.8099787 97.24650724 167.8088075 C84.89951366 167.7956948 72.55257278 167.7710148 60.20561826 167.73738331 C52.60731173 167.71717785 45.00911819 167.70679217 37.41078459 167.70937251 C31.58043942 167.71053651 25.75020906 167.69629997 19.91990089 167.67656326 C17.53919298 167.6709879 15.15846674 167.67045612 12.77775764 167.67550087 C-15.03754107 167.72823774 -37.73451092 162.22115314 -58.32662964 142.25180054 C-74.42572234 125.80878011 -81.4093768 104.01241429 -81.39962769 81.44125366 C-81.12134299 58.23351087 -71.3264231 38.4665798 -55.15084839 22.26742554 C-54.49342651 21.5984021 -53.83600464 20.92937866 -53.15866089 20.24008179 C-39.0514128 6.88966032 -19.13578605 -0.05891844 0 0 Z " fill="#A8FD02" transform="translate(1647.1508483886719,-0.267425537109375)"/>
</svg>
