<?xml version="1.0" encoding="UTF-8"?>
<svg version="1.1" xmlns="http://www.w3.org/2000/svg" width="2133" height="2133">
<path d="M0 0 C4.91278306 0.01709006 9.82507791 0.00688593 14.73784447 -0.01032162 C50.67564609 -0.11668584 86.55589175 1.57085319 122.27050781 5.70361328 C123.65411499 5.85893524 123.65411499 5.85893524 125.06567383 6.01739502 C171.21957531 11.20605906 216.77800782 19.41046373 261.89550781 30.39111328 C262.58177246 30.55720093 263.26803711 30.72328857 263.97509766 30.89440918 C339.84774692 49.26938196 412.95686695 76.87890815 482.89550781 111.39111328 C484.15831722 112.01003444 485.42134201 112.6285163 486.68457031 113.24658203 C502.48354876 120.98101551 518.01872192 129.02764489 533.24121094 137.85888672 C535.84010938 139.35913383 538.45082975 140.83597229 541.06738281 142.30517578 C564.70523387 155.60357331 587.45866675 170.17969561 609.89550781 185.39111328 C610.7022998 185.93638672 611.5090918 186.48166016 612.34033203 187.04345703 C628.93393271 198.27215338 645.07040509 210.10578459 660.89550781 222.39111328 C661.50346191 222.86258789 662.11141602 223.3340625 662.73779297 223.81982422 C676.15936055 234.24771985 689.35164474 244.96188971 702.27148438 256.00537109 C703.96265002 257.4484042 705.659254 258.88486145 707.35644531 260.32080078 C714.34477685 266.25035276 721.16147484 272.32844303 727.86425781 278.57861328 C730.58991749 281.11843252 733.36091461 283.60341932 736.14550781 286.07861328 C740.08013803 289.59940699 743.82253243 293.26444698 747.49707031 297.05517578 C749.46358087 298.97044176 751.46001306 300.75643657 753.54003906 302.54345703 C758.57216292 306.91290473 763.25804858 311.60740329 767.95800781 316.32861328 C768.81716797 317.18390625 769.67632813 318.03919922 770.56152344 318.92041016 C775.00176253 323.36743342 779.27900895 327.88456847 783.3737793 332.65112305 C785.43908409 335.01265477 787.64846263 337.20320087 789.89550781 339.39111328 C793.44468938 342.90287878 796.81519239 346.48120229 800.05957031 350.27392578 C802.24756951 352.79710783 804.50843894 355.24665848 806.77050781 357.70361328 C810.91796039 362.24636013 814.82783476 366.9323129 818.68847656 371.71923828 C820.81174119 374.28970378 823.0136263 376.75030691 825.27050781 379.20361328 C829.25059248 383.57619764 832.90898278 388.13280619 836.5300293 392.80102539 C839.53086619 396.666782 842.58524016 400.4803804 845.68969727 404.26342773 C852.1455921 412.13115992 858.3796516 420.13328175 864.39404297 428.34375 C865.40992815 429.72898791 866.43058063 431.11074016 867.45556641 432.48925781 C884.42106942 455.34986593 892.97040055 476.87550176 889.61425781 505.81640625 C886.54354849 525.98974522 874.57434712 546.36773889 858.26025391 558.61914062 C837.97317945 572.95595137 816.09174483 578.32827462 791.40478516 575.06152344 C786.76101385 574.23325139 782.35656936 572.93571773 777.89550781 571.39111328 C776.84621094 571.04048828 775.79691406 570.68986328 774.71582031 570.32861328 C760.55086441 565.03055185 747.78981397 554.91553706 738.89550781 542.76611328 C737.7706577 541.26469889 736.64565029 539.76340234 735.52050781 538.26220703 C734.93398437 537.47313965 734.34746094 536.68407227 733.74316406 535.87109375 C730.48844723 531.50251374 727.19322232 527.16478224 723.89550781 522.82861328 C723.22044189 521.94093262 722.54537598 521.05325195 721.84985352 520.13867188 C713.4664788 509.15523017 704.73531577 498.47145022 695.76611328 487.96240234 C693.01535616 484.73668716 690.34694705 481.45849436 687.70800781 478.14111328 C682.51634289 471.75639071 676.82804838 465.8488794 671.15332031 459.89501953 C667.9856095 456.56905506 664.88970179 453.18535362 661.80566406 449.78173828 C655.76984027 443.15448228 649.46307359 436.80705231 643.11499023 430.48022461 C641.19625277 428.56689134 639.28298027 426.64820824 637.37011719 424.72900391 C631.91544673 419.2713756 626.48122909 413.84894318 620.59790039 408.84838867 C617.66628495 406.33887877 614.88943526 403.66365576 612.08300781 401.01611328 C607.03639837 396.28914952 601.86216633 391.81602185 596.46191406 387.49267578 C593.91991418 385.41109901 591.50021446 383.24072948 589.08300781 381.01611328 C584.11612245 376.49577755 578.89050991 372.38170835 573.58691406 368.27001953 C571.13437473 366.36724318 568.70641135 364.43909846 566.29785156 362.48095703 C557.48321786 355.31684393 548.40965842 348.60349479 539.15869141 342.01464844 C536.98117623 340.45256905 534.82060153 338.87002597 532.66503906 337.27783203 C461.22843617 284.6632926 379.82920771 244.39260882 295.90350342 216.06890869 C293.93530487 215.40454671 291.96835702 214.73657728 290.00146484 214.06835938 C268.88190572 206.91772991 247.49535567 200.90342492 225.89550781 195.39111328 C225.18392517 195.20935547 224.47234253 195.02759766 223.73919678 194.84033203 C173.71798889 182.1170008 122.38541784 173.96149502 70.89550781 170.39111328 C69.80054993 170.31440399 69.80054993 170.31440399 68.68347168 170.23614502 C-8.79789486 164.88363586 -86.27962415 169.89977397 -162.60449219 184.01611328 C-163.37603638 184.15618805 -164.14758057 184.29626282 -164.94250488 184.44058228 C-178.04036872 186.83884485 -188.93616045 191.08326506 -200.72949219 197.26611328 C-201.81633301 197.83418701 -202.90317383 198.40226074 -204.02294922 198.98754883 C-214.54077007 204.53680523 -224.80125578 210.48387767 -235.01806641 216.56542969 C-238.15060214 218.41838825 -241.29901447 220.24142697 -244.45214844 222.05908203 C-262.86324897 232.72979233 -280.52701218 244.40964094 -298.10449219 256.39111328 C-298.79340546 256.86046295 -299.48231873 257.32981262 -300.19210815 257.81338501 C-308.14843196 263.24050223 -316.06316626 268.70467866 -323.79199219 274.45361328 C-324.58887451 275.04376221 -325.38575684 275.63391113 -326.20678711 276.24194336 C-332.90184859 281.21277503 -339.52906078 286.26310388 -346.10449219 291.39111328 C-347.2542071 292.28177013 -348.40394747 293.17239412 -349.55371094 294.06298828 C-356.51484254 299.47432287 -363.31207501 305.04221694 -370.01464844 310.77001953 C-372.88026913 313.21414662 -375.79854741 315.58807062 -378.72949219 317.95361328 C-383.49256436 321.82924261 -388.03813468 325.90345617 -392.55761719 330.05908203 C-394.69390968 332.0151658 -396.85229876 333.93299025 -399.04199219 335.82861328 C-403.9305597 340.08384411 -408.69545616 344.47290824 -413.45507812 348.87109375 C-415.07515739 350.36407976 -416.70268904 351.84858199 -418.33105469 353.33251953 C-426.80043657 361.09764264 -434.97202525 369.1515264 -443.10449219 377.26611328 C-443.64705658 377.80608948 -444.18962097 378.34606567 -444.74862671 378.90240479 C-450.2259825 384.35913121 -455.65796424 389.81570039 -460.65332031 395.72558594 C-462.22831128 397.53322194 -463.89302235 399.21283468 -465.60449219 400.89111328 C-468.64044143 403.87983665 -471.44957878 407.00817807 -474.22949219 410.23486328 C-476.27808312 412.59074286 -478.3765222 414.89618788 -480.47949219 417.20361328 C-484.35799946 421.50071156 -488.03315187 425.92870082 -491.67089844 430.43017578 C-493.85602414 433.08880384 -496.08848969 435.69159718 -498.34887695 438.28564453 C-504.45132971 445.29945759 -510.15119757 452.55542063 -515.75292969 459.97314453 C-518.00210189 462.9506893 -520.27751811 465.90464123 -522.58105469 468.84033203 C-523.16967285 469.59088867 -523.75829102 470.34144531 -524.36474609 471.11474609 C-525.45557806 472.50285503 -526.54865706 473.88920426 -527.64501953 475.27294922 C-538.85167456 489.56359283 -549.07022711 504.5781778 -559.10449219 519.70361328 C-559.67131714 520.55617706 -560.23814209 521.40874084 -560.82214355 522.28713989 C-569.16445601 534.84067916 -577.41103111 547.42615925 -585.10449219 560.39111328 C-585.65959473 561.32310547 -586.21469727 562.25509766 -586.78662109 563.21533203 C-595.22762736 577.4268749 -603.32231568 591.80900208 -611.10449219 606.39111328 C-611.81871338 607.72480957 -611.81871338 607.72480957 -612.54736328 609.08544922 C-632.96184753 647.31859557 -650.34864603 686.74372637 -665.36352539 727.38824463 C-666.08036335 729.32589187 -666.80182425 731.26175719 -667.52441406 733.19726562 C-699.72345342 819.84921942 -718.59573501 912.74374433 -724.10449219 1008.39111328 C-724.16644272 1009.36680771 -724.16644272 1009.36680771 -724.22964478 1010.36221313 C-725.29463487 1027.24389735 -725.29201359 1044.13356678 -725.28979492 1061.04125977 C-725.28971435 1064.28936414 -725.29656132 1067.53732537 -725.31030273 1070.78540039 C-725.43506943 1100.79716536 -724.35159331 1130.69729126 -721.41699219 1160.57861328 C-721.29585556 1161.83537369 -721.29585556 1161.83537369 -721.17227173 1163.11752319 C-715.08245965 1225.56817506 -702.89740155 1287.23356612 -685.10449219 1347.39111328 C-684.89542236 1348.09975525 -684.68635254 1348.80839722 -684.47094727 1349.53851318 C-674.11419164 1384.54590251 -661.5827594 1418.87961839 -647.10449219 1452.39111328 C-646.6351123 1453.48391602 -646.16573242 1454.57671875 -645.68212891 1455.70263672 C-630.5093568 1490.89265629 -613.50966128 1525.41273875 -593.90380859 1558.34423828 C-592.12531759 1561.35584856 -590.38255632 1564.38557949 -588.64746094 1567.42236328 C-580.2758181 1581.96658844 -571.22516066 1595.99274511 -561.91699219 1609.95361328 C-561.32988464 1610.83563416 -560.7427771 1611.71765503 -560.13787842 1612.62640381 C-549.56481332 1628.48323063 -538.58867805 1644.02331226 -526.97949219 1659.14111328 C-526.30700439 1660.01960938 -525.6345166 1660.89810547 -524.94165039 1661.80322266 C-522.99991543 1664.33561795 -521.05354714 1666.86434909 -519.10449219 1669.39111328 C-518.57549316 1670.07753906 -518.04649414 1670.76396484 -517.50146484 1671.47119141 C-511.75756794 1678.90603971 -505.8328155 1686.15512989 -499.72949219 1693.29736328 C-497.26533255 1696.18662649 -494.86788219 1699.12629786 -492.47949219 1702.07861328 C-488.85263937 1706.53446102 -485.07786549 1710.82342883 -481.20996094 1715.07080078 C-479.37531533 1717.09265512 -477.57680433 1719.13789851 -475.79199219 1721.20361328 C-471.2145802 1726.45293895 -466.46362691 1731.54256392 -461.72265625 1736.64355469 C-460.17312194 1738.31699563 -458.63380799 1739.99924922 -457.09667969 1741.68408203 C-449.35168998 1750.12974541 -441.32216159 1758.28062284 -433.22949219 1766.39111328 C-432.68942535 1766.93376831 -432.14935852 1767.47642334 -431.59292603 1768.03552246 C-426.19254645 1773.45631877 -420.77965429 1778.81025511 -414.95947266 1783.78564453 C-410.88307585 1787.31372895 -407.01765085 1791.07884385 -403.10449219 1794.78564453 C-398.53097733 1799.10011265 -393.86375474 1803.28276231 -389.10449219 1807.39111328 C-388.52231934 1807.89545898 -387.94014648 1808.39980469 -387.34033203 1808.91943359 C-379.69308846 1815.53219282 -371.97227686 1822.04129794 -364.10449219 1828.39111328 C-363.57339844 1828.82327148 -363.04230469 1829.25542969 -362.49511719 1829.70068359 C-352.38303016 1837.92835073 -342.02262227 1845.79568918 -331.55419922 1853.56347656 C-329.34931373 1855.20846089 -327.15994479 1856.87138045 -324.97558594 1858.54345703 C-301.18200207 1876.6072841 -275.78932744 1893.14961843 -250.10449219 1908.39111328 C-248.70650391 1909.22376709 -248.70650391 1909.22376709 -247.28027344 1910.07324219 C-234.80517029 1917.4828827 -222.22789905 1924.69379413 -209.41699219 1931.50830078 C-205.96838692 1933.34863825 -202.61590092 1935.28013249 -199.29199219 1937.33642578 C-184.04712487 1946.49199224 -167.82327093 1949.22219 -150.52862549 1952.00109863 C-148.08779765 1952.39379924 -145.6485838 1952.79551648 -143.20947266 1953.19873047 C-94.19874944 1961.24702959 -44.78705147 1965.63126377 4.89550781 1965.57861328 C5.96889404 1965.57800903 7.04228027 1965.57740479 8.14819336 1965.57678223 C83.12048028 1965.46361443 157.22620113 1955.66663571 229.89550781 1937.39111328 C230.58138977 1937.21984924 231.26727173 1937.04858521 231.97393799 1936.87213135 C307.1815833 1918.06964852 381.08489202 1888.52174393 448.27783203 1849.88134766 C451.38904673 1848.11014317 454.52972487 1846.39825801 457.67626953 1844.69091797 C475.21782242 1835.13579543 491.90282844 1824.13848984 508.52050781 1813.07861328 C509.1373645 1812.66863098 509.75422119 1812.25864868 510.38977051 1811.83624268 C519.35717913 1805.86725701 528.16482457 1799.70075552 536.89550781 1793.39111328 C537.76095215 1792.7672876 538.62639648 1792.14346191 539.51806641 1791.50073242 C549.28976791 1784.43160319 558.82318857 1777.14359967 568.12988281 1769.47314453 C571.68766386 1766.5439048 575.31494408 1763.71297358 578.95800781 1760.89111328 C589.4749749 1752.69992746 599.42992609 1743.82935598 609.23535156 1734.80517578 C611.40041894 1732.84040098 613.58583258 1730.90906492 615.79003906 1728.98876953 C627.82459411 1718.47944428 639.15389511 1707.2355919 650.45800781 1695.95361328 C651.07019165 1695.34401764 651.68237549 1694.734422 652.31311035 1694.10635376 C661.10902615 1685.34484788 661.10902615 1685.34484788 669.41186523 1676.11987305 C671.93321512 1673.18196313 674.61452913 1670.39429203 677.27050781 1667.57861328 C681.89823092 1662.63362466 686.293786 1657.5788409 690.52832031 1652.28955078 C693.36538968 1648.81577938 696.31456712 1645.4511256 699.27050781 1642.07861328 C705.40794428 1635.04077181 711.21909888 1627.80377395 716.89550781 1620.39111328 C717.51893066 1619.57771484 718.14235352 1618.76431641 718.78466797 1617.92626953 C725.24290398 1609.4907697 731.680475 1601.04088714 738.02050781 1592.51611328 C739.31014975 1590.80625094 740.6014747 1589.09765477 741.89550781 1587.39111328 C742.36214844 1586.75689453 742.82878906 1586.12267578 743.30957031 1585.46923828 C755.01874689 1570.54175001 775.4105597 1560.6856486 793.89550781 1558.39111328 C821.38180959 1556.87983896 843.38849459 1562.35170182 864.47363281 1580.62548828 C879.66516746 1594.88502694 889.20416601 1614.97720561 890.21191406 1635.78955078 C891.24237496 1670.60399244 874.33651471 1692.96375454 853.55761719 1719.28369141 C851.99251127 1721.26812065 850.43466817 1723.25796787 848.87988281 1725.25048828 C840.27431646 1736.2697569 831.40235293 1747.05206734 822.33691406 1757.6953125 C820.89351166 1759.39346174 819.45669359 1761.09701521 818.02050781 1762.80126953 C812.11794335 1769.77801392 806.03383425 1776.54249425 799.76660156 1783.19384766 C796.80811159 1786.33434764 793.8916354 1789.4893811 791.08300781 1792.76611328 C788.00749747 1796.34517066 784.6876406 1799.63755162 781.30175781 1802.92236328 C779.35904839 1804.91553269 777.54691544 1806.93468966 775.73535156 1809.04345703 C771.36893134 1814.07333868 766.67660491 1818.75625518 761.95800781 1823.45361328 C761.10271484 1824.31277344 760.24742188 1825.17193359 759.36621094 1826.05712891 C754.90903745 1830.50750274 750.38177801 1834.79643587 745.60424805 1838.90063477 C743.42823163 1840.79870309 741.40557384 1842.81919907 739.39550781 1844.89111328 C736.08564083 1848.24045057 732.68803832 1851.39037285 729.11425781 1854.45361328 C726.91150826 1856.37714106 724.76237081 1858.35216442 722.61889648 1860.34130859 C717.40837365 1865.17497753 712.07257593 1869.76166761 706.53222656 1874.21923828 C703.97130753 1876.32867677 701.52427327 1878.51998976 699.08300781 1880.76611328 C694.70771191 1884.74866609 690.14821515 1888.40929398 685.47680664 1892.03222656 C681.68038566 1894.97886874 677.93741345 1897.97905277 674.2265625 1901.03271484 C658.65086074 1913.84009417 642.333062 1925.71916537 625.89550781 1937.39111328 C624.57510498 1938.32890625 624.57510498 1938.32890625 623.22802734 1939.28564453 C609.3795622 1949.09003877 595.29051375 1958.41129648 580.89550781 1967.39111328 C579.16104607 1968.48081898 577.42667016 1969.5706613 575.69238281 1970.66064453 C562.59520198 1978.86154419 549.3131739 1986.72681091 535.89550781 1994.39111328 C534.85620117 1994.98698242 533.81689453 1995.58285156 532.74609375 1996.19677734 C500.18176345 2014.77801003 466.42163543 2031.76894557 431.89550781 2046.39111328 C430.84185028 2046.83946533 430.84185028 2046.83946533 429.76690674 2047.296875 C379.15158252 2068.82557741 327.14157352 2086.59126448 273.89550781 2100.39111328 C272.72371979 2100.69501984 272.72371979 2100.69501984 271.52825928 2101.00506592 C193.73127854 2121.11072503 112.55389948 2133.42985389 32.09472656 2133.59423828 C31.13250498 2133.59706566 30.17028339 2133.59989304 29.17890358 2133.60280609 C24.0618934 2133.61768085 18.94491044 2133.6269776 13.82788086 2133.63134766 C9.71287921 2133.63568 5.59809345 2133.64938265 1.4831543 2133.67236328 C-28.16728484 2133.8343542 -57.54960344 2132.80358 -87.10449219 2130.39111328 C-88.38901276 2130.28633667 -89.67353333 2130.18156006 -90.99697876 2130.0736084 C-97.54389607 2129.52122574 -104.07530362 2128.87236694 -110.60449219 2128.14111328 C-111.54489349 2128.03817963 -112.4852948 2127.93524597 -113.45419312 2127.82919312 C-211.22373867 2117.066433 -307.45428331 2092.81256376 -586.10449219 1955.39111328 C-586.7797998 1954.93446289 -587.45510742 1954.4778125 -588.15087891 1954.00732422 C-608.64445336 1940.14441415 -628.55227843 1925.55001585 -648.10449219 1910.39111328 C-648.67458008 1909.95009277 -649.24466797 1909.50907227 -649.83203125 1909.0546875 C-657.38238582 1903.20537596 -664.76794234 1897.20340722 -672.03027344 1891.00048828 C-674.81182306 1888.62842293 -677.6379788 1886.31618616 -680.47949219 1884.01611328 C-691.01089588 1875.42873324 -701.16850265 1866.43070266 -711.10839844 1857.16845703 C-713.82303726 1854.64121418 -716.58257587 1852.16801346 -719.35449219 1849.70361328 C-723.2891224 1846.18281958 -727.03151681 1842.51777958 -730.70605469 1838.72705078 C-732.66260329 1836.82148716 -734.64741493 1835.04666932 -736.71777344 1833.27001953 C-741.93827897 1828.73699797 -746.79061867 1823.85087063 -751.66699219 1818.95361328 C-752.57384766 1818.050625 -753.48070312 1817.14763672 -754.41503906 1816.21728516 C-758.9797265 1811.64597743 -763.39366912 1807.01603866 -767.6003418 1802.11352539 C-769.65848601 1799.75673146 -771.86341462 1797.57321512 -774.10449219 1795.39111328 C-777.63203866 1791.90069888 -780.97833692 1788.34467014 -784.20214844 1784.57470703 C-786.11129943 1782.38329963 -788.07440535 1780.247996 -790.05151367 1778.11791992 C-794.78951311 1773.01053636 -799.29771082 1767.79025584 -803.66699219 1762.35986328 C-806.53375437 1758.86829396 -809.50227453 1755.47587856 -812.47949219 1752.07861328 C-817.64396847 1746.16577063 -822.56421331 1740.10897672 -827.37011719 1733.90283203 C-829.68393933 1730.915671 -832.05009691 1727.97476273 -834.43017578 1725.0402832 C-841.97335686 1715.72216312 -849.0555914 1706.08582551 -856.10449219 1696.39111328 C-857.21118932 1694.87673651 -858.31795866 1693.36241249 -859.42480469 1691.84814453 C-888.73308138 1651.6355878 -914.74866472 1609.31224038 -938.10449219 1565.39111328 C-938.83998291 1564.01487793 -938.83998291 1564.01487793 -939.59033203 1562.61083984 C-981.5012757 1484.04704887 -1012.25152902 1399.85240535 -1054.85449219 1183.89111328 C-1054.94977203 1183.04038239 -1055.04505188 1182.18965149 -1055.14321899 1181.31314087 C-1059.12260319 1145.26627826 -1060.62103975 1109.10617517 -1060.49560547 1072.859375 C-1060.47851539 1067.88606174 -1060.48871764 1062.91323073 -1060.50592804 1057.93993378 C-1060.61152212 1021.82629551 -1058.87540679 985.79289544 -1054.85449219 949.89111328 C-1054.75155853 948.95071198 -1054.64862488 948.01031067 -1054.54257202 947.04141235 C-1043.77981191 849.2718668 -1019.52594267 753.04132216 -882.10449219 474.39111328 C-881.6478418 473.71580566 -881.19119141 473.04049805 -880.72070312 472.34472656 C-866.85779306 451.85115211 -852.26339476 431.94332704 -837.10449219 412.39111328 C-836.66347168 411.82102539 -836.22245117 411.2509375 -835.76806641 410.66357422 C-829.91875487 403.11321965 -823.91678612 395.72766313 -817.71386719 388.46533203 C-815.34180184 385.68378241 -813.02956506 382.85762667 -810.72949219 380.01611328 C-802.14211215 369.48470959 -793.14408157 359.32710282 -783.88183594 349.38720703 C-781.35459309 346.67256821 -778.88139237 343.9130296 -776.41699219 341.14111328 C-772.89619848 337.20648307 -769.23115849 333.46408866 -765.44042969 329.78955078 C-763.53486606 327.83300218 -761.76004823 325.84819054 -759.98339844 323.77783203 C-755.45037688 318.5573265 -750.56424953 313.7049868 -745.66699219 308.82861328 C-744.76400391 307.92175781 -743.86101562 307.01490234 -742.93066406 306.08056641 C-738.35935634 301.51587897 -733.72941757 297.10193635 -728.8269043 292.89526367 C-726.47011036 290.83711946 -724.28659403 288.63219084 -722.10449219 286.39111328 C-718.61407778 282.86356681 -715.05804905 279.51726855 -711.28808594 276.29345703 C-709.09667854 274.38430604 -706.96137491 272.42120012 -704.83129883 270.4440918 C-699.72391526 265.70609236 -694.50363474 261.19789465 -689.07324219 256.82861328 C-685.58167287 253.9618511 -682.18925746 250.99333094 -678.79199219 248.01611328 C-672.32498627 242.3676121 -665.66311021 237.03395095 -658.87695312 231.77685547 C-656.43106294 229.86461405 -654.01684921 227.91422473 -651.60131836 225.96386719 C-643.25535084 219.23005278 -634.74079583 212.74746513 -626.10449219 206.39111328 C-625.06301025 205.62395996 -625.06301025 205.62395996 -624.00048828 204.84130859 C-582.12857642 174.09117428 -537.95634265 146.77363667 -492.10449219 122.39111328 C-490.72825684 121.65562256 -490.72825684 121.65562256 -489.32421875 120.90527344 C-410.76042777 78.99432976 -326.56578425 48.24407645 -110.60449219 5.64111328 C-109.75376129 5.54583344 -108.9030304 5.45055359 -108.02651978 5.35238647 C-72.12400361 1.38893736 -36.10212248 -0.12646356 0 0 Z " fill="#515151" transform="translate(1060.1044921875,-0.39111328125)"/>
<path d="M0 0 C1.34339428 -0.00702449 2.68678824 -0.01411129 4.03018188 -0.02125549 C8.29486582 -0.04063252 12.55949522 -0.04568927 16.82421875 -0.046875 C17.91483549 -0.04753778 17.91483549 -0.04753778 19.02748489 -0.04821396 C41.00324337 -0.05521571 62.6886058 0.30630206 84.51171875 3.203125 C85.86672169 3.37222171 87.2218698 3.54015861 88.57714844 3.70703125 C120.7867332 7.71170359 152.52294201 14.54500224 183.51171875 24.203125 C184.60000977 24.53892578 185.68830078 24.87472656 186.80957031 25.22070312 C216.13387974 34.35692013 244.11827258 46.38658141 271.51171875 60.203125 C272.49237305 60.69554687 273.47302734 61.18796875 274.48339844 61.6953125 C316.62903239 82.96644459 356.07200092 110.71340108 390.78125 142.71875 C392.85925225 144.60946449 394.95938123 146.44774283 397.08984375 148.27734375 C402.19706675 152.73933644 407.05335039 157.45020686 411.87475586 162.21606445 C412.91723721 163.2420575 413.9650441 164.26266972 415.01831055 165.27758789 C432.30749846 181.94515423 443.11311935 202.4869028 443.86303711 226.90234375 C444.10084157 250.00615003 435.97576821 271.76745808 420.08300781 288.61865234 C404.04891066 304.78728045 382.89580811 313.33837713 360.19921875 313.515625 C343.62474811 313.515625 329.79173095 309.51617659 315.51171875 301.203125 C314.64675781 300.71585938 313.78179688 300.22859375 312.890625 299.7265625 C305.15035062 294.84483802 299.00116297 287.87814619 292.66015625 281.359375 C289.34872334 277.98328696 285.90279235 274.83754978 282.31591797 271.7578125 C279.94824109 269.71757348 277.67238687 267.5844554 275.38671875 265.453125 C269.03208234 259.67301736 262.35039653 254.39640663 255.51171875 249.203125 C254.7945166 248.6560791 254.07731445 248.1090332 253.33837891 247.54541016 C236.27958696 234.58570574 218.44909688 223.21560497 199.51171875 213.203125 C198.18841553 212.49953857 198.18841553 212.49953857 196.83837891 211.78173828 C151.28294075 187.74805522 100.82405132 173.44257256 49.51171875 169.203125 C48.8372168 169.14527832 48.16271484 169.08743164 47.46777344 169.02783203 C43.32323365 168.68600386 39.18649787 168.47003604 35.03076172 168.32177734 C33.1895765 168.23505356 31.34994785 168.11329248 29.51220703 167.97119141 C14.83978624 166.84797556 4.70041132 167.03788888 -6.7421875 176.84765625 C-7.36754395 177.41178223 -7.99290039 177.9759082 -8.63720703 178.55712891 C-10.97048811 180.63190878 -13.43252675 182.49326472 -15.92382812 184.37231445 C-27.28113373 192.99949852 -37.98142716 202.57312404 -48.48828125 212.203125 C-49.02501465 212.68942383 -49.56174805 213.17572266 -50.11474609 213.67675781 C-64.98972875 227.16946052 -78.69525357 241.72578752 -91.48828125 257.203125 C-91.97216309 257.78739258 -92.45604492 258.37166016 -92.95458984 258.97363281 C-151.10660471 329.55260114 -188.26845491 416.80200508 -201.48828125 546.203125 C-201.50874512 547.3571582 -201.52920898 548.51119141 -201.55029297 549.70019531 C-202.94339836 642.05962889 -180.39219543 733.34330766 -75.4140625 886.3671875 C-74.29845937 887.46524182 -73.17777668 888.55817268 -72.05078125 889.64453125 C-70.32856024 891.36244671 -68.75693852 893.16728143 -67.17578125 895.015625 C-61.16123451 901.97415889 -54.59197118 908.3907818 -47.60546875 914.3671875 C-45.0822867 916.5551867 -42.63273606 918.81605613 -40.17578125 921.078125 C-30.7833266 929.62256049 -20.83432371 937.45486044 -10.6484375 945.02734375 C-8.10930953 946.92353866 -5.72453085 948.85943673 -3.421875 951.03515625 C7.09215314 960.11870437 19.40649606 958.03546396 32.51171875 957.203125 C34.74608115 957.08959558 36.98045602 956.97631113 39.21484375 956.86328125 C89.07751591 954.00218845 138.44467968 941.82106135 183.51171875 920.203125 C184.44306641 919.76129883 185.37441406 919.31947266 186.33398438 918.86425781 C207.94045469 908.56283185 228.28587247 896.46827817 247.51171875 882.203125 C248.09598633 881.7704834 248.68025391 881.3378418 249.28222656 880.89208984 C261.24170739 871.98237931 272.51703045 862.26915184 283.51171875 852.203125 C284.01171387 851.74824707 284.51170898 851.29336914 285.02685547 850.82470703 C286.67052365 849.32896399 288.31071762 847.82952607 289.94921875 846.328125 C290.50222656 845.82192627 291.05523438 845.31572754 291.625 844.79418945 C294.26888905 842.35316924 296.85233486 839.88555001 299.328125 837.2734375 C305.75819934 830.51577567 312.30311995 825.63637565 320.51171875 821.203125 C321.38183594 820.72101562 322.25195312 820.23890625 323.1484375 819.7421875 C341.7253042 810.35418442 364.72661878 809.50465151 384.51171875 815.203125 C388.64913598 816.62599288 392.5731067 818.30191393 396.51171875 820.203125 C397.41277344 820.62207031 398.31382812 821.04101562 399.2421875 821.47265625 C418.58220901 831.15662084 431.9904863 848.22531307 439.51171875 868.203125 C446.73159308 890.74322047 444.57796625 913.95742145 434.51171875 935.203125 C428.00659683 947.32417951 418.10631118 956.78006041 408.44555664 966.3996582 C406.9436495 967.89617425 405.44720813 969.398008 403.95117188 970.90039062 C398.64394548 976.21166362 393.2416957 981.34576518 387.51171875 986.203125 C386.40536996 987.16435261 385.29987139 988.12655987 384.1953125 989.08984375 C350.25564642 1018.44726659 313.1974926 1043.28460404 273.51171875 1064.203125 C272.58439941 1064.69280762 271.65708008 1065.18249023 270.70166016 1065.68701172 C199.63671169 1102.91969244 116.44733865 1125.11972405 36.05859375 1125.40625 C34.71791554 1125.41327522 33.37723765 1125.42036201 32.03656006 1125.42750549 C27.77827465 1125.44688824 23.52004383 1125.45193953 19.26171875 1125.453125 C18.17260696 1125.45378778 18.17260696 1125.45378778 17.06149292 1125.45446396 C-5.25242809 1125.46158261 -27.33380784 1125.11669124 -49.48828125 1122.203125 C-50.847973 1122.02971635 -52.20767372 1121.85637806 -53.56738281 1121.68310547 C-118.28884704 1113.30299018 -180.28592128 1093.53562764 -238.48828125 1064.203125 C-239.53725586 1063.67654297 -240.58623047 1063.14996094 -241.66699219 1062.60742188 C-275.33307718 1045.62005267 -307.58757869 1024.43947367 -336.48828125 1000.203125 C-338.3210295 998.72323345 -340.1543759 997.2440824 -341.98828125 995.765625 C-346.70006054 991.91419913 -351.21792703 987.88678037 -355.6875 983.7578125 C-357.82593801 981.80727072 -359.98649278 979.90798255 -362.17871094 978.01977539 C-366.36302121 974.36197325 -370.31944591 970.5168298 -374.2421875 966.58203125 C-375.29900978 965.52664406 -375.29900978 965.52664406 -376.37718201 964.44993591 C-377.85481492 962.97297852 -379.33120582 961.49477758 -380.80639648 960.01538086 C-383.04494606 957.77147415 -385.28878598 955.53295796 -387.53320312 953.29492188 C-388.97818529 951.84927882 -390.42285717 950.40332555 -391.8671875 948.95703125 C-392.52779678 948.2984462 -393.18840607 947.63986115 -393.86903381 946.96131897 C-398.27261071 942.53585964 -402.42781288 937.9443069 -406.48828125 933.203125 C-406.94761551 932.67138168 -407.40694977 932.13963837 -407.88020325 931.59178162 C-414.50766688 923.90152982 -420.90037897 916.04773771 -427.09667969 908.00683594 C-428.01045552 906.82245421 -428.92767198 905.64071748 -429.84863281 904.46191406 C-444.90563464 885.16441279 -458.27711259 864.3989153 -470.48828125 843.203125 C-470.89385254 842.50622559 -471.29942383 841.80932617 -471.71728516 841.09130859 C-516.78434943 763.36855026 -544.36982452 670.97411886 -544.69140625 580.75 C-544.69843147 579.40932179 -544.70551826 578.0686439 -544.71266174 576.72796631 C-544.73204449 572.4696809 -544.73709578 568.21145008 -544.73828125 563.953125 C-544.73872311 563.22705048 -544.73916496 562.50097595 -544.73962021 561.75289917 C-544.74673886 539.43897816 -544.40184749 517.35759841 -541.48828125 495.203125 C-541.3148726 493.84343325 -541.14153431 492.48373253 -540.96826172 491.12402344 C-532.58814643 426.40255921 -512.82078389 364.40548497 -483.48828125 306.203125 C-482.96169922 305.15415039 -482.43511719 304.10517578 -481.89257812 303.02441406 C-463.88802348 267.34244002 -441.13005629 233.82613667 -415.48828125 203.203125 C-414.72668701 202.29288574 -414.72668701 202.29288574 -413.94970703 201.36425781 C-412.44774525 199.5761851 -410.93887965 197.79428044 -409.42578125 196.015625 C-408.79325439 195.26962036 -408.79325439 195.26962036 -408.14794922 194.50854492 C-398.52900558 183.31491296 -388.22495441 172.77670903 -377.77783203 162.36230469 C-375.72310617 160.31298989 -373.67385022 158.25831237 -371.625 156.203125 C-370.2932896 154.87207475 -368.96126937 153.54133439 -367.62890625 152.2109375 C-367.02975403 151.60976105 -366.43060181 151.00858459 -365.81329346 150.38919067 C-361.53277067 146.1318792 -357.06452761 142.13898462 -352.48828125 138.203125 C-351.35876987 137.21814141 -350.22976048 136.23258144 -349.1015625 135.24609375 C-341.97728284 129.06589303 -334.72076934 123.14436167 -327.17773438 117.48046875 C-325.4624442 116.1835904 -323.76369525 114.86720128 -322.06640625 113.546875 C-303.24738251 99.02311213 -283.07446933 86.06309394 -262.48828125 74.203125 C-261.79138184 73.79755371 -261.09448242 73.39198242 -260.37646484 72.97412109 C-182.66482566 27.9135042 -90.21941879 0.32073999 0 0 Z " fill="#515151" transform="translate(1048.48828125,503.796875)"/>
<path d="M0 0 C17.23806397 14.29176222 29.0836146 31.67133274 33 54 C34.74339265 81.50231966 29.90899226 103.66413069 12 125 C7.11944277 130.38879213 1.90901846 135.46649466 -3.25390625 140.58203125 C-4.72462121 142.04967997 -6.19473854 143.51792777 -7.66429138 144.98674011 C-10.72663929 148.04451628 -13.79378784 151.09735793 -16.86499023 154.14624023 C-20.78427109 158.03716633 -24.69475663 161.93678326 -28.60211277 165.83968067 C-32.35789692 169.59029104 -36.11833848 173.33621837 -39.87890625 177.08203125 C-40.58583681 177.78708109 -41.29276737 178.49213093 -42.02112007 179.21854591 C-55.17850187 192.33069132 -55.17850187 192.33069132 -61.32350159 197.55455017 C-64.30220902 200.12274356 -67.08825728 202.88696498 -69.88671875 205.6484375 C-70.50673264 206.25861221 -71.12674652 206.86878693 -71.76554871 207.49745178 C-90.37589322 225.47994997 -90.37589322 225.47994997 -106 246 C-106.57234375 246.89452881 -106.57234375 246.89452881 -107.15625 247.80712891 C-123.06140469 273.34235772 -127.68427689 305.25983949 -121.59082031 334.48046875 C-114.07917321 366.51360844 -95.40611539 387.80346118 -72.64672852 410.48364258 C-70.80041754 412.32454708 -68.95957727 414.17080272 -67.11914062 416.01757812 C-65.91959162 417.21646688 -64.71973274 418.41504569 -63.51953125 419.61328125 C-62.98286331 420.15197342 -62.44619537 420.69066559 -61.89326477 421.24568176 C-59.17435811 423.94824737 -56.40581275 426.53108671 -53.48730469 429.01708984 C-46.91123959 434.71791112 -40.84302217 440.97125513 -34.68359375 447.11328125 C-34.00461596 447.78943167 -33.32563816 448.46558208 -32.62608528 449.16222191 C-29.03618954 452.73720312 -25.44912114 456.31499194 -21.86450195 459.89526367 C-18.18419955 463.57007794 -14.4947046 467.23551492 -10.8029623 470.89883137 C-7.9435414 473.73953663 -5.09093975 476.5870173 -2.24009895 479.4363308 C-0.88356659 480.78985871 0.47543972 482.14091231 1.83706856 483.48931313 C21.50742004 502.98206488 33.25345586 523.36016223 33.5 551.5625 C33.29616487 574.8538483 24.7744632 594.8626 8.625 611.75 C-8.64924109 628.28854087 -30.6455105 635.54580954 -54.22265625 635.21484375 C-65.8292517 634.83756496 -76.55403177 632.12085873 -87 627 C-87.92296875 626.55785156 -88.8459375 626.11570312 -89.796875 625.66015625 C-101.72328496 619.57903479 -111.08118378 610.21856718 -120.44726562 600.82739258 C-121.54392652 599.73509197 -122.64100024 598.64320571 -123.7384491 597.55169678 C-126.68739034 594.61601639 -129.63002994 591.67409909 -132.57107353 588.73050904 C-135.04151922 586.25898464 -137.51495557 583.79046353 -139.98832369 581.32186431 C-145.83163003 575.48960887 -151.66964829 569.65209752 -157.50439453 563.8112793 C-163.49017693 557.81946285 -169.4850681 551.83687281 -175.48450899 545.85873491 C-180.66569689 540.69525782 -185.84095664 535.52588972 -191.01167631 530.35192984 C-194.08646498 527.27534296 -197.16334738 524.20093371 -200.24604797 521.13227272 C-203.14872206 518.24232765 -206.04382378 515.34499133 -208.93367958 512.44223022 C-209.98430267 511.38927407 -211.03738969 510.33876849 -212.09335899 509.29117393 C-219.27640366 502.16092271 -225.63051794 494.66090845 -231.75625801 486.61548936 C-233.75329924 484.02154392 -235.81617117 481.48258822 -237.875 478.9375 C-253.84681925 458.4911743 -280 419.86571084 -280 393 C-280.6624878 393.00062392 -281.32497561 393.00124784 -282.0075388 393.00189067 C-354.14059633 393.06968253 -426.27365753 393.13250333 -498.40673828 393.16937256 C-500.02321335 393.1702009 -500.02321335 393.1702009 -501.67234448 393.17104598 C-525.09308718 393.18301786 -548.51383022 393.19409855 -571.93457377 393.20426132 C-583.42024978 393.20925063 -594.90592569 393.21443685 -606.39160156 393.21972656 C-607.53455892 393.2202496 -608.67751628 393.22077263 -609.85510871 393.22131152 C-646.89567133 393.23835418 -683.93620952 393.26839739 -720.97675735 393.30518888 C-759.04357429 393.34293104 -797.11037772 393.36754451 -835.17721306 393.37565996 C-840.55499103 393.37681256 -845.93276896 393.37811511 -851.31054688 393.37950897 C-852.36896138 393.37977866 -853.42737588 393.38004836 -854.51786354 393.38032622 C-871.54926622 393.38505144 -888.58062709 393.40359924 -905.61201273 393.42732814 C-922.73802975 393.45089346 -939.86400537 393.45986781 -956.99003804 393.45400551 C-967.16250856 393.4509653 -977.33482742 393.45905533 -987.50727053 393.48319017 C-994.30836658 393.49822239 -1001.10936364 393.49863174 -1007.9104666 393.48732725 C-1011.78190789 393.48130572 -1015.65306295 393.48147445 -1019.52447319 393.49953273 C-1054.82500529 393.65464622 -1054.82500529 393.65464622 -1070.375 385.1875 C-1071.03725586 384.83913086 -1071.69951172 384.49076172 -1072.38183594 384.13183594 C-1087.97963697 375.76581186 -1099.67217765 364.60738734 -1108 349 C-1108.72123047 347.66195312 -1108.72123047 347.66195312 -1109.45703125 346.296875 C-1118.69475534 327.65397563 -1120.30134253 304.6399103 -1114.39453125 284.70703125 C-1105.46757892 260.97684145 -1090.41192783 243.44410549 -1067.625 232.1875 C-1050.99907393 225.45502831 -1034.94530346 225.42853646 -1017.28030825 225.51093523 C-1013.34532383 225.52479421 -1009.41038135 225.51516584 -1005.47538757 225.50862527 C-998.59125563 225.50036537 -991.70726255 225.50684505 -984.82314682 225.5231781 C-974.58687373 225.5473966 -964.35068751 225.54851407 -954.11439098 225.54501015 C-936.8923149 225.53976373 -919.67030037 225.55308522 -902.44824219 225.57707977 C-885.40234065 225.60076789 -868.35646476 225.6161476 -851.31054688 225.62049103 C-850.24970508 225.62076599 -849.18886328 225.62104094 -848.09587476 225.62132424 C-842.70814371 225.62267761 -837.32041265 225.62388313 -831.93268156 225.62503174 C-793.79592392 225.63342786 -755.65919974 225.66036187 -717.52246094 225.69824219 C-680.47884295 225.7349942 -643.43523413 225.76332166 -606.39160156 225.78027344 C-604.67808795 225.78106259 -604.67808795 225.78106259 -602.9299579 225.78186769 C-591.45782754 225.78714189 -579.98569711 225.79224513 -568.51356662 225.79722313 C-545.14462335 225.80736731 -521.77568068 225.81865232 -498.40673828 225.83062744 C-497.33233041 225.8311766 -496.25792253 225.83172576 -495.15095684 225.83229156 C-423.43395731 225.86907887 -351.71697634 225.93245787 -280 226 C-279.80641403 225.19665222 -279.61282806 224.39330444 -279.41337585 223.56561279 C-279.15280899 222.50078674 -278.89224213 221.43596069 -278.6237793 220.33886719 C-278.36831833 219.28801941 -278.11285736 218.23717163 -277.84965515 217.15447998 C-276.55640952 212.35309975 -274.73921943 207.82694677 -272.8125 203.25 C-272.22094116 201.82675415 -272.22094116 201.82675415 -271.61743164 200.37475586 C-268.38544865 192.70098091 -264.85153426 185.22770149 -260.97509766 177.86035156 C-259.99214485 175.98501345 -259.03197918 174.09924651 -258.07421875 172.2109375 C-244.51547433 145.77582129 -225.05363849 122.93218432 -204.17871094 102.00170898 C-203.12442124 100.94113452 -202.07031393 99.88037874 -201.01637268 98.81945801 C-197.59254379 95.37484038 -194.16361267 91.93532536 -190.734375 88.49609375 C-189.54437513 87.30203806 -188.35440597 86.10795176 -187.16446686 84.91383553 C-181.57405202 79.30443115 -175.9812699 73.69740041 -170.38554072 68.09329742 C-163.96354205 61.66152395 -157.54991827 55.22154765 -151.14324927 48.77450508 C-146.16316529 43.7641345 -141.17530897 38.76158531 -136.18170953 33.76468521 C-133.21144378 30.79208516 -130.24447793 27.81637037 -127.28575897 24.83227348 C-124.5005155 22.02352016 -121.70562588 19.22471721 -118.90351677 16.43279266 C-117.88632402 15.41608971 -116.87244431 14.39605747 -115.86246681 13.37218666 C-85.09238145 -17.7968071 -36.85765521 -27.96467445 0 0 Z " fill="#A8FD02" transform="translate(2100,757)"/>
<path d="M0 0 C-0.81339844 0.41137207 -1.62679687 0.82274414 -2.46484375 1.24658203 C-19.27442893 9.7719158 -35.83355511 18.53336125 -52.01025391 28.22265625 C-55.10049021 30.0597394 -58.20952844 31.86097382 -61.32421875 33.65625 C-79.74494172 44.32795318 -97.41529385 56.01360205 -115 68 C-115.68891327 68.46934967 -116.37782654 68.93869934 -117.08761597 69.42227173 C-125.04393977 74.84938895 -132.95867407 80.31356538 -140.6875 86.0625 C-141.48438232 86.65264893 -142.28126465 87.24279785 -143.10229492 87.85083008 C-149.79735641 92.82166175 -156.42456859 97.8719906 -163 103 C-164.14971491 103.89065685 -165.29945528 104.78128084 -166.44921875 105.671875 C-173.41035035 111.08320959 -180.20758282 116.65110366 -186.91015625 122.37890625 C-189.77577694 124.82303334 -192.69405522 127.19695734 -195.625 129.5625 C-200.38807218 133.43812933 -204.93364249 137.51234289 -209.453125 141.66796875 C-211.58941749 143.62405252 -213.74780657 145.54187697 -215.9375 147.4375 C-220.82606751 151.69273083 -225.59096398 156.08179496 -230.35058594 160.47998047 C-231.9706652 161.97296648 -233.59819686 163.45746871 -235.2265625 164.94140625 C-243.69594438 172.70652936 -251.86753307 180.76041311 -260 188.875 C-260.54256439 189.4149762 -261.08512878 189.95495239 -261.64413452 190.5112915 C-267.12149031 195.96801793 -272.55347205 201.42458711 -277.54882812 207.33447266 C-279.1238191 209.14210866 -280.78853016 210.8217214 -282.5 212.5 C-285.53594925 215.48872337 -288.34508659 218.61706479 -291.125 221.84375 C-293.17359094 224.19962958 -295.27203002 226.5050746 -297.375 228.8125 C-301.25350727 233.10959827 -304.92865968 237.53758754 -308.56640625 242.0390625 C-310.75153195 244.69769056 -312.9839975 247.3004839 -315.24438477 249.89453125 C-321.34683752 256.90834431 -327.04670539 264.16430735 -332.6484375 271.58203125 C-334.89760971 274.55957602 -337.17302593 277.51352795 -339.4765625 280.44921875 C-340.06518066 281.19977539 -340.65379883 281.95033203 -341.26025391 282.72363281 C-342.35108587 284.11174175 -343.44416487 285.49809098 -344.54052734 286.88183594 C-355.74718237 301.17247955 -365.96573493 316.18706452 -376 331.3125 C-376.56682495 332.16506378 -377.1336499 333.01762756 -377.71765137 333.89602661 C-386.05996383 346.44956588 -394.30653893 359.03504597 -402 372 C-402.55510254 372.93199219 -403.11020508 373.86398437 -403.68212891 374.82421875 C-412.12313517 389.03576162 -420.21782349 403.4178888 -428 418 C-428.47614746 418.88913086 -428.95229492 419.77826172 -429.44287109 420.69433594 C-449.85735534 458.92748229 -467.24415384 498.35261309 -482.2590332 538.99713135 C-482.97587116 540.93477859 -483.69733206 542.87064391 -484.41992188 544.80615234 C-516.61896123 631.45810614 -535.49124282 724.35263105 -541 820 C-541.06195053 820.97569443 -541.06195053 820.97569443 -541.12515259 821.97109985 C-542.19014269 838.85278407 -542.1875214 855.7424535 -542.18530273 872.65014648 C-542.18522216 875.89825086 -542.19206913 879.14621209 -542.20581055 882.39428711 C-542.33057725 912.40605208 -541.24710112 942.30617798 -538.3125 972.1875 C-538.23174225 973.02534027 -538.1509845 973.86318054 -538.06777954 974.72640991 C-531.97796746 1037.17706178 -519.79290936 1098.84245284 -502 1159 C-501.68639526 1160.06296295 -501.68639526 1160.06296295 -501.36645508 1161.1473999 C-491.00969945 1196.15478923 -478.47826721 1230.48850511 -464 1264 C-463.53062012 1265.09280273 -463.06124023 1266.18560547 -462.57763672 1267.31152344 C-447.40486462 1302.50154301 -430.40516909 1337.02162547 -410.79931641 1369.953125 C-409.0208254 1372.96473528 -407.27806413 1375.9944662 -405.54296875 1379.03125 C-397.17132592 1393.57547516 -388.12066848 1407.60163183 -378.8125 1421.5625 C-378.22539246 1422.44452087 -377.63828491 1423.32654175 -377.03338623 1424.23529053 C-366.46032114 1440.09211735 -355.48418586 1455.63219898 -343.875 1470.75 C-343.20251221 1471.62849609 -342.53002441 1472.50699219 -341.8371582 1473.41210938 C-339.89542324 1475.94450467 -337.94905496 1478.47323581 -336 1481 C-335.47100098 1481.68642578 -334.94200195 1482.37285156 -334.39697266 1483.08007812 C-328.65307575 1490.51492642 -322.72832331 1497.76401661 -316.625 1504.90625 C-314.16084036 1507.7955132 -311.76339 1510.73518458 -309.375 1513.6875 C-305.74814719 1518.14334774 -301.9733733 1522.43231555 -298.10546875 1526.6796875 C-296.27082315 1528.70154184 -294.47231214 1530.74678522 -292.6875 1532.8125 C-288.11008801 1538.06182567 -283.35913473 1543.15145064 -278.61816406 1548.25244141 C-277.06862975 1549.92588235 -275.5293158 1551.60813594 -273.9921875 1553.29296875 C-266.24719779 1561.73863213 -258.2176694 1569.88950956 -250.125 1578 C-249.58493317 1578.54265503 -249.04486633 1579.08531006 -248.48843384 1579.64440918 C-243.08805426 1585.06520549 -237.6751621 1590.41914183 -231.85498047 1595.39453125 C-227.77858366 1598.92261567 -223.91315866 1602.68773057 -220 1606.39453125 C-215.42648514 1610.70899937 -210.75926255 1614.89164902 -206 1619 C-205.41782715 1619.5043457 -204.8356543 1620.00869141 -204.23583984 1620.52832031 C-196.58859627 1627.14107954 -188.86778467 1633.65018465 -181 1640 C-180.46890625 1640.4321582 -179.9378125 1640.86431641 -179.390625 1641.30957031 C-169.27853797 1649.53723745 -158.91813008 1657.4045759 -148.44970703 1665.17236328 C-146.24482154 1666.81734761 -144.0554526 1668.48026716 -141.87109375 1670.15234375 C-118.07750988 1688.21617082 -92.68483525 1704.75850515 -67 1720 C-65.60201172 1720.83265381 -65.60201172 1720.83265381 -64.17578125 1721.68212891 C-43.15958384 1734.16478864 -21.69183263 1745.74144907 0 1757 C-3.17775873 1758.02199969 -5.22484365 1757.94429374 -8.44775391 1757.13891602 C-9.32551987 1756.92409073 -10.20328583 1756.70926544 -11.10765076 1756.4879303 C-12.05439163 1756.24570236 -13.00113251 1756.00347443 -13.9765625 1755.75390625 C-15.46030113 1755.38506569 -15.46030113 1755.38506569 -16.97401428 1755.0087738 C-20.19384434 1754.20417426 -23.40956436 1753.38447272 -26.625 1752.5625 C-27.72188141 1752.2847876 -28.81876282 1752.0070752 -29.94888306 1751.72094727 C-44.96241461 1747.91760912 -59.86777093 1743.96079687 -74.58349609 1739.11621094 C-77.88779396 1738.036659 -81.19930507 1736.98350773 -84.51419067 1735.93708801 C-128.49291909 1722.04986538 -170.54969026 1704.1745686 -212 1684 C-213.3307959 1683.35611328 -213.3307959 1683.35611328 -214.68847656 1682.69921875 C-228.453917 1676.0257078 -241.75185011 1668.64274526 -255 1661 C-255.99080566 1660.4323291 -256.98161133 1659.8646582 -258.00244141 1659.27978516 C-272.59789684 1650.9155664 -286.91422312 1642.19669918 -301 1633 C-302.0012793 1632.34708984 -303.00255859 1631.69417969 -304.03417969 1631.02148438 C-315.97373852 1623.21153777 -327.67079153 1615.21377803 -338.98681641 1606.52587891 C-341.98033518 1604.25696158 -345.02085632 1602.05387126 -348.05737305 1599.84301758 C-357.02689702 1593.30481284 -365.72379751 1586.50686227 -374.27197266 1579.42822266 C-376.73154178 1577.39537731 -379.21088815 1575.38702377 -381.6875 1573.375 C-390.83202349 1565.87566814 -399.82327248 1558.24943417 -408.53515625 1550.25 C-410.58115954 1548.38233297 -412.65017157 1546.55630403 -414.75 1544.75 C-426.73602082 1534.29817699 -438.04938419 1523.11321144 -449.2734375 1511.85693359 C-451.52228794 1509.60265829 -453.77652448 1507.35386624 -456.03125 1505.10546875 C-457.48990452 1503.6461543 -458.94824927 1502.18653015 -460.40625 1500.7265625 C-461.39703552 1499.73881332 -461.39703552 1499.73881332 -462.40783691 1498.73110962 C-466.24260238 1494.87721067 -469.89772335 1490.91632504 -473.44351196 1486.79460144 C-475.84712034 1484.02328618 -478.3656848 1481.36269591 -480.875 1478.6875 C-485.31465293 1473.91589105 -489.51659141 1469.0183201 -493.59765625 1463.93359375 C-496.44962178 1460.45094967 -499.4085712 1457.07252582 -502.375 1453.6875 C-508.51293642 1446.64895544 -514.31500146 1439.40671074 -520 1432 C-520.6074707 1431.21318848 -521.21494141 1430.42637695 -521.84082031 1429.61572266 C-530.35439212 1418.58420004 -538.68769349 1407.46026149 -546.61621094 1396 C-547.98098852 1394.02747743 -549.3532893 1392.0603641 -550.7265625 1390.09375 C-567.80223931 1365.54880992 -583.53695681 1340.16456273 -598 1314 C-598.52561523 1313.05318359 -599.05123047 1312.10636719 -599.59277344 1311.13085938 C-635.82508869 1245.71202064 -664.36485843 1175.40346358 -682.32324219 1102.73828125 C-682.77729168 1100.90111707 -683.2363415 1099.06518202 -683.70019531 1097.23046875 C-695.97683204 1048.66133959 -704.02086319 999.34025327 -707.81573486 949.39453125 C-707.98802869 947.15556758 -708.16971727 944.9176099 -708.35498047 942.6796875 C-710.11713945 921.08282719 -710.17939223 899.46735562 -710.1875 877.8125 C-710.18808914 877.11404716 -710.18867828 876.41559433 -710.18928528 875.69597626 C-710.20652578 851.84774881 -709.82980642 828.02436376 -707.8125 804.25 C-707.72021622 803.15196045 -707.72021622 803.15196045 -707.62606812 802.03173828 C-703.79767314 757.29479969 -696.47986853 712.65753585 -686 669 C-685.71189453 667.78086914 -685.42378906 666.56173828 -685.12695312 665.30566406 C-667.74548892 592.08670543 -639.80590009 522.30602064 -587.65966797 424.77978516 C-586.06716522 422.11249532 -584.48723797 419.43814751 -582.91015625 416.76171875 C-558.43483706 375.38744041 -530.07042949 336.12754305 -498.87060547 299.57128906 C-496.11984835 296.34557388 -493.45143924 293.06738108 -490.8125 289.75 C-486.1611473 284.02590289 -481.11140944 278.69988905 -476.02270508 273.36425781 C-472.65608846 269.83369212 -469.35073612 266.27277745 -466.12890625 262.609375 C-459.50158364 255.21244158 -452.40939551 248.26060893 -445.37963867 241.24926758 C-442.93618078 238.81118368 -440.49813193 236.36778211 -438.06054688 233.92382812 C-436.48729979 232.35124167 -434.91374263 230.77896536 -433.33984375 229.20703125 C-432.62191147 228.48707474 -431.90397919 227.76711823 -431.16429138 227.02534485 C-427.15857191 223.03789594 -423.06071627 219.21821377 -418.77304077 215.53492737 C-416.00718026 213.14051261 -413.35528243 210.6273614 -410.6875 208.125 C-405.91589105 203.68534707 -401.0183201 199.48340859 -395.93359375 195.40234375 C-392.45094967 192.55037822 -389.07252582 189.5914288 -385.6875 186.625 C-378.64895544 180.48706358 -371.40671074 174.68499854 -364 169 C-363.21318848 168.3925293 -362.42637695 167.78505859 -361.61572266 167.15917969 C-350.58420004 158.64560788 -339.46026149 150.31230651 -328 142.38378906 C-326.02747743 141.01901148 -324.0603641 139.6467107 -322.09375 138.2734375 C-297.54880992 121.19776069 -272.16456273 105.46304319 -246 91 C-245.05318359 90.47438477 -244.10636719 89.94876953 -243.13085938 89.40722656 C-172.88342157 50.50058497 -97.57187333 21.56226146 -19.55078125 2.62255859 C-17.28073202 2.0685171 -15.01494057 1.50026254 -12.75 0.92578125 C-11.595 0.64089844 -10.44 0.35601562 -9.25 0.0625 C-7.83460938 -0.29134766 -7.83460938 -0.29134766 -6.390625 -0.65234375 C-3.8830268 -1.01701081 -2.40445165 -0.67787773 0 0 Z " fill="#6E6E6E" transform="translate(877,188)"/>
<path d="M0 0 C-2.43432485 2.52242999 -4.82914228 4.722053 -7.72265625 6.69921875 C-8.76921387 7.42250366 -8.76921387 7.42250366 -9.83691406 8.16040039 C-10.9385791 8.9163147 -10.9385791 8.9163147 -12.0625 9.6875 C-18.97738108 14.50348203 -25.57957698 19.53561078 -32 25 C-33.06838512 25.89527799 -34.13742761 26.7897719 -35.20703125 27.68359375 C-41.93253583 33.31799776 -48.53475197 39.06729407 -55 45 C-55.53818359 45.48774902 -56.07636719 45.97549805 -56.63085938 46.47802734 C-71.50448167 59.9691126 -85.20831375 74.52428541 -98 90 C-98.48388184 90.58426758 -98.96776367 91.16853516 -99.46630859 91.77050781 C-157.61832346 162.34947614 -194.78017366 249.59888008 -208 379 C-208.02046387 380.1540332 -208.04092773 381.30806641 -208.06201172 382.49707031 C-209.45511711 474.85650389 -186.90391418 566.14018266 -81.92578125 719.1640625 C-80.81017812 720.26211682 -79.68949543 721.35504768 -78.5625 722.44140625 C-76.84027899 724.15932171 -75.26865727 725.96415643 -73.6875 727.8125 C-67.67295326 734.77103389 -61.10368993 741.1876568 -54.1171875 747.1640625 C-51.59400545 749.3520617 -49.14445481 751.61293113 -46.6875 753.875 C-32.82359283 766.48717273 -17.80699265 777.95320444 -2.24609375 788.390625 C-1.50488281 788.92171875 -0.76367188 789.4528125 0 790 C0 790.33 0 790.66 0 791 C-8.82542612 791.16294766 -17.41971301 790.74615409 -26.1875 789.75 C-27.39801025 789.61432617 -28.60852051 789.47865234 -29.85571289 789.33886719 C-94.64560093 781.8717009 -157.29518094 760.66901393 -211 723 C-211.53463867 722.62842773 -212.06927734 722.25685547 -212.62011719 721.87402344 C-239.08902813 703.44973312 -263.49939406 682.04767077 -285 658 C-285.77851318 657.13060791 -285.77851318 657.13060791 -286.57275391 656.24365234 C-336.71351943 599.87303576 -371.40803944 526.09864741 -380.61035156 451.09863281 C-380.99693988 448.02433521 -381.44440289 444.96341521 -381.8984375 441.8984375 C-388.20323239 396.13590002 -383.77162161 349.86829309 -374 305 C-373.77000809 303.93919724 -373.77000809 303.93919724 -373.53536987 302.85696411 C-371.2400835 292.38463642 -368.37205654 282.2161206 -364.9375 272.0625 C-364.70111816 271.35821869 -364.46473633 270.65393738 -364.22119141 269.92831421 C-352.66653079 235.6285428 -336.81632005 202.67788602 -316 173 C-315.62842773 172.46536133 -315.25685547 171.93072266 -314.87402344 171.37988281 C-293.58301944 140.79256145 -268.30923735 112.11714495 -239 89 C-237.88636345 88.08534757 -236.77449251 87.16854267 -235.6640625 86.25 C-225.86494165 78.19179245 -215.60744871 70.95307864 -205 64 C-204.19884766 63.47293457 -203.39769531 62.94586914 -202.57226562 62.40283203 C-144.012028 24.19756857 -70.48581166 -1.25370021 0 0 Z " fill="#6E6E6E" transform="translate(1055,671)"/>
</svg>
